<svg id="svg" version="1.1" xmlns="http://www.w3.org/2000/svg" xmlns:xlink="http://www.w3.org/1999/xlink" width="400" height="400" viewBox="0, 0, 400,400"><g id="svgg"><path id="path0" d="M0.000 200.000 L 0.000 400.000 200.000 400.000 L 400.000 400.000 400.000 200.000 L 400.000 0.000 200.000 0.000 L 0.000 0.000 0.000 200.000 M244.403 82.426 C 247.447 82.638,250.260 82.707,250.653 82.580 C 251.261 82.383,251.280 82.416,250.781 82.809 C 250.310 83.179,250.448 83.225,251.484 83.047 C 252.388 82.891,252.692 82.956,252.500 83.266 C 252.311 83.572,252.535 83.631,253.230 83.456 C 253.781 83.318,254.291 83.344,254.362 83.513 C 254.510 83.865,260.304 85.612,261.584 85.690 C 262.047 85.719,262.363 85.843,262.286 85.967 C 262.210 86.091,263.541 86.740,265.245 87.409 C 271.908 90.029,279.713 95.582,285.012 101.472 C 286.893 103.563,288.573 105.332,288.747 105.404 C 288.921 105.475,289.063 105.720,289.063 105.947 C 289.063 106.173,289.370 106.611,289.746 106.919 C 290.122 107.228,290.207 107.366,289.934 107.228 C 289.661 107.089,290.276 108.283,291.301 109.880 C 292.326 111.478,293.323 112.693,293.517 112.582 C 293.712 112.470,293.752 112.572,293.607 112.807 C 293.270 113.352,294.686 115.720,295.116 115.331 C 295.293 115.170,295.315 115.253,295.165 115.514 C 295.015 115.775,295.284 116.742,295.763 117.662 C 296.243 118.583,296.677 119.582,296.729 119.883 C 296.781 120.184,297.033 120.559,297.290 120.718 C 297.546 120.877,297.636 121.202,297.488 121.441 C 297.340 121.680,297.416 121.875,297.656 121.875 C 297.896 121.875,297.984 122.051,297.852 122.266 C 297.719 122.480,297.752 122.656,297.926 122.657 C 298.100 122.657,298.270 123.135,298.304 123.719 C 298.338 124.303,298.539 124.838,298.751 124.909 C 298.962 124.980,299.046 125.381,298.936 125.800 C 298.827 126.219,298.928 126.563,299.161 126.563 C 299.394 126.563,299.484 126.826,299.360 127.148 C 299.236 127.471,299.342 127.734,299.594 127.734 C 299.884 127.734,299.956 128.040,299.789 128.565 C 299.607 129.138,299.664 129.309,299.974 129.118 C 300.291 128.922,300.344 129.153,300.154 129.908 C 299.966 130.656,300.018 130.894,300.328 130.703 C 300.639 130.511,300.695 130.800,300.519 131.682 C 300.335 132.601,300.393 132.857,300.736 132.645 C 301.074 132.437,301.133 132.636,300.950 133.365 C 300.811 133.919,300.835 134.681,301.004 135.058 C 301.544 136.259,301.591 138.361,301.683 165.430 C 301.733 180.039,301.668 190.938,301.539 189.648 L 301.303 187.305 301.238 190.358 C 301.201 192.037,301.353 193.748,301.573 194.161 C 302.496 195.885,301.999 238.677,300.972 245.996 C 300.656 248.246,300.485 250.227,300.592 250.400 C 300.699 250.573,300.608 250.774,300.391 250.846 C 300.174 250.918,299.953 251.724,299.901 252.635 C 299.848 253.547,299.665 254.294,299.495 254.295 C 299.324 254.296,299.220 254.517,299.263 254.785 C 299.307 255.054,299.227 255.537,299.087 255.859 C 298.947 256.182,298.323 257.939,297.700 259.766 C 297.077 261.592,296.431 263.422,296.264 263.834 C 296.035 264.399,296.087 264.503,296.478 264.262 C 296.825 264.047,296.903 264.093,296.713 264.399 C 296.558 264.651,296.237 264.737,296.000 264.591 C 295.721 264.418,295.660 264.560,295.828 264.995 C 295.969 265.364,295.940 265.576,295.763 265.467 C 295.312 265.188,294.070 267.921,294.392 268.484 C 294.538 268.738,294.511 268.813,294.333 268.652 C 294.050 268.395,292.236 271.083,292.058 272.022 C 292.022 272.211,291.523 272.894,290.950 273.540 C 290.346 274.220,290.005 274.965,290.138 275.311 C 290.289 275.705,290.210 275.812,289.907 275.625 C 289.640 275.460,289.338 275.627,289.185 276.026 C 289.041 276.402,288.198 277.424,287.313 278.296 C 286.428 279.169,285.273 280.412,284.747 281.060 C 284.220 281.707,283.047 282.831,282.140 283.557 C 281.234 284.284,280.588 285.033,280.705 285.222 C 280.822 285.411,280.773 285.519,280.595 285.462 C 280.068 285.290,275.780 288.537,276.086 288.876 C 276.240 289.048,276.154 289.065,275.893 288.916 C 275.632 288.766,275.061 289.001,274.624 289.439 C 274.186 289.876,273.696 290.255,273.535 290.280 C 273.374 290.306,271.309 291.253,268.945 292.385 C 263.970 294.769,260.105 296.092,253.869 297.549 L 249.414 298.590 205.459 298.807 C 155.978 299.051,143.967 298.882,139.258 297.879 C 119.643 293.698,103.555 280.589,95.838 262.500 C 95.242 261.104,94.627 259.906,94.470 259.838 C 94.313 259.770,94.273 259.486,94.380 259.205 C 94.488 258.924,94.317 258.436,94.001 258.119 C 93.685 257.803,93.439 257.297,93.454 256.995 C 93.527 255.584,93.343 254.890,93.028 255.386 C 92.836 255.689,92.708 255.170,92.708 254.083 C 92.708 253.088,92.500 252.146,92.245 251.989 C 91.990 251.831,91.813 251.363,91.851 250.949 C 91.997 249.366,91.782 248.010,91.419 248.234 C 91.177 248.384,91.031 228.778,91.014 193.472 C 90.998 163.225,90.929 137.998,90.860 137.413 C 90.788 136.799,90.895 136.449,91.113 136.584 C 91.351 136.731,91.387 136.199,91.211 135.156 C 90.994 133.871,91.041 133.563,91.421 133.798 C 91.788 134.025,91.846 133.841,91.651 133.066 C 91.501 132.467,91.555 132.031,91.780 132.031 C 92.007 132.031,92.066 131.520,91.921 130.799 C 91.734 129.862,91.794 129.639,92.168 129.871 C 92.532 130.095,92.592 129.957,92.398 129.346 C 92.253 128.889,92.282 128.516,92.462 128.516 C 92.726 128.516,94.540 122.783,94.748 121.289 C 94.778 121.074,94.830 120.668,94.862 120.387 C 94.896 120.102,95.124 120.000,95.379 120.158 C 95.686 120.348,95.754 120.228,95.586 119.791 C 95.449 119.433,95.518 119.141,95.738 119.141 C 95.959 119.141,96.041 118.981,95.920 118.785 C 95.584 118.241,96.121 117.159,96.586 117.445 C 96.833 117.598,96.879 117.510,96.701 117.222 C 96.529 116.944,96.708 116.499,97.129 116.156 C 97.526 115.832,97.614 115.689,97.324 115.838 C 96.899 116.057,96.883 115.949,97.240 115.282 C 97.484 114.826,97.848 114.453,98.048 114.453 C 98.249 114.453,98.319 114.207,98.203 113.907 C 98.088 113.606,98.209 113.227,98.471 113.065 C 98.777 112.876,98.848 112.933,98.670 113.221 C 98.517 113.469,98.483 113.672,98.596 113.672 C 98.709 113.672,99.000 113.299,99.244 112.843 C 99.556 112.261,99.560 112.094,99.258 112.281 C 98.457 112.776,98.823 112.077,99.902 111.050 C 100.493 110.488,100.757 110.155,100.488 110.311 C 99.599 110.825,99.981 110.130,101.270 108.891 C 101.968 108.219,102.201 107.921,101.787 108.229 C 101.052 108.777,101.050 108.766,101.735 107.715 C 102.395 106.700,103.096 106.131,102.502 107.092 C 102.329 107.371,102.395 107.437,102.674 107.264 C 102.922 107.111,103.125 106.732,103.125 106.422 C 103.125 106.113,103.311 105.859,103.539 105.859 C 103.766 105.859,103.826 105.640,103.671 105.371 C 103.517 105.103,103.534 105.013,103.710 105.172 C 104.116 105.540,105.142 104.716,104.855 104.253 C 104.738 104.062,104.838 103.906,105.078 103.906 C 105.318 103.906,105.404 103.726,105.267 103.506 C 105.131 103.286,105.253 103.154,105.537 103.213 C 105.822 103.272,106.011 103.101,105.957 102.832 C 105.903 102.563,106.079 102.388,106.348 102.441 C 106.616 102.495,106.777 102.275,106.706 101.953 C 106.634 101.631,106.708 101.499,106.869 101.661 C 107.273 102.065,108.635 100.774,108.329 100.278 C 108.193 100.059,108.257 99.987,108.470 100.119 C 108.683 100.250,109.545 99.644,110.386 98.772 C 111.226 97.899,113.320 96.123,115.039 94.825 C 116.758 93.527,118.384 92.193,118.652 91.861 C 118.921 91.529,119.145 91.422,119.149 91.625 C 119.154 91.827,119.521 91.553,119.964 91.016 C 120.408 90.479,120.655 90.303,120.513 90.625 C 120.342 91.012,120.443 90.981,120.810 90.533 C 121.116 90.161,121.481 89.970,121.621 90.110 C 121.761 90.250,121.875 90.160,121.875 89.909 C 121.875 89.658,122.010 89.497,122.176 89.551 C 122.744 89.735,125.760 88.172,125.536 87.810 C 125.413 87.611,125.550 87.480,125.840 87.520 C 127.052 87.687,127.770 87.483,127.502 87.049 C 127.338 86.784,127.394 86.704,127.638 86.854 C 128.030 87.097,132.396 85.660,132.813 85.151 C 132.920 85.020,133.359 84.906,133.789 84.897 C 134.219 84.889,135.977 84.501,137.695 84.035 C 143.245 82.532,145.680 82.307,158.984 82.069 C 178.146 81.728,237.962 81.977,244.403 82.426 M196.003 88.955 C 196.705 89.042,197.760 89.040,198.347 88.951 C 198.934 88.862,198.359 88.791,197.070 88.793 C 195.781 88.795,195.301 88.868,196.003 88.955 M156.250 104.883 C 154.649 106.494,153.428 107.813,153.535 107.813 C 153.643 107.813,155.040 106.494,156.641 104.883 C 158.241 103.271,159.463 101.953,159.355 101.953 C 159.248 101.953,157.851 103.271,156.250 104.883 M235.547 104.492 C 236.276 105.244,236.960 105.859,237.067 105.859 C 237.175 105.859,236.666 105.244,235.938 104.492 C 235.209 103.740,234.524 103.125,234.417 103.125 C 234.310 103.125,234.818 103.740,235.547 104.492 M201.866 114.091 C 202.794 115.157,202.691 115.698,201.622 115.378 C 201.267 115.272,201.504 115.482,202.148 115.844 C 202.793 116.207,203.610 116.757,203.965 117.067 C 204.427 117.470,204.687 117.504,204.883 117.187 C 205.033 116.944,205.092 116.713,205.012 116.673 C 204.933 116.634,203.996 115.811,202.929 114.844 C 201.862 113.877,201.384 113.538,201.866 114.091 M169.311 116.113 L 168.164 117.383 169.434 116.236 C 170.132 115.604,170.703 115.033,170.703 114.966 C 170.703 114.664,170.381 114.930,169.311 116.113 M192.285 124.117 C 193.521 124.194,195.542 124.194,196.777 124.117 C 198.013 124.039,197.002 123.976,194.531 123.976 C 192.061 123.976,191.050 124.039,192.285 124.117 M179.350 132.097 C 179.321 132.455,179.183 133.071,179.044 133.464 C 178.849 134.016,178.901 134.079,179.272 133.736 C 179.537 133.493,179.675 132.877,179.578 132.369 C 179.482 131.861,179.379 131.739,179.350 132.097 M90.521 146.777 C 90.441 147.798,90.375 146.963,90.375 144.922 C 90.375 142.881,90.441 142.046,90.521 143.066 C 90.602 144.087,90.602 145.757,90.521 146.777 M222.900 142.007 C 222.766 142.356,222.671 142.935,222.690 143.294 C 222.708 143.652,222.878 143.427,223.068 142.793 C 223.436 141.560,223.306 140.950,222.900 142.007 M138.881 149.414 C 139.144 157.866,140.907 168.714,141.916 168.090 C 142.132 167.957,142.193 168.035,142.051 168.263 C 141.658 168.901,144.817 178.185,147.445 184.112 C 149.012 187.647,155.613 200.730,157.037 203.125 C 157.740 204.307,159.142 206.768,160.152 208.594 C 161.163 210.420,163.668 214.577,165.720 217.831 C 167.772 221.086,170.176 224.953,171.063 226.425 C 171.950 227.897,173.257 229.893,173.966 230.859 C 174.676 231.826,177.871 236.484,181.066 241.211 C 189.087 253.076,192.645 257.517,194.481 257.956 C 195.260 258.143,196.162 258.390,196.484 258.506 C 196.807 258.622,197.333 258.672,197.655 258.616 C 198.094 258.540,198.046 258.735,197.459 259.403 C 197.030 259.891,196.872 260.179,197.108 260.042 C 197.637 259.735,202.927 252.829,202.936 252.435 C 202.939 252.277,203.065 251.955,203.216 251.718 C 203.415 251.406,203.072 251.399,201.974 251.692 C 197.769 252.814,192.718 248.072,181.452 232.422 C 178.900 228.877,175.742 224.537,174.434 222.777 C 173.126 221.017,170.389 216.831,168.352 213.474 C 165.052 208.034,160.758 201.291,159.888 200.180 C 159.713 199.957,159.512 199.517,159.440 199.203 C 159.369 198.890,158.123 196.523,156.673 193.945 C 146.070 175.101,141.497 162.831,139.273 147.266 L 138.687 143.164 138.881 149.414 M254.040 147.070 C 254.042 148.789,254.110 149.444,254.193 148.525 C 254.275 147.606,254.274 146.200,254.190 145.400 C 254.106 144.600,254.039 145.352,254.040 147.070 M283.594 148.492 C 283.594 148.677,284.033 148.828,284.570 148.828 C 285.107 148.828,285.547 148.761,285.547 148.678 C 285.547 148.596,285.107 148.445,284.570 148.342 C 284.033 148.239,283.594 148.307,283.594 148.492 M175.781 149.164 C 176.997 150.153,178.142 150.498,177.872 149.795 C 177.765 149.515,177.998 149.204,178.389 149.102 C 178.781 149.001,178.383 148.925,177.504 148.935 C 176.625 148.944,175.658 148.820,175.355 148.661 C 175.052 148.501,175.244 148.727,175.781 149.164 M90.511 151.265 C 90.417 151.751,90.337 151.445,90.333 150.586 C 90.329 149.727,90.405 149.329,90.503 149.702 C 90.601 150.076,90.604 150.779,90.511 151.265 M181.250 152.494 C 181.250 153.560,183.018 154.317,184.443 153.862 C 186.986 153.049,186.977 153.059,185.742 152.510 C 184.136 151.795,181.250 151.785,181.250 152.494 M229.493 154.298 C 229.729 154.680,229.595 154.754,228.967 154.590 C 228.450 154.455,228.219 154.523,228.369 154.766 C 228.524 155.017,228.292 155.060,227.734 154.883 C 227.096 154.680,226.936 154.734,227.148 155.078 C 227.361 155.423,227.188 155.481,226.514 155.290 C 225.767 155.078,225.700 155.113,226.172 155.471 C 226.639 155.824,226.496 155.883,225.471 155.757 C 224.763 155.670,224.082 155.765,223.956 155.968 C 223.660 156.447,226.551 156.105,229.102 155.359 C 230.176 155.045,231.149 154.935,231.264 155.113 C 231.379 155.292,231.972 155.111,232.582 154.711 L 233.691 153.983 232.666 154.042 C 232.102 154.075,231.641 154.204,231.641 154.329 C 231.641 154.655,230.358 154.516,229.718 154.120 C 229.327 153.879,229.264 153.928,229.493 154.298 M90.515 159.663 C 90.425 160.256,90.349 159.863,90.346 158.789 C 90.343 157.715,90.417 157.229,90.509 157.709 C 90.602 158.190,90.604 159.069,90.515 159.663 M90.527 188.379 C 90.465 193.159,90.414 189.248,90.414 179.688 C 90.414 170.127,90.465 166.216,90.527 170.996 C 90.589 175.776,90.589 183.599,90.527 188.379 M195.219 190.901 C 195.705 190.995,196.408 190.991,196.782 190.893 C 197.155 190.796,196.758 190.719,195.898 190.724 C 195.039 190.728,194.733 190.808,195.219 190.901 M291.888 199.609 C 291.888 200.361,291.968 200.669,292.066 200.293 C 292.164 199.917,292.164 199.302,292.066 198.926 C 291.968 198.550,291.888 198.857,291.888 199.609 M90.527 217.651 C 90.462 221.156,90.409 218.398,90.409 211.523 C 90.408 204.648,90.462 201.781,90.526 205.151 C 90.591 208.521,90.592 214.146,90.527 217.651 M191.742 205.762 C 190.396 207.388,189.992 208.044,190.661 207.523 C 191.003 207.256,191.423 207.168,191.593 207.328 C 191.764 207.487,191.815 207.354,191.706 207.031 C 191.597 206.709,191.776 206.138,192.104 205.762 C 192.431 205.386,192.611 205.078,192.504 205.078 C 192.396 205.078,192.054 205.386,191.742 205.762 M136.426 208.472 C 136.802 208.571,137.417 208.571,137.793 208.472 C 138.169 208.374,137.861 208.294,137.109 208.294 C 136.357 208.294,136.050 208.374,136.426 208.472 M257.706 208.485 C 258.400 208.571,259.630 208.573,260.441 208.488 C 261.251 208.404,260.684 208.333,259.180 208.331 C 257.676 208.330,257.013 208.399,257.706 208.485 M90.526 235.820 C 90.455 237.925,90.398 236.309,90.397 232.227 C 90.397 228.145,90.454 226.422,90.525 228.398 C 90.596 230.374,90.596 233.714,90.526 235.820 M195.219 227.620 C 195.705 227.713,196.408 227.710,196.782 227.612 C 197.155 227.514,196.758 227.438,195.898 227.442 C 195.039 227.447,194.733 227.527,195.219 227.620 M209.570 319.157 C 214.082 319.382,218.916 319.747,220.313 319.969 C 221.709 320.190,225.324 320.600,228.346 320.881 C 231.408 321.165,234.349 321.646,234.987 321.968 C 235.617 322.286,236.621 322.664,237.217 322.807 C 239.154 323.271,240.691 325.391,239.090 325.391 C 238.676 325.391,238.095 325.633,237.798 325.929 C 237.502 326.226,235.951 326.597,234.352 326.754 C 232.754 326.911,231.251 327.197,231.013 327.388 C 230.776 327.580,230.073 327.812,229.451 327.904 C 226.784 328.299,221.545 329.273,219.922 329.674 C 218.955 329.913,214.385 330.178,209.766 330.262 C 205.146 330.347,200.189 330.589,198.749 330.801 C 192.936 331.656,172.319 329.934,166.992 328.148 C 165.703 327.716,164.165 327.359,163.574 327.353 C 162.983 327.348,162.500 327.168,162.500 326.953 C 162.500 326.738,162.160 326.563,161.745 326.563 C 161.330 326.563,160.879 326.211,160.742 325.781 C 160.606 325.352,160.242 325.000,159.935 325.000 C 159.584 325.000,159.375 324.598,159.375 323.925 C 159.375 322.211,161.876 321.091,165.700 321.093 C 167.352 321.093,168.813 320.918,168.945 320.703 C 169.078 320.488,169.781 320.313,170.508 320.313 C 171.234 320.313,171.933 320.144,172.060 319.939 C 172.187 319.733,172.769 319.568,173.353 319.573 C 176.639 319.597,192.003 319.064,192.147 318.921 C 192.449 318.618,201.139 318.736,209.570 319.157 " stroke="none" fill="#bac8c7" fill-rule="evenodd"></path><path id="path1" d="M148.438 82.484 C 121.872 84.007,99.613 102.528,92.972 128.636 C 90.962 136.538,90.960 136.597,91.113 193.555 L 91.255 246.680 92.266 250.977 C 98.025 275.462,114.831 292.178,139.258 297.716 L 143.164 298.602 193.555 298.733 C 244.691 298.865,246.472 298.826,253.516 297.416 C 278.516 292.412,295.884 274.408,300.387 248.828 C 301.532 242.325,301.701 140.245,300.577 133.802 C 296.126 108.274,278.365 89.460,253.320 83.744 C 246.821 82.261,168.706 81.322,148.438 82.484 M208.077 89.805 C 222.239 92.759,233.685 100.136,242.408 111.931 C 257.391 132.191,258.048 154.827,244.540 185.327 C 241.408 192.399,229.380 214.534,226.166 219.141 C 225.791 219.678,224.304 222.051,222.861 224.414 C 221.418 226.777,219.054 230.381,217.608 232.422 C 216.161 234.463,213.505 238.242,211.706 240.820 C 207.746 246.494,198.878 258.395,197.510 259.871 C 196.101 261.392,195.550 261.223,193.669 258.691 C 192.751 257.456,190.748 254.863,189.218 252.930 C 187.688 250.996,184.015 245.822,181.056 241.432 C 178.098 237.042,174.793 232.212,173.713 230.698 C 172.633 229.184,171.275 227.151,170.695 226.180 C 170.116 225.209,167.835 221.514,165.627 217.969 C 140.680 177.913,133.955 152.848,141.685 128.736 C 150.706 100.598,179.337 83.809,208.077 89.805 M190.112 98.445 C 164.576 101.378,144.811 128.522,150.172 153.297 C 155.510 177.963,182.092 195.396,205.469 189.561 C 244.560 179.802,256.125 137.897,227.322 110.379 C 217.630 101.119,204.235 96.823,190.112 98.445 M192.378 107.865 C 198.770 111.128,205.078 115.668,205.078 117.005 C 205.078 117.910,204.141 117.857,203.133 116.894 C 199.744 113.660,188.896 112.909,181.445 115.393 C 179.727 115.966,176.387 117.065,174.023 117.836 C 171.660 118.607,168.799 119.655,167.664 120.165 C 164.680 121.509,164.516 121.336,166.600 119.043 C 167.624 117.915,168.899 116.504,169.431 115.907 C 171.031 114.114,173.606 112.551,179.004 110.097 C 181.821 108.816,184.716 107.251,185.436 106.618 C 187.140 105.122,186.936 105.086,192.378 107.865 M203.906 118.523 C 203.906 118.613,202.304 120.753,200.345 123.280 C 195.094 130.054,192.548 135.269,191.931 140.519 C 191.647 142.941,191.944 142.880,187.616 141.415 L 184.180 140.252 184.276 137.216 C 184.328 135.546,184.737 132.010,185.182 129.357 C 186.093 123.943,186.094 123.945,184.085 124.444 C 181.643 125.049,179.297 131.768,179.297 138.157 L 179.297 139.853 177.637 139.561 C 175.560 139.197,174.140 139.210,171.777 139.614 L 169.922 139.932 169.929 138.814 C 169.936 137.730,170.718 132.222,171.299 129.163 L 171.585 127.662 170.427 128.261 C 165.916 130.594,163.572 141.327,165.603 150.342 C 166.425 153.993,166.901 161.198,166.278 160.575 C 166.046 160.343,165.359 160.425,164.430 160.797 C 163.252 161.268,162.776 161.294,162.083 160.923 C 161.280 160.493,161.233 160.528,161.461 161.381 C 161.597 161.889,161.710 162.524,161.713 162.793 C 161.716 163.062,161.851 163.260,162.012 163.235 C 162.922 163.091,163.685 163.335,163.460 163.699 C 163.318 163.928,162.931 164.012,162.601 163.885 C 162.111 163.697,162.087 163.761,162.473 164.226 C 162.734 164.540,163.199 164.701,163.505 164.583 C 163.892 164.435,164.060 164.651,164.053 165.290 C 164.044 166.137,163.916 166.077,162.471 164.545 C 161.606 163.629,161.006 162.706,161.136 162.494 C 161.267 162.283,161.209 162.109,161.008 162.109 C 160.526 162.109,159.626 159.917,159.915 159.449 C 160.039 159.249,159.775 158.667,159.329 158.156 C 156.966 155.449,156.250 152.156,156.250 143.998 C 156.250 133.248,157.285 131.117,164.283 127.469 C 167.788 125.642,169.822 124.815,178.645 121.637 C 182.706 120.174,190.616 119.096,196.690 119.177 C 199.859 119.219,202.121 119.080,202.578 118.814 C 203.352 118.365,203.906 118.243,203.906 118.523 M115.758 121.140 C 119.684 122.714,124.839 126.105,128.753 129.688 C 130.449 131.241,132.231 132.695,132.715 132.920 C 133.776 133.413,133.770 133.169,132.813 136.914 C 132.383 138.594,132.031 140.721,132.031 141.641 C 132.031 143.642,131.612 144.019,130.619 142.911 C 128.497 140.544,118.848 135.180,115.438 134.471 C 114.146 134.203,113.864 133.945,113.395 132.607 C 112.531 130.144,111.212 123.923,110.817 120.453 L 110.633 118.836 111.664 119.374 C 112.231 119.670,114.073 120.465,115.758 121.140 M218.843 123.026 C 226.929 127.522,231.682 131.359,235.606 136.557 C 238.248 140.056,238.062 140.636,233.385 143.499 C 223.905 149.302,216.300 155.493,217.356 156.549 C 217.882 157.075,225.167 155.359,230.183 153.527 C 236.524 151.211,236.198 151.251,236.525 152.742 C 237.563 157.469,223.352 166.950,215.234 166.946 C 197.729 166.937,192.145 139.456,206.791 125.391 C 212.243 120.155,213.305 119.946,218.843 123.026 M215.594 134.111 C 210.263 136.930,211.959 144.915,217.890 144.920 C 223.658 144.925,225.618 137.036,220.609 133.982 C 218.946 132.968,217.693 133.001,215.594 134.111 M124.023 142.988 C 126.816 144.105,129.673 145.215,130.371 145.456 L 131.641 145.894 131.641 150.314 C 131.641 152.745,131.487 154.638,131.298 154.522 C 130.735 154.174,125.724 156.046,121.617 158.137 C 117.693 160.136,114.844 161.401,114.844 161.145 C 114.844 157.844,121.133 152.255,126.310 150.956 C 126.879 150.813,127.344 150.563,127.344 150.400 C 127.344 150.094,122.263 148.333,120.019 147.861 C 119.058 147.659,118.695 147.340,118.527 146.551 C 118.405 145.977,117.877 144.453,117.355 143.164 C 116.832 141.875,116.405 140.707,116.405 140.568 C 116.407 140.137,118.752 140.882,124.023 142.988 M276.608 144.485 C 278.328 146.204,278.702 148.922,277.532 151.185 C 275.900 154.341,270.691 154.265,268.734 151.055 C 265.537 145.812,272.296 140.173,276.608 144.485 M184.375 146.230 C 186.201 146.748,188.662 147.534,189.844 147.978 L 191.992 148.785 191.876 150.555 C 191.812 151.529,191.958 152.696,192.201 153.149 C 192.815 154.298,192.595 154.397,189.251 154.486 C 187.626 154.529,186.102 154.757,185.866 154.994 C 185.553 155.307,186.062 155.376,187.737 155.248 L 190.039 155.072 187.891 156.089 C 186.709 156.649,184.650 157.377,183.315 157.707 L 180.889 158.308 178.628 156.249 C 174.932 152.883,171.479 147.688,172.013 146.297 C 172.625 144.704,178.873 144.670,184.375 146.230 M289.380 148.145 C 289.496 148.752,289.149 148.827,286.259 148.815 L 283.008 148.802 283.952 148.016 C 285.209 146.969,289.175 147.063,289.380 148.145 M157.441 147.888 C 157.374 149.400,160.014 155.257,161.277 156.400 C 161.725 156.805,161.979 157.332,161.842 157.572 C 161.705 157.812,161.737 157.878,161.913 157.718 C 162.089 157.559,162.502 157.647,162.832 157.914 C 163.572 158.513,163.390 158.192,161.112 154.883 C 160.225 153.594,159.040 151.396,158.479 150.000 C 157.919 148.604,157.451 147.653,157.441 147.888 M175.618 150.840 C 176.065 151.573,177.719 152.868,178.686 153.242 C 179.544 153.574,177.355 151.513,176.027 150.739 C 175.444 150.399,175.361 150.419,175.618 150.840 M132.356 159.668 C 132.587 161.118,132.896 162.714,133.043 163.215 C 133.365 164.310,124.265 173.438,122.852 173.438 C 122.716 173.438,122.045 173.853,121.361 174.362 C 119.438 175.791,110.938 180.135,110.938 179.688 C 110.938 176.513,113.234 166.305,113.891 166.557 C 114.172 166.664,115.511 166.034,116.868 165.157 C 124.116 160.470,130.042 157.231,131.691 157.057 C 131.826 157.043,132.126 158.218,132.356 159.668 M203.916 157.324 C 203.936 157.936,206.706 161.376,207.342 161.579 C 207.708 161.696,209.196 162.302,210.648 162.927 C 215.161 164.868,218.681 164.385,225.425 160.897 C 227.653 159.744,229.319 158.594,228.760 158.594 C 228.649 158.594,227.341 159.205,225.854 159.951 C 216.826 164.482,211.612 164.175,205.981 158.779 C 204.091 156.968,203.900 156.833,203.916 157.324 M173.025 160.769 C 172.743 161.108,172.744 161.336,173.028 161.512 C 173.253 161.651,173.438 162.093,173.438 162.495 C 173.438 162.897,173.664 163.458,173.941 163.742 C 174.355 164.167,175.614 166.976,176.097 168.553 C 176.163 168.769,175.602 168.269,174.850 167.442 C 173.578 166.042,171.624 161.511,170.951 158.398 L 170.697 157.227 172.064 158.753 C 173.065 159.871,173.322 160.410,173.025 160.769 M196.360 161.816 C 197.435 164.012,199.925 166.784,202.833 169.021 C 205.065 170.739,205.145 170.856,204.293 171.171 C 202.491 171.838,197.841 171.977,194.911 171.451 C 193.306 171.163,191.428 170.978,190.739 171.039 C 188.951 171.199,187.800 170.518,189.244 170.155 C 189.923 169.985,190.231 169.697,190.100 169.354 C 189.939 168.934,190.140 168.890,191.041 169.148 C 191.750 169.351,192.188 169.331,192.188 169.096 C 192.188 168.887,192.407 168.744,192.676 168.779 C 193.747 168.918,194.178 168.735,193.893 168.262 C 193.709 167.956,193.857 167.982,194.290 168.333 C 194.732 168.693,196.192 168.943,198.368 169.033 C 201.528 169.164,201.692 169.134,200.781 168.585 C 200.234 168.255,198.852 167.990,197.641 167.983 C 196.450 167.975,194.459 167.704,193.214 167.379 C 191.970 167.055,190.790 166.890,190.593 167.012 C 190.396 167.134,190.234 167.043,190.234 166.811 C 190.234 166.526,189.343 166.464,187.494 166.622 L 184.753 166.856 184.205 165.557 C 183.536 163.968,183.339 164.104,188.942 162.298 C 191.264 161.549,193.428 160.764,193.750 160.553 C 194.858 159.826,195.549 160.160,196.360 161.816 M179.742 164.201 C 180.309 164.336,180.879 164.723,181.009 165.061 C 181.196 165.548,181.062 165.621,180.369 165.415 C 179.086 165.032,177.734 164.109,177.734 163.615 C 177.734 163.327,177.895 163.312,178.223 163.570 C 178.491 163.782,179.175 164.065,179.742 164.201 M128.110 165.653 L 126.758 166.853 128.223 165.802 C 129.517 164.873,129.938 164.453,129.575 164.453 C 129.513 164.453,128.854 164.993,128.110 165.653 M188.749 178.549 C 186.447 180.242,187.014 180.533,189.453 178.911 C 194.182 175.766,196.063 176.961,191.537 180.234 C 187.117 183.430,186.893 183.456,181.780 181.372 C 177.852 179.771,177.331 179.297,179.502 179.297 C 180.611 179.297,180.951 179.107,181.250 178.320 C 181.616 177.359,181.688 177.344,186.005 177.344 L 190.388 177.344 188.749 178.549 M101.688 195.858 C 112.679 206.224,136.687 211.334,147.768 205.667 L 149.637 204.710 150.014 205.701 C 150.221 206.246,150.391 207.002,150.391 207.381 C 150.391 207.760,150.804 208.848,151.309 209.797 C 157.624 221.672,162.070 228.936,172.502 244.420 C 176.006 249.623,178.706 253.984,178.500 254.111 C 178.294 254.239,178.125 254.073,178.125 253.744 C 178.125 253.280,177.847 253.200,176.892 253.391 C 176.065 253.557,175.744 253.501,175.918 253.220 C 176.199 252.765,175.201 252.794,174.740 253.255 C 173.842 254.152,174.376 255.541,177.204 259.673 C 178.165 261.077,179.391 263.034,179.928 264.023 C 180.981 265.960,183.205 269.330,184.113 270.364 C 184.431 270.726,184.541 271.215,184.368 271.496 C 184.142 271.861,183.926 271.771,183.539 271.151 C 182.930 270.175,182.422 270.060,182.422 270.898 C 182.422 271.864,181.744 271.567,180.639 270.119 C 179.239 268.284,174.658 266.038,168.230 264.037 C 165.401 263.156,161.855 261.984,160.352 261.433 C 157.033 260.217,155.116 260.164,139.630 260.861 C 125.072 261.517,120.357 261.011,113.727 258.082 C 108.831 255.919,108.417 255.570,106.912 252.344 C 105.617 249.568,105.602 249.528,105.487 248.535 C 105.431 248.058,105.289 248.176,105.015 248.926 C 104.799 249.517,104.355 250.000,104.027 250.000 C 103.659 250.000,103.518 249.777,103.657 249.414 C 103.781 249.092,103.732 248.828,103.549 248.828 C 102.971 248.828,102.788 250.356,103.190 251.814 C 103.430 252.684,103.439 253.358,103.214 253.583 C 102.262 254.535,100.899 246.570,100.626 238.458 L 100.428 232.581 103.046 232.872 C 104.486 233.032,106.191 233.165,106.836 233.167 L 108.008 233.172 106.836 232.516 C 106.069 232.086,104.752 231.855,103.027 231.848 L 100.391 231.836 100.323 223.438 C 100.235 212.672,100.182 194.533,100.238 194.532 C 100.262 194.532,100.914 195.128,101.688 195.858 M292.288 200.097 C 292.236 202.944,292.126 213.975,292.044 224.609 C 291.879 245.752,291.859 245.979,289.417 253.968 C 287.066 261.660,282.423 270.469,280.449 270.986 C 280.030 271.095,279.688 271.428,279.688 271.725 C 279.688 272.022,279.556 272.237,279.395 272.202 C 278.816 272.075,276.752 272.785,276.479 273.205 C 276.326 273.440,276.062 273.641,275.893 273.650 C 275.724 273.660,274.883 274.032,274.023 274.476 C 269.940 276.587,268.782 276.760,258.984 276.725 C 249.197 276.690,247.292 276.443,241.316 274.437 C 237.237 273.067,232.479 273.014,229.802 274.307 C 228.749 274.816,214.703 274.469,210.938 273.841 C 206.139 273.042,205.542 272.456,207.033 270.010 C 208.033 268.369,208.013 267.629,206.932 266.328 C 205.964 265.164,203.631 265.126,204.074 266.281 C 204.192 266.587,204.126 266.737,203.929 266.615 C 203.731 266.493,203.293 266.787,202.956 267.268 C 202.619 267.749,202.344 267.966,202.344 267.750 C 202.344 267.534,203.580 265.868,205.092 264.049 C 211.081 256.841,212.173 255.428,216.701 249.023 C 221.338 242.465,223.062 239.801,230.100 228.320 C 235.287 219.859,236.008 218.611,238.334 214.088 C 239.487 211.846,240.906 209.121,241.487 208.033 C 242.069 206.945,242.552 205.747,242.561 205.371 C 242.583 204.500,243.041 204.510,244.840 205.423 C 256.329 211.250,276.408 207.560,289.104 197.287 C 290.693 196.002,292.080 194.944,292.188 194.936 C 292.295 194.928,292.340 197.251,292.288 200.097 M192.941 198.166 C 183.243 200.915,179.217 211.867,184.625 220.788 C 192.080 233.086,211.184 226.828,211.118 212.109 C 211.077 202.862,201.713 195.679,192.941 198.166 M199.319 204.478 C 203.817 206.357,205.628 211.286,203.524 215.922 C 199.487 224.816,186.504 219.103,189.254 209.642 C 190.598 205.018,195.093 202.712,199.319 204.478 M190.474 213.118 C 190.901 214.323,192.591 215.944,193.894 216.398 C 194.557 216.629,194.928 216.667,194.718 216.482 C 194.508 216.296,193.407 215.295,192.272 214.257 C 191.032 213.122,190.314 212.668,190.474 213.118 M181.854 258.120 C 181.615 258.359,180.078 256.689,180.078 256.190 C 180.078 256.008,179.814 255.859,179.492 255.859 C 179.170 255.859,178.906 255.560,178.906 255.193 C 178.906 254.734,179.398 255.054,180.484 256.219 C 181.352 257.150,181.969 258.005,181.854 258.120 M184.043 260.630 L 184.937 261.884 183.887 261.118 C 183.309 260.696,182.832 260.132,182.825 259.863 C 182.806 259.102,183.078 259.274,184.043 260.630 M188.513 275.819 C 190.238 277.586,190.197 277.611,187.326 276.537 C 185.531 275.865,185.181 275.582,185.242 274.848 C 185.349 273.558,186.696 273.958,188.513 275.819 " stroke="none" fill="#08313b" fill-rule="evenodd"></path><path id="path2" d="M181.445 111.880 C 177.711 113.226,171.714 116.134,169.319 117.759 C 168.526 118.298,167.749 118.660,167.594 118.564 C 167.438 118.468,166.722 118.998,166.001 119.742 C 164.459 121.333,164.850 121.432,167.664 120.165 C 168.799 119.655,171.748 118.580,174.219 117.777 C 176.689 116.974,179.678 115.997,180.859 115.606 C 184.958 114.250,186.541 113.975,189.909 114.033 C 191.894 114.068,193.398 113.925,193.545 113.687 C 193.683 113.464,193.536 113.281,193.219 113.281 C 192.902 113.281,191.358 112.666,189.789 111.914 C 186.353 110.267,185.924 110.265,181.445 111.880 M187.980 125.090 C 187.492 125.325,187.024 125.885,186.941 126.333 C 186.858 126.781,186.593 128.027,186.352 129.102 C 186.111 130.176,185.929 132.431,185.947 134.114 C 185.966 135.886,185.791 137.401,185.533 137.712 C 184.700 138.716,185.746 140.826,187.315 141.307 C 188.062 141.537,188.585 141.581,188.477 141.406 C 188.369 141.231,188.630 141.180,189.058 141.292 C 189.485 141.404,189.740 141.649,189.624 141.837 C 189.323 142.324,190.761 141.745,191.107 141.239 C 191.265 141.009,191.398 140.469,191.402 140.039 C 191.416 138.712,192.211 136.297,192.563 136.514 C 192.746 136.627,192.811 136.394,192.707 135.997 C 192.474 135.106,194.337 130.628,194.887 130.757 C 195.105 130.808,195.196 130.619,195.088 130.337 C 194.979 130.055,195.694 128.651,196.676 127.217 L 198.461 124.609 193.664 124.636 C 191.026 124.650,188.468 124.855,187.980 125.090 M179.297 126.130 C 178.330 126.666,172.281 128.181,171.943 127.972 C 171.771 127.865,171.692 129.521,171.768 131.652 C 171.878 134.730,171.777 135.724,171.276 136.488 C 170.567 137.571,170.639 139.503,171.399 139.753 C 171.674 139.843,171.850 139.681,171.790 139.392 C 171.704 138.984,172.441 138.867,175.094 138.867 C 178.919 138.867,178.929 138.859,178.515 136.128 C 178.097 133.375,179.988 126.953,181.216 126.953 C 181.404 126.953,181.658 126.689,181.782 126.367 C 182.034 125.710,180.345 125.549,179.297 126.130 M112.364 127.183 C 112.781 127.820,112.906 128.552,112.744 129.399 C 112.581 130.247,112.621 130.478,112.864 130.098 C 113.248 129.501,113.813 130.908,113.659 132.076 C 113.485 133.390,114.153 134.287,115.464 134.500 C 118.388 134.975,128.702 140.644,130.430 142.727 C 132.055 144.685,132.548 141.560,131.066 138.694 C 129.584 135.827,117.774 127.966,112.804 126.538 C 111.752 126.236,111.748 126.243,112.364 127.183 M209.364 127.516 C 204.148 129.439,202.277 131.091,201.021 134.888 C 200.892 135.278,200.635 135.503,200.450 135.388 C 200.264 135.274,200.197 135.622,200.301 136.163 C 200.424 136.807,200.258 137.316,199.821 137.635 C 199.349 137.981,198.973 139.324,198.541 142.215 C 196.641 154.930,204.748 166.941,215.234 166.946 C 222.612 166.950,236.719 158.096,236.719 153.462 C 236.719 152.210,236.127 152.388,233.192 154.526 C 231.588 155.694,230.217 156.472,230.145 156.255 C 229.986 155.780,228.906 155.721,228.906 156.187 C 228.906 156.368,226.814 156.499,224.256 156.480 C 221.698 156.461,219.808 156.574,220.057 156.732 C 220.305 156.890,219.780 157.022,218.889 157.025 C 215.913 157.036,216.199 156.167,220.300 152.734 C 221.455 151.768,223.075 150.308,223.900 149.491 C 224.755 148.644,225.591 148.125,225.846 148.282 C 226.121 148.452,226.186 148.385,226.014 148.107 C 225.761 147.698,226.248 147.475,227.080 147.620 C 227.257 147.650,227.290 147.495,227.154 147.275 C 226.932 146.916,227.437 146.705,228.223 146.829 C 228.384 146.854,228.472 146.728,228.418 146.547 C 228.303 146.160,230.604 144.141,231.161 144.141 C 231.372 144.141,231.764 143.877,232.031 143.555 C 232.299 143.232,232.853 142.969,233.263 142.969 C 235.020 142.969,234.358 141.769,230.599 138.139 C 224.434 132.187,222.483 130.883,216.256 128.548 C 211.611 126.806,211.383 126.772,209.364 127.516 M168.168 129.682 C 168.037 129.893,166.752 130.755,165.313 131.597 C 163.873 132.439,161.391 134.192,159.798 135.492 C 158.204 136.792,156.754 137.765,156.575 137.655 C 156.396 137.544,156.250 137.816,156.250 138.258 C 156.250 138.701,156.396 139.063,156.574 139.063 C 156.753 139.063,156.843 139.634,156.775 140.332 C 155.815 150.227,156.485 154.898,159.329 158.156 C 159.775 158.667,160.039 159.249,159.915 159.449 C 159.626 159.917,160.526 162.109,161.008 162.109 C 161.209 162.109,161.267 162.283,161.136 162.494 C 161.006 162.706,161.606 163.629,162.471 164.545 C 163.916 166.077,164.044 166.137,164.053 165.290 C 164.060 164.651,163.892 164.435,163.505 164.583 C 163.199 164.701,162.734 164.540,162.473 164.226 C 162.087 163.761,162.111 163.697,162.601 163.885 C 162.931 164.012,163.318 163.928,163.460 163.699 C 163.685 163.335,162.922 163.091,162.012 163.235 C 161.851 163.260,161.716 163.062,161.713 162.793 C 161.710 162.524,161.597 161.889,161.461 161.381 C 161.233 160.528,161.280 160.493,162.083 160.923 C 162.776 161.294,163.252 161.268,164.430 160.797 C 165.578 160.338,166.027 160.309,166.440 160.669 C 166.732 160.924,166.656 160.754,166.271 160.291 C 165.644 159.537,165.620 159.202,166.036 157.087 C 166.291 155.788,166.406 154.233,166.290 153.632 C 166.174 153.031,165.960 151.924,165.814 151.172 C 165.667 150.420,165.386 149.704,165.188 149.582 C 164.990 149.459,164.860 149.019,164.898 148.605 C 165.110 146.315,164.803 142.428,164.453 142.969 C 164.147 143.443,164.073 143.386,164.068 142.676 C 164.065 142.192,164.252 141.797,164.484 141.797 C 164.749 141.797,164.810 141.362,164.648 140.625 C 164.501 139.954,164.552 139.453,164.768 139.453 C 164.976 139.453,165.265 138.655,165.412 137.680 C 165.743 135.469,167.022 131.702,167.717 130.887 C 168.412 130.073,168.843 129.297,168.601 129.297 C 168.493 129.297,168.298 129.470,168.168 129.682 M220.083 133.049 C 220.422 133.179,220.585 133.470,220.445 133.695 C 220.294 133.939,220.380 133.989,220.658 133.817 C 222.243 132.837,224.487 137.620,224.099 141.152 C 223.404 147.486,215.416 149.078,212.046 143.555 C 210.542 141.089,212.383 133.797,214.322 134.541 C 214.631 134.660,214.789 134.603,214.673 134.415 C 214.333 133.865,215.550 133.092,216.405 133.316 C 216.836 133.429,217.090 133.362,216.970 133.167 C 216.725 132.771,219.123 132.680,220.083 133.049 M186.491 138.532 C 186.863 139.502,186.453 139.635,185.955 138.705 C 185.715 138.257,185.682 137.891,185.882 137.891 C 186.081 137.891,186.355 138.179,186.491 138.532 M117.883 143.066 C 117.806 143.550,117.869 144.297,118.024 144.727 C 118.179 145.156,118.405 145.977,118.527 146.551 C 118.695 147.340,119.058 147.659,120.019 147.861 C 124.116 148.722,128.868 150.781,126.758 150.781 C 126.436 150.781,126.216 150.982,126.270 151.228 C 126.386 151.763,121.904 153.610,121.173 153.330 C 120.892 153.222,120.770 153.308,120.901 153.520 C 121.120 153.874,120.583 154.080,119.795 153.943 C 119.618 153.912,119.568 154.041,119.684 154.228 C 119.800 154.416,119.459 154.803,118.925 155.089 C 117.824 155.678,116.195 157.680,115.650 159.114 C 114.940 160.980,116.556 160.692,121.973 157.988 C 124.748 156.603,127.268 155.469,127.572 155.469 C 127.876 155.469,128.125 155.274,128.125 155.036 C 128.125 154.799,128.398 154.709,128.731 154.837 C 129.089 154.974,129.237 154.906,129.091 154.670 C 128.935 154.417,129.364 154.329,130.267 154.428 L 131.690 154.585 131.559 150.828 C 131.487 148.761,131.344 146.810,131.241 146.493 C 130.994 145.727,126.611 143.777,124.730 143.595 C 123.912 143.517,122.562 143.167,121.730 142.820 C 119.502 141.889,118.056 141.981,117.883 143.066 M161.112 154.883 C 163.390 158.192,163.572 158.513,162.832 157.914 C 162.502 157.647,162.089 157.559,161.913 157.718 C 161.737 157.878,161.705 157.812,161.842 157.572 C 161.979 157.332,161.725 156.805,161.277 156.400 C 160.293 155.510,159.142 153.315,158.155 150.446 C 157.085 147.336,157.294 147.049,158.479 150.000 C 159.040 151.396,160.225 153.594,161.112 154.883 M172.266 147.932 C 172.266 148.790,175.598 153.291,177.882 155.516 C 181.108 158.660,181.295 158.682,186.816 156.570 C 190.418 155.192,190.598 154.891,187.640 155.196 C 186.036 155.362,185.553 155.307,185.866 154.994 C 186.102 154.757,187.626 154.529,189.251 154.486 C 192.578 154.398,192.813 154.294,192.219 153.184 C 191.987 152.750,191.797 152.032,191.797 151.588 C 191.797 150.940,191.547 150.779,190.527 150.772 C 189.829 150.767,188.579 150.605,187.750 150.413 C 186.921 150.220,184.724 149.960,182.867 149.835 L 179.492 149.606 181.250 150.426 C 182.217 150.876,183.975 151.501,185.156 151.813 C 187.959 152.553,188.870 153.371,187.268 153.710 C 186.644 153.842,185.404 154.134,184.513 154.358 C 182.795 154.791,179.162 152.817,175.461 149.438 C 174.278 148.359,172.266 147.410,172.266 147.932 M178.125 152.359 C 178.990 153.115,179.196 153.439,178.686 153.242 C 177.719 152.868,176.065 151.573,175.618 150.840 C 175.163 150.094,176.368 150.825,178.125 152.359 M206.052 157.750 C 205.957 157.845,205.610 157.701,205.283 157.430 C 203.840 156.232,204.842 157.885,206.348 159.187 C 212.143 164.196,217.016 164.387,225.854 159.951 C 228.798 158.474,229.232 158.331,228.446 159.097 C 227.683 159.841,223.279 162.057,220.435 163.127 C 216.189 164.726,212.785 164.274,207.031 161.349 C 205.773 160.709,203.818 157.484,204.346 156.918 C 204.761 156.474,204.952 156.484,205.534 156.982 C 205.915 157.308,206.148 157.654,206.052 157.750 M129.624 157.999 C 128.623 158.507,127.700 158.820,127.573 158.693 C 127.447 158.567,127.344 158.679,127.344 158.942 C 127.344 159.206,127.178 159.319,126.976 159.194 C 126.774 159.069,126.291 159.292,125.902 159.689 C 124.801 160.812,122.420 162.130,122.068 161.811 C 121.893 161.653,121.856 161.711,121.987 161.941 C 122.120 162.174,120.339 163.625,117.944 165.233 C 114.251 167.714,113.615 168.299,113.303 169.503 C 112.770 171.565,112.680 173.172,113.064 173.792 C 113.324 174.214,113.218 174.293,112.607 174.134 C 111.534 173.853,110.624 178.369,111.689 178.693 C 112.861 179.050,118.517 176.526,121.361 174.377 C 122.045 173.860,122.716 173.438,122.852 173.438 C 124.261 173.438,133.364 164.311,133.048 163.215 C 132.903 162.714,132.605 161.250,132.386 159.961 C 131.873 156.955,131.793 156.898,129.624 157.999 M171.116 158.398 C 171.101 159.518,171.854 161.488,173.579 164.844 C 174.840 167.296,176.608 169.877,176.121 168.553 C 175.168 165.964,174.352 164.164,173.941 163.742 C 173.664 163.458,173.438 162.897,173.438 162.495 C 173.438 162.093,173.253 161.651,173.028 161.512 C 172.748 161.339,172.745 161.106,173.017 160.778 C 173.304 160.433,173.093 159.918,172.271 158.957 C 171.307 157.829,171.124 157.741,171.116 158.398 M193.593 160.973 C 193.185 161.374,191.641 162.083,190.162 162.550 C 188.683 163.017,187.381 163.548,187.269 163.730 C 187.156 163.913,186.453 164.063,185.707 164.063 C 184.165 164.063,183.696 164.747,184.373 166.012 C 184.786 166.783,185.037 166.831,187.528 166.619 C 189.351 166.464,190.234 166.526,190.234 166.811 C 190.234 167.043,190.396 167.134,190.593 167.012 C 190.790 166.890,191.970 167.055,193.214 167.379 C 194.459 167.704,196.450 167.975,197.641 167.983 C 198.852 167.990,200.234 168.255,200.781 168.585 C 201.692 169.134,201.528 169.164,198.368 169.033 C 196.192 168.943,194.732 168.693,194.290 168.333 C 193.857 167.982,193.709 167.956,193.893 168.262 C 194.178 168.735,193.747 168.918,192.676 168.779 C 192.407 168.744,192.188 168.887,192.188 169.096 C 192.188 169.331,191.750 169.351,191.041 169.148 C 190.140 168.890,189.939 168.934,190.100 169.354 C 190.231 169.697,189.923 169.985,189.244 170.155 C 187.769 170.526,188.894 171.136,190.902 171.055 C 191.717 171.022,193.789 171.220,195.508 171.496 C 199.252 172.095,203.832 171.742,204.183 170.827 C 204.456 170.117,202.591 168.452,201.161 168.129 C 200.278 167.929,199.737 167.309,198.180 164.712 C 197.931 164.297,197.574 163.849,197.388 163.717 C 197.201 163.585,196.736 162.766,196.353 161.898 C 195.581 160.144,194.729 159.859,193.593 160.973 M177.734 163.615 C 177.734 164.109,179.086 165.032,180.369 165.415 C 181.062 165.621,181.196 165.548,181.009 165.061 C 180.879 164.723,180.309 164.336,179.742 164.201 C 179.175 164.065,178.491 163.782,178.223 163.570 C 177.895 163.312,177.734 163.327,177.734 163.615 M129.688 164.602 C 129.688 164.684,129.028 165.224,128.223 165.802 L 126.758 166.853 128.110 165.653 C 129.442 164.471,129.688 164.308,129.688 164.602 M181.247 178.328 C 180.963 179.076,180.599 179.297,179.649 179.297 C 176.938 179.297,183.757 182.814,186.628 182.895 C 187.816 182.929,194.531 178.522,194.531 177.708 C 194.531 176.807,191.622 177.502,189.453 178.921 C 187.670 180.088,186.796 180.180,188.086 179.064 L 189.258 178.050 188.153 178.235 C 187.546 178.336,186.403 178.285,185.614 178.121 C 181.637 177.295,181.640 177.295,181.247 178.328 M100.208 208.571 C 100.053 211.996,100.022 214.954,100.139 215.143 C 100.256 215.333,100.379 219.166,100.413 223.662 L 100.474 231.836 103.069 231.848 C 104.755 231.855,106.075 232.089,106.836 232.516 L 108.008 233.172 106.836 233.167 C 106.191 233.165,104.486 233.032,103.046 232.872 L 100.428 232.581 100.622 238.458 C 100.821 244.498,101.152 247.199,102.221 251.492 C 102.610 253.052,102.973 253.824,103.207 253.590 C 103.442 253.355,103.435 252.701,103.190 251.814 C 102.788 250.356,102.971 248.828,103.549 248.828 C 103.732 248.828,103.781 249.092,103.657 249.414 C 103.518 249.777,103.659 250.000,104.027 250.000 C 104.355 250.000,104.799 249.517,105.015 248.926 C 105.289 248.176,105.431 248.058,105.487 248.535 C 105.602 249.528,105.617 249.568,106.912 252.344 C 110.145 259.276,119.683 261.759,139.630 260.861 C 155.116 260.164,157.033 260.217,160.352 261.433 C 161.855 261.984,165.401 263.156,168.230 264.037 C 174.658 266.038,179.239 268.284,180.639 270.119 C 181.744 271.567,182.422 271.864,182.422 270.898 C 182.422 270.060,182.930 270.175,183.539 271.151 C 183.926 271.771,184.142 271.861,184.368 271.496 C 184.541 271.215,184.431 270.726,184.113 270.364 C 183.205 269.330,180.981 265.960,179.928 264.023 C 179.391 263.034,178.165 261.077,177.204 259.673 C 174.376 255.541,173.842 254.152,174.740 253.255 C 175.201 252.794,176.199 252.765,175.918 253.220 C 175.744 253.501,176.065 253.557,176.892 253.391 C 177.847 253.200,178.125 253.280,178.125 253.744 C 178.125 254.073,178.294 254.239,178.500 254.111 C 178.706 253.984,176.006 249.623,172.502 244.420 C 164.662 232.784,158.123 222.424,155.404 217.336 C 152.782 212.430,150.858 210.738,149.395 212.052 C 149.000 212.406,146.826 212.992,143.438 213.656 C 132.799 215.744,114.481 211.542,104.178 204.650 C 102.282 203.382,100.676 202.344,100.610 202.344 C 100.544 202.344,100.364 205.146,100.208 208.571 M288.281 204.944 C 281.549 209.647,270.816 213.394,261.688 214.227 C 255.470 214.794,244.216 212.393,241.347 209.887 C 240.761 209.375,240.472 209.786,238.222 214.318 C 236.858 217.066,235.518 219.555,235.245 219.850 C 234.971 220.145,234.468 220.941,234.126 221.619 C 233.042 223.772,226.420 234.539,225.696 235.328 C 225.313 235.744,225.000 236.221,225.000 236.388 C 225.000 237.606,209.060 260.071,207.027 261.719 C 206.310 262.300,202.344 267.400,202.344 267.741 C 202.344 267.962,202.619 267.749,202.956 267.268 C 203.293 266.787,203.731 266.493,203.929 266.615 C 204.126 266.737,204.192 266.587,204.074 266.281 C 203.631 265.126,205.964 265.164,206.932 266.328 C 208.013 267.629,208.033 268.369,207.033 270.010 C 205.542 272.456,206.139 273.042,210.938 273.841 C 214.703 274.469,228.749 274.816,229.802 274.307 C 232.479 273.014,237.237 273.067,241.316 274.437 C 247.292 276.443,249.197 276.690,258.984 276.725 C 268.782 276.760,269.940 276.587,274.023 274.476 C 274.883 274.032,275.724 273.660,275.893 273.650 C 276.062 273.641,276.326 273.440,276.479 273.205 C 276.752 272.785,278.816 272.075,279.395 272.202 C 279.556 272.237,279.688 272.022,279.688 271.725 C 279.688 271.428,280.018 271.099,280.421 270.993 C 281.218 270.785,283.419 267.704,285.680 263.633 C 288.037 259.387,291.317 248.700,291.572 244.436 C 292.247 233.150,292.281 231.938,291.927 231.701 C 291.682 231.537,291.625 226.353,291.768 217.285 C 292.025 201.071,292.322 202.122,288.281 204.944 M190.039 209.375 C 189.652 210.234,189.208 210.938,189.053 210.938 C 188.429 210.938,189.065 214.484,190.031 216.390 C 193.394 223.028,204.828 220.343,203.984 213.114 C 203.824 211.749,203.783 211.719,202.093 211.719 C 201.007 211.719,199.621 211.342,198.364 210.705 C 197.264 210.148,195.381 209.435,194.178 209.123 C 192.976 208.810,191.825 208.387,191.621 208.183 C 191.006 207.569,190.775 207.743,190.039 209.375 M194.718 216.482 C 194.928 216.667,194.557 216.629,193.894 216.398 C 192.591 215.944,190.901 214.323,190.474 213.118 C 190.314 212.668,191.032 213.122,192.272 214.257 C 193.407 215.295,194.508 216.296,194.718 216.482 M178.906 255.193 C 178.906 255.560,179.170 255.859,179.492 255.859 C 179.814 255.859,180.078 256.008,180.078 256.190 C 180.078 256.689,181.615 258.359,181.854 258.120 C 181.969 258.005,181.352 257.150,180.484 256.219 C 179.398 255.054,178.906 254.734,178.906 255.193 M182.825 259.863 C 182.832 260.132,183.309 260.696,183.887 261.118 L 184.937 261.884 184.043 260.630 C 183.078 259.274,182.806 259.102,182.825 259.863 M185.242 274.848 C 185.181 275.582,185.531 275.865,187.326 276.537 C 190.197 277.611,190.238 277.586,188.513 275.819 C 186.696 273.958,185.349 273.558,185.242 274.848 " stroke="none" fill="#2ac5cb" fill-rule="evenodd"></path><path id="path3" d="M177.453 81.928 C 178.480 82.009,180.062 82.008,180.969 81.926 C 181.875 81.844,181.035 81.778,179.102 81.779 C 177.168 81.780,176.426 81.847,177.453 81.928 M189.746 81.916 C 190.229 82.009,191.021 82.009,191.504 81.916 C 191.987 81.823,191.592 81.747,190.625 81.747 C 189.658 81.747,189.263 81.823,189.746 81.916 M188.867 89.486 C 166.831 92.478,150.368 105.774,142.520 126.915 C 137.962 139.195,138.268 149.107,143.745 166.636 C 146.130 174.270,155.962 193.887,162.462 203.981 C 163.665 205.848,166.315 210.121,168.352 213.476 C 170.389 216.832,173.126 221.017,174.434 222.777 C 175.742 224.537,178.900 228.877,181.452 232.422 C 192.734 248.093,197.767 252.815,201.990 251.688 C 203.375 251.318,203.475 251.339,203.031 251.909 C 202.602 252.458,202.621 252.475,203.176 252.042 C 203.744 251.598,206.822 247.348,217.383 232.422 C 219.131 229.951,221.063 227.051,221.676 225.977 C 222.290 224.902,223.700 222.617,224.809 220.898 C 236.883 202.200,247.896 179.222,251.113 166.016 C 253.618 155.731,253.712 155.028,253.701 146.484 C 253.659 111.641,223.160 84.829,188.867 89.486 M208.789 99.389 C 236.736 108.717,250.647 137.561,239.688 163.461 C 230.000 186.359,195.940 197.927,174.787 185.504 C 139.141 164.568,140.849 119.317,177.950 101.702 C 186.010 97.876,200.908 96.758,208.789 99.389 M185.706 106.680 C 185.298 107.132,182.107 108.882,178.616 110.570 C 174.044 112.780,171.721 114.150,170.314 115.466 C 168.200 117.444,167.710 118.484,169.420 117.364 C 171.640 115.909,179.847 112.066,182.857 111.071 L 185.998 110.033 188.800 111.320 C 191.806 112.701,202.264 115.679,202.540 115.233 C 202.974 114.530,198.937 111.580,193.945 108.952 C 191.797 107.821,189.600 106.664,189.063 106.380 C 187.661 105.640,186.559 105.738,185.706 106.680 M96.157 117.400 C 95.503 118.836,95.628 119.142,96.335 117.837 C 96.666 117.227,96.863 116.655,96.774 116.565 C 96.684 116.476,96.407 116.851,96.157 117.400 M202.344 119.198 C 201.753 119.439,199.826 119.497,197.461 119.346 C 191.979 118.995,183.335 120.238,178.187 122.118 C 176.112 122.875,172.989 123.990,171.247 124.595 C 163.710 127.211,158.532 130.702,157.641 133.767 C 156.663 137.129,157.053 137.600,159.180 135.629 C 162.404 132.641,170.604 127.643,172.552 127.478 C 174.057 127.350,175.036 127.124,179.883 125.782 C 180.742 125.544,181.985 125.072,182.645 124.733 C 183.462 124.313,184.332 124.195,185.379 124.363 C 187.516 124.705,187.513 124.705,189.258 124.252 C 191.476 123.677,198.721 123.703,198.916 124.287 C 199.000 124.539,199.923 123.616,200.968 122.236 C 202.013 120.856,203.035 119.507,203.239 119.238 C 203.671 118.671,203.639 118.670,202.344 119.198 M111.186 121.777 C 111.598 125.400,111.772 125.632,115.322 127.275 C 121.434 130.103,129.741 135.893,131.252 138.378 L 131.907 139.455 132.693 136.507 L 133.480 133.560 132.658 133.122 C 132.206 132.881,130.482 131.456,128.828 129.957 C 123.891 125.481,113.744 119.537,111.032 119.531 C 110.976 119.531,111.046 120.542,111.186 121.777 M211.058 122.218 C 208.450 123.904,202.806 129.386,203.456 129.602 C 203.684 129.679,204.626 129.304,205.549 128.771 C 209.811 126.307,211.749 126.293,217.676 128.683 C 222.745 130.726,225.470 132.641,231.326 138.275 C 234.946 141.758,235.750 142.219,236.641 141.328 C 239.327 138.642,230.942 130.134,219.055 123.483 C 213.209 120.211,213.976 120.333,211.058 122.218 M211.892 141.336 C 212.455 145.370,215.703 147.293,219.922 146.090 C 221.838 145.544,222.165 145.269,222.483 143.941 L 222.762 142.773 221.567 143.892 C 218.913 146.377,212.527 144.630,212.494 141.410 C 212.491 141.086,212.301 140.557,212.072 140.234 C 211.763 139.800,211.717 140.085,211.892 141.336 M90.375 144.922 C 90.375 146.963,90.441 147.798,90.521 146.777 C 90.602 145.757,90.602 144.087,90.521 143.066 C 90.441 142.046,90.375 142.881,90.375 144.922 M301.739 156.641 C 301.739 164.482,301.791 167.690,301.855 163.770 C 301.919 159.849,301.919 153.433,301.855 149.512 C 301.791 145.591,301.739 148.799,301.739 156.641 M270.864 143.685 C 268.639 145.083,267.869 146.441,268.075 148.609 C 268.531 153.399,274.604 155.125,277.233 151.212 C 280.121 146.913,275.125 141.010,270.864 143.685 M174.922 145.367 C 172.794 145.675,172.266 145.935,172.266 146.674 C 172.266 148.041,176.442 148.909,189.551 150.266 C 195.064 150.838,190.854 148.046,183.203 146.058 C 180.552 145.368,176.977 145.070,174.922 145.367 M285.352 147.544 C 282.937 148.125,285.459 149.100,288.096 148.605 C 289.212 148.396,289.388 148.244,289.025 147.806 C 288.589 147.281,286.937 147.163,285.352 147.544 M90.333 150.586 C 90.337 151.445,90.417 151.751,90.511 151.265 C 90.604 150.779,90.601 150.076,90.503 149.702 C 90.405 149.329,90.329 149.727,90.333 150.586 M231.445 153.375 C 228.069 154.709,226.475 155.518,228.516 154.861 C 229.053 154.688,229.976 154.535,230.566 154.520 C 231.157 154.506,231.641 154.351,231.641 154.177 C 231.641 154.003,231.809 153.964,232.014 154.091 C 232.513 154.399,234.826 153.409,235.497 152.600 C 236.312 151.616,235.500 151.772,231.445 153.375 M225.586 155.469 C 224.505 155.744,224.490 155.770,225.391 155.807 C 225.928 155.829,226.631 155.677,226.953 155.469 C 227.618 155.039,227.274 155.039,225.586 155.469 M90.346 158.789 C 90.349 159.863,90.425 160.256,90.515 159.663 C 90.604 159.069,90.602 158.190,90.509 157.709 C 90.417 157.229,90.343 157.715,90.346 158.789 M90.414 179.688 C 90.414 189.248,90.465 193.159,90.527 188.379 C 90.589 183.599,90.589 175.776,90.527 170.996 C 90.465 166.216,90.414 170.127,90.414 179.688 M301.707 178.906 C 301.707 181.162,301.772 182.085,301.850 180.957 C 301.929 179.829,301.929 177.983,301.850 176.855 C 301.772 175.728,301.707 176.650,301.707 178.906 M301.684 189.648 C 301.686 190.938,301.759 191.418,301.846 190.716 C 301.933 190.014,301.931 188.959,301.842 188.372 C 301.752 187.785,301.681 188.359,301.684 189.648 M301.563 215.430 C 301.563 226.995,301.649 236.372,301.754 236.267 C 302.014 236.007,302.029 194.867,301.769 194.607 C 301.655 194.494,301.563 203.864,301.563 215.430 M100.391 198.167 L 100.391 201.490 102.246 203.004 C 111.971 210.943,132.494 215.830,144.889 213.159 C 148.537 212.372,151.330 211.135,151.062 210.425 C 150.966 210.170,150.590 208.932,150.226 207.675 C 149.696 205.844,149.433 205.433,148.903 205.610 C 148.540 205.732,146.986 206.275,145.450 206.818 C 133.792 210.937,112.768 206.004,102.492 196.738 L 100.391 194.843 100.391 198.167 M290.997 195.918 C 280.604 206.982,254.001 212.250,243.965 205.233 C 243.256 204.737,243.142 204.852,242.305 206.909 C 241.159 209.725,241.141 209.614,242.899 210.511 C 255.255 216.815,273.189 214.467,288.328 204.564 L 291.695 202.361 291.973 198.804 C 292.294 194.706,292.252 194.582,290.997 195.918 M201.005 198.301 C 216.114 203.360,214.070 224.594,198.205 227.379 C 183.101 230.030,175.744 208.189,188.904 199.765 C 192.317 197.580,197.118 196.999,201.005 198.301 M90.409 211.523 C 90.409 218.398,90.462 221.156,90.527 217.651 C 90.592 214.146,90.591 208.521,90.526 205.151 C 90.462 201.781,90.408 204.648,90.409 211.523 M194.371 204.485 C 190.698 205.793,190.772 207.859,194.531 208.977 C 195.713 209.328,197.471 209.997,198.438 210.463 C 201.629 212.002,204.297 211.376,203.755 209.215 C 202.909 205.845,197.794 203.267,194.371 204.485 M90.397 232.227 C 90.398 236.309,90.455 237.925,90.526 235.820 C 90.596 233.714,90.596 230.374,90.525 228.398 C 90.454 226.422,90.397 228.145,90.397 232.227 M194.368 259.187 C 195.593 260.793,196.415 260.886,197.401 259.532 C 197.912 258.831,197.969 258.568,197.596 258.630 C 197.307 258.678,196.807 258.617,196.484 258.494 C 196.162 258.371,195.321 258.171,194.614 258.048 L 193.330 257.826 194.368 259.187 " stroke="none" fill="#fafbfb" fill-rule="evenodd"></path><path id="path4" d="M150.103 82.312 C 150.697 82.401,151.576 82.399,152.056 82.306 C 152.537 82.214,152.051 82.140,150.977 82.143 C 149.902 82.146,149.509 82.222,150.103 82.312 M165.543 82.321 C 166.894 82.397,169.003 82.397,170.230 82.319 C 171.457 82.242,170.352 82.180,167.773 82.180 C 165.195 82.181,164.191 82.244,165.543 82.321 M175.862 82.321 C 177.303 82.395,179.764 82.396,181.331 82.322 C 182.898 82.247,181.719 82.186,178.711 82.185 C 175.703 82.185,174.421 82.246,175.862 82.321 M228.809 82.323 C 231.226 82.391,235.181 82.391,237.598 82.323 C 240.015 82.254,238.037 82.198,233.203 82.198 C 228.369 82.198,226.392 82.254,228.809 82.323 M282.422 99.023 C 283.589 100.205,284.632 101.172,284.739 101.172 C 284.846 101.172,283.979 100.205,282.813 99.023 C 281.646 97.842,280.603 96.875,280.495 96.875 C 280.388 96.875,281.255 97.842,282.422 99.023 M237.109 105.982 C 237.109 106.049,237.681 106.620,238.379 107.251 L 239.648 108.398 238.501 107.129 C 237.432 105.946,237.109 105.680,237.109 105.982 M163.462 111.426 L 161.523 113.477 163.574 111.538 C 164.702 110.472,165.625 109.549,165.625 109.487 C 165.625 109.196,165.263 109.520,163.462 111.426 M202.344 114.185 C 202.344 114.252,202.915 114.823,203.613 115.454 L 204.883 116.602 203.736 115.332 C 202.666 114.149,202.344 113.883,202.344 114.185 M203.125 116.899 C 203.662 117.431,204.163 117.814,204.238 117.749 C 204.501 117.521,203.856 116.798,203.006 116.366 C 202.222 115.969,202.233 116.014,203.125 116.899 M188.152 124.650 C 187.758 124.883,187.099 124.986,186.687 124.878 C 186.275 124.771,185.938 124.819,185.938 124.985 C 185.938 125.152,185.686 126.762,185.379 128.562 C 183.743 138.155,183.691 140.625,185.124 140.625 C 185.814 140.625,185.853 140.499,185.485 139.445 C 185.187 138.587,185.198 138.116,185.527 137.719 C 185.792 137.400,185.966 135.908,185.947 134.114 C 185.929 132.431,186.111 130.176,186.352 129.102 C 186.593 128.027,186.857 126.783,186.940 126.336 C 187.187 125.005,188.760 124.609,193.805 124.609 L 198.511 124.609 197.085 126.594 C 194.470 130.234,191.419 137.426,191.400 139.996 C 191.389 141.523,190.842 141.949,189.495 141.479 C 187.996 140.957,187.876 141.269,189.355 141.841 C 191.542 142.687,191.797 142.628,191.797 141.278 C 191.797 138.751,195.132 129.363,196.469 128.125 C 196.585 128.018,197.336 127.112,198.139 126.113 L 199.599 124.296 194.233 124.260 C 191.002 124.239,188.583 124.394,188.152 124.650 M112.109 127.125 C 112.109 127.855,113.374 132.259,113.672 132.567 C 113.853 132.755,113.850 132.315,113.664 131.591 C 113.478 130.866,113.155 129.600,112.947 128.778 C 112.595 127.389,112.109 126.430,112.109 127.125 M180.084 128.504 C 178.780 131.060,178.185 133.954,178.515 136.128 C 178.932 138.878,178.916 138.891,175.350 138.729 C 173.615 138.650,172.028 138.753,171.825 138.957 C 171.591 139.191,172.505 139.322,174.301 139.313 C 175.867 139.304,177.632 139.424,178.223 139.578 L 179.297 139.859 179.302 137.605 C 179.305 136.366,179.421 134.929,179.559 134.412 C 179.752 133.692,179.689 133.547,179.292 133.792 C 178.910 134.028,178.842 133.933,179.035 133.431 C 179.179 133.055,179.300 132.455,179.303 132.097 C 179.308 131.574,179.376 131.552,179.650 131.984 C 179.881 132.349,180.082 131.846,180.275 130.421 C 180.431 129.266,180.720 128.013,180.918 127.637 C 181.116 127.261,181.187 126.953,181.076 126.953 C 180.966 126.953,180.519 127.651,180.084 128.504 M205.762 128.739 C 204.247 129.561,204.419 129.844,205.957 129.062 C 207.430 128.313,207.690 128.119,207.194 128.141 C 206.997 128.149,206.353 128.419,205.762 128.739 M171.164 130.762 C 170.930 131.997,170.737 133.271,170.737 133.594 C 170.736 133.916,170.560 134.971,170.346 135.938 C 169.792 138.433,169.827 139.844,170.440 139.844 C 170.794 139.844,170.904 139.471,170.786 138.671 C 170.686 137.988,170.873 137.103,171.236 136.550 C 171.747 135.770,172.138 128.516,171.669 128.516 C 171.626 128.516,171.399 129.526,171.164 130.762 M203.516 130.120 C 203.516 130.368,203.230 130.443,202.844 130.295 C 202.475 130.153,202.288 130.153,202.430 130.294 C 202.571 130.436,202.367 130.896,201.975 131.316 C 201.584 131.736,200.953 133.080,200.573 134.302 C 200.193 135.524,199.802 136.743,199.704 137.012 C 199.606 137.280,199.720 137.500,199.958 137.500 C 200.196 137.500,200.391 137.146,200.391 136.713 C 200.391 136.281,200.552 135.622,200.748 135.249 C 200.945 134.876,201.407 133.867,201.775 133.008 C 202.142 132.148,202.904 131.056,203.468 130.580 C 204.031 130.105,204.272 129.709,204.004 129.702 C 203.735 129.694,203.516 129.882,203.516 130.120 M216.135 133.085 C 214.172 133.467,210.923 138.006,211.909 138.992 C 212.016 139.099,212.221 138.604,212.363 137.892 C 212.684 136.286,215.011 133.897,216.815 133.322 C 218.153 132.896,217.781 132.766,216.135 133.085 M219.336 133.284 C 220.781 133.789,222.160 135.006,222.900 136.429 C 223.476 137.535,223.584 142.324,223.025 141.979 C 222.862 141.878,222.818 142.138,222.928 142.555 C 223.037 142.973,222.865 143.839,222.545 144.480 C 222.173 145.225,222.126 145.582,222.413 145.472 C 226.414 143.937,223.276 132.660,218.899 132.843 C 218.417 132.864,218.567 133.015,219.336 133.284 M157.520 136.805 C 157.036 137.038,156.641 137.382,156.641 137.569 C 156.641 137.756,157.080 137.621,157.617 137.269 C 159.050 136.330,159.000 136.091,157.520 136.805 M231.583 139.030 C 234.420 141.769,234.940 142.969,233.294 142.969 C 232.900 142.969,232.382 143.165,232.142 143.405 C 231.903 143.644,231.363 144.040,230.943 144.284 C 229.740 144.982,223.828 149.267,223.828 149.440 C 223.828 149.526,225.672 148.381,227.925 146.896 C 230.179 145.411,232.719 143.804,233.570 143.326 C 235.495 142.244,235.391 142.006,231.575 138.721 L 228.711 136.255 231.583 139.030 M185.955 138.705 C 186.195 139.153,186.469 139.442,186.564 139.347 C 186.838 139.074,186.283 137.891,185.882 137.891 C 185.682 137.891,185.715 138.257,185.955 138.705 M156.250 141.081 C 156.250 142.191,156.349 143.000,156.471 142.878 C 156.844 142.505,156.953 139.063,156.591 139.063 C 156.403 139.063,156.250 139.971,156.250 141.081 M211.374 140.742 C 211.324 142.348,212.042 144.063,213.135 144.950 C 213.603 145.331,213.543 145.127,212.943 144.307 C 212.460 143.647,211.919 142.241,211.742 141.182 C 211.432 139.331,211.418 139.314,211.374 140.742 M116.437 140.529 C 116.420 140.798,116.758 141.674,117.188 142.476 C 117.822 143.660,117.969 143.770,117.969 143.061 C 117.969 141.926,119.348 141.896,122.172 142.969 C 125.759 144.332,125.338 143.796,121.534 142.156 C 119.521 141.288,117.643 140.667,117.360 140.775 C 117.078 140.883,116.762 140.762,116.658 140.505 C 116.517 140.160,116.460 140.166,116.437 140.529 M254.005 142.773 C 254.009 143.633,254.089 143.938,254.183 143.452 C 254.276 142.967,254.272 142.263,254.175 141.890 C 254.077 141.517,254.000 141.914,254.005 142.773 M164.068 142.676 C 164.073 143.386,164.147 143.443,164.453 142.969 C 164.943 142.211,164.943 141.797,164.453 141.797 C 164.238 141.797,164.065 142.192,164.068 142.676 M301.354 166.211 C 301.354 178.027,301.404 182.918,301.465 177.078 C 301.525 171.239,301.525 161.571,301.465 155.594 C 301.404 149.617,301.354 154.395,301.354 166.211 M215.016 146.268 C 215.433 146.602,216.048 146.861,216.383 146.844 C 216.909 146.818,216.912 146.784,216.406 146.596 C 216.084 146.477,215.469 146.217,215.039 146.019 C 214.270 145.666,214.270 145.670,215.016 146.268 M175.586 149.483 C 178.764 152.596,182.787 154.793,184.513 154.358 C 185.404 154.134,186.632 153.845,187.242 153.717 C 188.779 153.393,188.042 152.586,185.637 151.960 C 181.911 150.989,179.480 149.848,180.518 149.557 C 181.175 149.372,180.893 149.285,179.548 149.258 C 178.042 149.227,177.696 149.335,177.868 149.785 C 178.133 150.475,177.294 150.224,175.586 149.104 L 174.414 148.336 175.586 149.483 M122.358 152.735 C 120.641 153.595,118.994 154.598,118.700 154.966 C 118.335 155.420,118.561 155.356,119.407 154.763 C 120.090 154.284,121.848 153.443,123.313 152.894 C 126.085 151.856,127.192 151.172,126.100 151.172 C 125.760 151.172,124.076 151.875,122.358 152.735 M138.770 152.930 C 138.775 153.789,138.855 154.095,138.948 153.609 C 139.042 153.123,139.038 152.420,138.940 152.046 C 138.842 151.673,138.766 152.070,138.770 152.930 M185.742 152.510 C 186.977 153.059,186.986 153.049,184.443 153.862 C 183.018 154.317,181.250 153.560,181.250 152.494 C 181.250 151.785,184.136 151.795,185.742 152.510 M230.273 154.992 C 227.459 155.486,225.817 156.641,227.930 156.641 C 228.467 156.641,228.906 156.465,228.906 156.250 C 228.906 155.721,229.977 155.751,230.155 156.285 C 230.237 156.533,230.699 156.358,231.262 155.864 C 231.792 155.399,232.022 155.121,231.772 155.246 C 231.521 155.371,231.258 155.334,231.186 155.164 C 231.114 154.994,230.703 154.916,230.273 154.992 M221.094 156.250 C 220.557 156.422,219.429 156.580,218.587 156.602 C 217.746 156.623,217.153 156.736,217.270 156.854 C 217.387 156.971,219.131 156.938,221.144 156.782 C 223.649 156.587,224.496 156.409,223.828 156.217 C 222.592 155.863,222.292 155.866,221.094 156.250 M165.870 157.784 C 165.667 159.054,165.742 159.659,166.152 160.069 C 166.636 160.553,166.685 160.375,166.526 158.732 C 166.258 155.980,166.177 155.863,165.870 157.784 M204.688 156.597 C 204.688 157.026,205.820 157.982,206.052 157.750 C 206.148 157.654,205.880 157.279,205.457 156.917 C 205.034 156.554,204.688 156.410,204.688 156.597 M122.852 161.433 C 121.348 162.344,119.326 163.634,118.359 164.302 C 116.002 165.929,114.359 166.726,113.784 166.520 C 113.523 166.427,113.224 166.759,113.118 167.257 C 111.912 172.962,111.840 174.219,112.718 174.219 C 113.106 174.219,113.218 174.041,113.026 173.731 C 112.678 173.168,112.786 171.502,113.300 169.516 C 113.616 168.295,114.330 167.683,119.426 164.261 C 122.599 162.130,125.362 160.247,125.566 160.076 C 126.379 159.396,125.456 159.857,122.852 161.433 M115.023 160.573 C 114.609 161.243,114.980 161.309,115.798 160.710 C 116.432 160.247,116.451 160.156,115.918 160.156 C 115.567 160.156,115.165 160.344,115.023 160.573 M188.756 162.308 C 186.116 163.217,183.853 164.063,183.727 164.190 C 183.269 164.648,186.562 163.970,188.086 163.292 C 188.945 162.910,190.179 162.482,190.828 162.342 C 191.918 162.106,194.822 160.487,193.945 160.604 C 193.730 160.633,191.395 161.399,188.756 162.308 M173.079 164.746 C 173.289 165.337,173.817 166.260,174.252 166.797 C 174.892 167.588,174.852 167.384,174.038 165.723 C 172.955 163.512,172.461 163.008,173.079 164.746 M198.914 165.904 C 199.470 166.594,199.995 167.367,200.080 167.622 C 200.165 167.877,200.452 168.014,200.717 167.925 C 201.004 167.829,200.532 167.133,199.551 166.206 C 198.170 164.902,198.067 164.852,198.914 165.904 M184.731 177.913 C 187.014 178.362,189.503 178.205,190.135 177.573 C 190.261 177.447,188.534 177.361,186.296 177.382 L 182.227 177.420 184.731 177.913 M110.938 179.158 C 110.938 179.821,111.751 179.841,112.625 179.199 C 113.213 178.768,113.153 178.706,112.114 178.669 C 111.364 178.643,110.938 178.820,110.938 179.158 M301.353 213.086 C 301.353 223.828,301.403 228.166,301.465 222.727 C 301.526 217.287,301.526 208.498,301.464 203.195 C 301.403 197.893,301.353 202.344,301.353 213.086 M291.797 201.725 C 291.797 202.244,291.577 202.758,291.309 202.866 C 291.017 202.984,291.096 203.076,291.504 203.094 C 292.010 203.117,292.188 202.821,292.188 201.953 C 292.188 201.309,292.100 200.781,291.992 200.781 C 291.885 200.781,291.797 201.206,291.797 201.725 M291.767 217.383 C 291.643 225.117,291.599 231.519,291.669 231.608 C 292.118 232.180,292.187 229.895,292.095 217.345 L 291.992 203.320 291.767 217.383 M190.095 207.507 C 189.784 207.997,189.420 209.014,189.285 209.766 L 189.041 211.133 189.882 209.570 C 190.967 207.555,190.889 207.613,191.656 208.245 C 192.256 208.740,192.274 208.711,191.859 207.932 C 191.167 206.634,190.716 206.526,190.095 207.507 M203.906 210.169 C 203.906 210.627,203.535 211.112,203.027 211.316 L 202.148 211.669 203.003 211.694 C 203.667 211.713,203.892 212.001,204.014 212.988 C 204.101 213.689,204.200 213.164,204.234 211.816 C 204.269 210.474,204.209 209.375,204.102 209.375 C 203.994 209.375,203.906 209.732,203.906 210.169 M150.977 211.343 C 150.509 211.535,150.421 211.675,150.756 211.691 C 151.064 211.706,151.724 212.101,152.221 212.568 C 153.274 213.558,153.417 213.079,152.433 211.858 C 151.931 211.236,151.557 211.104,150.977 211.343 M258.306 214.343 C 258.900 214.433,259.779 214.430,260.259 214.337 C 260.740 214.245,260.254 214.171,259.180 214.174 C 258.105 214.177,257.712 214.253,258.306 214.343 M301.263 241.797 C 301.263 242.549,301.343 242.856,301.441 242.480 C 301.539 242.104,301.539 241.489,301.441 241.113 C 301.343 240.737,301.263 241.045,301.263 241.797 M283.580 281.934 L 281.445 284.180 283.691 282.045 C 285.778 280.061,286.116 279.688,285.826 279.688 C 285.765 279.688,284.755 280.698,283.580 281.934 M192.147 318.921 C 192.003 319.064,176.639 319.597,173.353 319.573 C 172.769 319.568,172.187 319.733,172.060 319.939 C 171.933 320.144,171.234 320.313,170.508 320.313 C 169.781 320.313,169.078 320.488,168.945 320.703 C 168.813 320.918,167.352 321.093,165.700 321.093 C 161.876 321.091,159.375 322.211,159.375 323.925 C 159.375 324.598,159.584 325.000,159.935 325.000 C 160.242 325.000,160.606 325.352,160.742 325.781 C 160.879 326.211,161.330 326.563,161.745 326.563 C 162.160 326.563,162.500 326.738,162.500 326.953 C 162.500 327.168,162.983 327.348,163.574 327.353 C 164.165 327.359,165.703 327.716,166.992 328.148 C 172.319 329.934,192.936 331.656,198.749 330.801 C 200.189 330.589,205.146 330.347,209.766 330.262 C 214.385 330.178,218.955 329.913,219.922 329.674 C 221.545 329.273,226.784 328.299,229.451 327.904 C 230.073 327.812,230.776 327.580,231.013 327.388 C 231.251 327.197,232.754 326.911,234.352 326.754 C 235.951 326.597,237.502 326.226,237.798 325.929 C 238.095 325.633,238.676 325.391,239.090 325.391 C 240.691 325.391,239.154 323.271,237.217 322.807 C 236.621 322.664,235.617 322.286,234.987 321.968 C 234.349 321.646,231.408 321.165,228.346 320.881 C 225.324 320.600,221.709 320.190,220.313 319.969 C 215.578 319.218,192.701 318.367,192.147 318.921 " stroke="none" fill="#60b8bd" fill-rule="evenodd"></path></g></svg>