<svg id="svg" version="1.1" xmlns="http://www.w3.org/2000/svg" xmlns:xlink="http://www.w3.org/1999/xlink" width="400" height="335.3191489361702" viewBox="0, 0, 400,335.3191489361702"><g id="svgg"><path id="path0" d="M81.711 131.033 C 71.183 133.350,64.782 145.162,68.430 155.542 C 74.380 172.472,101.149 172.024,106.452 154.906 C 111.001 140.224,97.806 127.492,81.711 131.033 M109.284 130.761 C 109.161 130.884,109.060 132.545,109.060 134.452 L 109.060 137.919 114.561 137.919 C 119.268 137.919,120.092 137.996,120.266 138.450 C 120.378 138.742,120.470 145.462,120.470 153.383 L 120.470 167.785 124.997 167.785 L 129.523 167.785 129.611 152.936 L 129.698 138.087 135.235 137.919 L 140.772 137.752 140.806 134.732 C 140.824 133.070,140.776 131.447,140.699 131.124 C 140.555 130.520,109.879 130.165,109.284 130.761 M157.047 131.014 C 143.058 134.109,137.801 151.497,147.703 161.922 C 156.977 171.685,174.791 169.381,180.485 157.682 C 187.882 142.483,174.423 127.169,157.047 131.014 M270.605 131.035 C 256.617 134.079,251.413 152.071,261.576 162.254 C 272.306 173.004,292.634 167.929,295.601 153.759 C 298.703 138.944,286.257 127.630,270.605 131.035 M298.214 130.757 C 298.089 130.882,297.987 132.541,297.987 134.444 L 297.987 137.903 303.440 137.995 L 308.893 138.087 308.980 152.946 L 309.067 167.804 313.678 167.711 L 318.289 167.617 318.456 152.852 L 318.624 138.087 324.088 137.995 L 329.553 137.903 329.458 134.304 L 329.362 130.705 313.902 130.617 C 305.398 130.570,298.338 130.632,298.214 130.757 M345.923 131.053 C 331.670 134.511,326.633 151.824,336.885 162.119 C 349.341 174.627,371.477 166.335,371.477 149.161 C 371.477 136.625,359.101 127.856,345.923 131.053 M27.517 131.167 C 27.517 131.329,27.960 132.574,28.502 133.935 C 29.043 135.296,30.188 138.221,31.044 140.436 C 31.901 142.651,32.957 145.369,33.392 146.477 C 33.826 147.584,34.731 149.924,35.403 151.678 C 36.810 155.352,37.739 157.757,39.749 162.919 C 40.540 164.950,41.277 166.875,41.388 167.198 C 41.567 167.720,42.115 167.785,46.303 167.785 L 51.015 167.785 51.674 166.359 C 52.036 165.575,53.180 162.743,54.216 160.067 C 55.253 157.391,57.056 152.785,58.224 149.832 C 59.392 146.879,61.199 142.273,62.239 139.597 C 63.279 136.921,64.424 134.024,64.783 133.159 C 65.769 130.785,65.922 130.872,60.789 130.872 L 56.143 130.872 55.282 133.473 C 54.808 134.904,53.740 138.037,52.908 140.436 C 46.581 158.682,46.822 158.032,46.521 157.690 C 46.453 157.613,45.458 154.832,44.310 151.510 C 43.161 148.188,41.103 142.236,39.735 138.285 C 38.367 134.333,37.248 131.048,37.248 130.986 C 37.248 130.924,35.059 130.872,32.383 130.872 C 29.706 130.872,27.517 131.005,27.517 131.167 M216.625 131.628 C 216.749 132.043,217.202 133.289,217.631 134.396 C 220.850 142.713,221.622 144.702,222.318 146.477 C 222.753 147.584,223.657 149.924,224.329 151.678 C 225.000 153.431,225.905 155.772,226.340 156.879 C 227.502 159.842,230.071 166.519,230.310 167.198 C 230.493 167.720,231.043 167.785,235.229 167.785 L 239.942 167.785 240.606 166.359 C 241.193 165.100,242.638 161.453,248.547 146.309 C 249.376 144.186,251.023 139.997,252.208 136.998 C 253.393 134.000,254.362 131.395,254.362 131.210 C 254.362 131.000,252.620 130.874,249.748 130.877 L 245.134 130.881 243.193 136.498 C 242.125 139.587,240.434 144.455,239.434 147.315 C 238.434 150.176,237.211 153.687,236.717 155.117 C 235.608 158.330,235.614 158.330,234.452 154.949 C 231.818 147.278,230.096 142.333,229.691 141.275 C 229.443 140.629,228.530 138.024,227.662 135.487 L 226.082 130.872 221.240 130.872 L 216.398 130.872 216.625 131.628 M91.919 139.088 C 102.283 144.393,97.903 161.472,86.485 160.278 C 74.527 159.028,73.441 141.182,85.146 138.268 C 87.005 137.805,90.158 138.186,91.919 139.088 M166.767 138.953 C 172.272 141.321,174.773 149.497,171.632 154.856 C 165.914 164.613,152.153 160.582,152.191 149.161 C 152.218 140.979,159.546 135.847,166.767 138.953 M280.861 139.256 C 288.659 143.192,288.505 155.416,280.609 159.293 C 273.711 162.681,265.705 157.335,265.687 149.329 C 265.669 140.876,273.618 135.600,280.861 139.256 M356.013 139.088 C 366.065 144.233,362.666 160.181,351.510 160.215 C 339.187 160.252,337.038 141.714,348.977 138.359 C 351.016 137.786,354.093 138.105,356.013 139.088 M185.235 139.412 C 185.235 139.495,186.541 141.571,188.137 144.026 C 189.733 146.481,191.703 149.512,192.515 150.761 C 193.365 152.069,193.889 153.208,193.750 153.446 C 193.618 153.673,191.497 156.905,189.037 160.629 C 186.576 164.352,184.564 167.485,184.564 167.592 C 184.564 167.698,186.716 167.785,189.346 167.784 L 194.128 167.782 196.946 163.421 C 198.496 161.023,199.889 159.060,200.042 159.060 C 200.362 159.060,200.526 159.313,203.361 164.178 L 205.464 167.785 210.450 167.785 C 213.193 167.785,215.434 167.672,215.432 167.534 C 215.429 167.395,213.329 164.113,210.764 160.240 C 206.750 154.179,206.151 153.104,206.461 152.522 C 206.883 151.730,210.376 146.304,212.960 142.426 C 213.953 140.937,214.765 139.616,214.765 139.490 C 214.765 139.365,212.613 139.263,209.983 139.265 L 205.201 139.268 202.743 143.296 C 201.391 145.511,200.155 147.244,199.997 147.146 C 199.840 147.049,198.704 145.235,197.473 143.115 L 195.235 139.262 190.235 139.262 C 187.485 139.262,185.235 139.329,185.235 139.412 M168.121 275.168 L 168.121 282.215 174.796 282.215 C 182.757 282.215,181.879 281.237,181.879 290.108 C 181.879 298.141,181.420 297.429,186.745 297.651 L 190.772 297.819 190.866 302.097 L 190.960 306.376 200.010 306.376 L 209.060 306.376 209.060 302.544 C 209.060 297.281,208.730 297.651,213.435 297.651 C 218.831 297.651,218.456 298.266,218.456 289.406 L 218.456 282.215 225.168 282.215 L 231.879 282.215 231.879 275.168 L 231.879 268.121 200.000 268.121 L 168.121 268.121 168.121 275.168 M207.308 279.446 L 207.402 283.893 211.755 283.893 L 216.107 283.893 216.107 289.597 L 216.107 295.302 211.745 295.302 L 207.383 295.302 207.383 299.623 C 207.383 305.140,208.000 304.734,199.789 304.621 L 193.121 304.530 192.953 300.000 L 192.785 295.470 188.331 295.376 L 183.876 295.282 183.968 289.671 L 184.060 284.060 188.423 283.893 L 192.785 283.725 192.879 279.272 L 192.973 274.819 200.094 274.909 L 207.215 275.000 207.308 279.446 M185.654 287.471 C 184.900 287.775,185.097 291.611,185.867 291.611 C 186.217 291.611,186.577 291.311,186.674 290.940 C 186.927 289.974,188.777 289.997,189.031 290.969 C 189.406 292.401,190.426 291.593,190.541 289.773 C 190.683 287.540,188.284 286.409,185.654 287.471 M191.090 288.035 C 190.485 290.447,192.070 293.192,192.779 290.959 C 193.088 289.986,194.955 289.984,195.209 290.957 C 195.616 292.514,196.795 291.602,196.863 289.679 C 196.940 287.511,196.575 287.248,193.485 287.248 C 191.460 287.248,191.272 287.310,191.090 288.035 M197.458 287.696 C 197.358 287.958,197.322 288.908,197.379 289.808 L 197.483 291.443 200.168 291.443 C 203.523 291.443,204.129 290.573,201.007 290.239 L 199.161 290.042 201.119 289.988 C 203.642 289.917,203.593 289.140,201.055 288.992 C 198.843 288.863,199.119 288.255,201.390 288.255 C 202.589 288.255,203.036 288.134,202.937 287.836 C 202.725 287.195,197.699 287.067,197.458 287.696 M203.846 287.505 C 203.488 287.758,203.451 291.147,203.803 291.498 C 204.233 291.929,205.034 291.245,205.034 290.447 C 205.034 289.360,205.199 289.378,206.616 290.622 C 208.357 292.151,208.893 291.869,208.893 289.425 C 208.893 287.172,207.681 286.276,207.443 288.353 L 207.335 289.290 206.173 288.269 C 204.992 287.233,204.473 287.062,203.846 287.505 M210.103 287.555 C 209.264 288.086,209.408 291.421,210.275 291.544 C 210.760 291.614,211.044 291.427,211.166 290.957 C 211.423 289.976,213.270 289.985,213.528 290.969 C 213.646 291.422,213.927 291.628,214.322 291.553 C 215.062 291.412,215.384 288.497,214.743 287.726 C 214.298 287.189,210.880 287.063,210.103 287.555 M188.758 288.926 C 188.758 289.226,188.385 289.472,187.836 289.536 C 187.084 289.622,186.913 289.509,186.913 288.926 C 186.913 288.343,187.084 288.230,187.836 288.317 C 188.385 288.380,188.758 288.627,188.758 288.926 M194.966 288.596 C 195.414 288.889,195.414 288.963,194.966 289.257 C 194.313 289.685,193.384 289.688,193.121 289.262 C 192.596 288.412,193.945 287.925,194.966 288.596 M213.255 288.926 C 213.255 289.541,211.812 289.798,211.290 289.276 C 211.009 288.996,211.041 288.815,211.412 288.575 C 212.124 288.115,213.255 288.330,213.255 288.926 " stroke="none" fill="#09569e" fill-rule="evenodd"></path><path id="path1" d="M0.000 167.785 L 0.000 335.570 200.000 335.570 L 400.000 335.570 400.000 167.785 L 400.000 0.000 200.000 0.000 L 0.000 0.000 0.000 167.785 M90.157 130.202 C 111.863 132.489,114.158 161.514,93.132 167.827 C 77.583 172.494,62.680 157.739,67.927 142.871 C 69.741 137.732,75.831 131.544,79.075 131.544 C 79.326 131.544,79.530 131.413,79.530 131.254 C 79.530 130.925,82.638 130.251,84.899 130.090 C 85.730 130.031,86.560 129.959,86.745 129.930 C 86.930 129.901,88.465 130.023,90.157 130.202 M168.289 130.581 C 178.819 133.062,185.148 143.916,182.241 154.511 C 180.723 160.047,175.436 165.711,170.456 167.138 C 169.633 167.374,168.752 167.726,168.499 167.919 C 167.668 168.554,159.466 168.599,157.057 167.982 C 141.941 164.109,136.971 146.000,148.093 135.319 C 149.102 134.350,150.013 133.557,150.117 133.557 C 150.221 133.557,150.846 133.190,151.506 132.742 C 152.167 132.294,153.155 131.829,153.702 131.709 C 154.250 131.589,154.698 131.365,154.698 131.212 C 154.698 130.965,157.403 130.409,160.235 130.075 C 161.714 129.900,166.738 130.216,168.289 130.581 M279.112 130.205 C 282.155 130.525,286.763 132.065,287.860 133.127 C 288.103 133.364,288.406 133.557,288.531 133.557 C 289.565 133.557,294.074 138.969,294.962 141.275 C 295.211 141.921,295.530 142.604,295.671 142.792 C 296.293 143.622,296.698 148.973,296.353 151.796 C 293.634 174.020,258.540 174.008,256.014 151.782 C 255.015 142.988,259.507 134.683,266.779 131.883 C 267.424 131.635,268.104 131.320,268.289 131.183 C 268.678 130.896,272.041 130.251,273.993 130.089 C 274.732 130.028,275.487 129.956,275.671 129.928 C 275.856 129.900,277.404 130.025,279.112 130.205 M357.215 130.603 C 358.138 130.800,359.044 131.072,359.228 131.208 C 359.413 131.345,360.118 131.634,360.794 131.852 C 369.861 134.771,375.033 149.603,369.909 157.987 C 367.563 161.826,366.710 162.795,363.840 164.884 C 357.257 169.675,343.715 169.584,338.826 164.715 C 338.576 164.466,337.854 163.807,337.223 163.251 C 333.214 159.725,331.099 154.857,331.103 149.161 C 331.110 136.017,342.991 127.573,357.215 130.603 M37.638 131.124 C 37.845 131.632,38.205 132.500,38.440 133.054 C 38.674 133.607,39.045 134.740,39.264 135.570 C 39.484 136.401,39.785 137.232,39.935 137.416 C 40.084 137.601,40.440 138.582,40.725 139.597 C 41.011 140.612,41.717 142.727,42.295 144.295 C 42.873 145.864,43.567 147.903,43.836 148.826 C 44.106 149.748,44.449 150.732,44.599 151.011 C 44.750 151.290,45.113 152.347,45.408 153.360 C 46.405 156.786,46.713 156.822,47.781 153.635 C 48.296 152.097,48.855 150.537,49.023 150.168 C 49.191 149.799,49.606 148.666,49.946 147.651 C 50.758 145.223,53.377 137.568,54.767 133.557 L 55.872 130.369 60.990 130.276 C 67.013 130.167,66.685 129.760,64.630 134.800 C 63.817 136.792,62.963 139.065,62.731 139.849 C 62.499 140.633,62.207 141.275,62.081 141.275 C 61.954 141.275,61.662 141.917,61.431 142.701 C 61.200 143.486,60.805 144.581,60.554 145.134 C 60.303 145.688,59.876 146.745,59.605 147.483 C 59.112 148.830,58.062 151.590,56.732 155.034 C 56.340 156.049,55.879 157.181,55.707 157.550 C 55.536 157.919,54.859 159.656,54.204 161.409 C 53.548 163.163,52.796 165.050,52.532 165.604 C 52.268 166.158,52.003 166.913,51.944 167.282 C 51.843 167.915,51.541 167.958,46.666 168.046 C 40.956 168.149,41.105 168.199,40.247 165.874 C 39.920 164.987,39.246 163.205,38.749 161.913 C 38.252 160.621,37.509 158.658,37.098 157.550 C 36.688 156.443,35.658 153.725,34.809 151.510 C 33.961 149.295,32.574 145.671,31.727 143.456 C 30.880 141.242,29.981 138.977,29.728 138.423 C 29.476 137.869,29.160 137.039,29.027 136.577 C 28.894 136.116,28.596 135.285,28.366 134.732 C 28.135 134.178,27.774 133.302,27.564 132.786 C 27.353 132.270,27.181 131.477,27.181 131.024 L 27.181 130.201 32.222 130.201 L 37.263 130.201 37.638 131.124 M141.208 133.720 C 141.367 139.028,141.889 138.591,135.400 138.591 L 129.873 138.591 129.785 153.272 L 129.698 167.953 125.503 168.050 C 123.196 168.103,120.969 168.063,120.554 167.960 L 119.799 167.772 119.799 153.190 L 119.799 138.607 114.346 138.515 L 108.893 138.423 108.798 134.309 L 108.704 130.195 124.906 130.282 L 141.107 130.369 141.208 133.720 M226.505 130.863 C 226.700 131.227,227.300 132.851,227.838 134.471 C 228.377 136.091,229.591 139.606,230.536 142.282 C 231.481 144.958,232.953 149.224,233.808 151.762 C 234.663 154.299,235.447 156.375,235.550 156.375 C 235.788 156.373,236.809 153.850,237.111 152.517 C 237.237 151.963,237.536 151.133,237.776 150.671 C 238.195 149.866,238.917 147.785,240.278 143.456 C 241.101 140.842,242.208 137.637,242.656 136.577 C 242.851 136.116,243.416 134.530,243.913 133.054 L 244.816 130.369 249.925 130.276 C 253.890 130.205,255.035 130.280,255.038 130.612 C 255.043 131.059,251.708 139.763,250.624 142.136 C 250.281 142.887,250.000 143.694,250.000 143.930 C 250.000 144.166,249.779 144.760,249.510 145.250 C 249.240 145.740,248.649 147.122,248.197 148.322 C 247.744 149.522,246.546 152.617,245.535 155.201 C 244.523 157.785,243.151 161.334,242.485 163.087 C 240.438 168.479,241.218 167.938,235.335 168.045 L 230.259 168.138 228.686 164.019 C 227.820 161.753,226.915 159.446,226.673 158.893 C 226.432 158.339,225.829 156.829,225.333 155.537 C 224.837 154.245,224.084 152.357,223.659 151.342 C 223.235 150.327,222.785 149.119,222.659 148.658 C 222.533 148.196,222.229 147.366,221.983 146.812 C 221.738 146.258,220.986 144.371,220.313 142.617 C 219.640 140.864,218.889 138.977,218.645 138.423 C 218.400 137.869,218.012 136.812,217.781 136.074 C 217.551 135.336,217.246 134.581,217.105 134.396 C 216.685 133.849,215.808 130.612,216.022 130.398 C 216.632 129.788,226.156 130.211,226.505 130.863 M329.882 130.872 C 329.891 131.242,329.898 132.752,329.898 134.228 C 329.898 135.705,329.891 137.290,329.882 137.752 L 329.866 138.591 324.332 138.591 L 318.799 138.591 318.712 153.272 L 318.624 167.953 313.758 167.953 L 308.893 167.953 308.805 153.280 L 308.718 138.607 303.268 138.515 L 297.819 138.423 297.725 134.312 L 297.630 130.201 313.748 130.201 C 329.637 130.201,329.866 130.211,329.882 130.872 M84.228 139.022 C 75.337 142.373,74.991 156.148,83.725 159.082 C 84.463 159.330,85.211 159.653,85.386 159.800 C 87.716 161.752,94.332 158.096,96.383 153.723 C 97.474 151.397,97.701 145.374,96.710 145.044 C 96.489 144.971,96.309 144.719,96.309 144.485 C 96.309 141.024,88.403 137.449,84.228 139.022 M160.067 138.806 C 151.997 141.413,149.819 152.093,156.254 157.500 C 158.619 159.488,163.863 160.920,164.572 159.773 C 164.672 159.611,165.398 159.314,166.186 159.112 C 171.680 157.706,174.410 148.385,170.869 143.122 C 168.574 139.710,163.520 137.691,160.067 138.806 M195.688 139.178 C 195.958 139.501,196.360 140.143,196.582 140.604 C 196.803 141.065,197.364 142.047,197.828 142.785 C 198.292 143.523,198.923 144.618,199.230 145.218 C 200.090 146.896,200.149 146.842,203.188 141.587 C 204.976 138.495,204.761 138.590,209.983 138.596 C 215.838 138.602,215.878 138.627,214.221 141.245 C 213.505 142.377,212.764 143.564,212.574 143.883 C 212.383 144.202,211.628 145.353,210.896 146.441 C 210.163 147.529,208.902 149.476,208.094 150.768 L 206.624 153.117 207.230 154.159 C 207.563 154.732,207.922 155.277,208.028 155.369 C 208.282 155.589,210.857 159.388,211.076 159.865 C 211.169 160.069,212.000 161.346,212.922 162.704 C 213.843 164.063,214.754 165.443,214.946 165.773 C 215.138 166.102,215.491 166.607,215.730 166.896 C 216.593 167.936,215.819 168.121,210.635 168.116 C 204.539 168.110,205.141 168.435,202.534 163.737 C 201.371 161.642,200.288 159.888,200.126 159.841 C 199.964 159.793,198.624 161.635,197.148 163.934 L 194.463 168.114 189.581 168.118 C 183.468 168.122,183.439 168.099,185.550 164.972 C 187.165 162.581,188.798 160.109,189.432 159.096 C 189.617 158.800,190.573 157.376,191.555 155.932 C 193.586 152.949,193.616 153.365,191.075 149.444 C 190.018 147.812,188.623 145.646,187.977 144.631 C 187.330 143.616,186.286 141.997,185.657 141.033 C 185.027 140.070,184.608 139.126,184.725 138.936 C 185.136 138.272,195.116 138.492,195.688 139.178 M273.521 138.813 C 272.410 139.052,270.194 140.535,268.839 141.946 C 261.517 149.576,270.132 163.445,279.594 159.260 C 291.393 154.042,286.069 136.119,273.521 138.813 M348.197 139.083 C 342.477 141.122,339.820 148.415,342.659 154.281 C 344.615 158.321,350.554 161.155,353.818 159.606 C 354.450 159.306,355.156 159.060,355.387 159.060 C 356.861 159.060,360.371 154.999,361.043 152.517 C 363.339 144.026,355.965 136.314,348.197 139.083 M48.133 170.169 C 47.840 170.643,47.315 170.520,47.315 169.977 C 47.315 169.678,47.512 169.560,47.817 169.677 C 48.093 169.782,48.235 170.004,48.133 170.169 M232.137 275.255 L 232.047 282.718 225.419 282.718 L 218.791 282.718 218.792 289.681 L 218.792 296.644 219.715 296.659 C 220.222 296.667,223.167 296.661,226.258 296.645 L 231.879 296.617 231.879 304.013 L 231.879 311.409 200.000 311.409 L 168.121 311.409 168.121 304.027 L 168.121 296.644 174.748 296.644 L 181.376 296.645 181.307 290.520 C 181.269 287.152,181.231 284.059,181.223 283.648 C 181.208 282.903,181.179 282.900,174.581 282.809 L 167.953 282.718 167.862 275.504 C 167.789 269.704,167.862 268.224,168.231 267.954 C 168.532 267.733,179.636 267.648,200.459 267.705 L 232.228 267.792 232.137 275.255 M193.214 279.446 L 193.121 284.060 188.758 284.228 L 184.396 284.396 184.304 289.671 L 184.211 294.947 188.666 295.041 L 193.121 295.134 193.215 299.483 C 193.331 304.804,192.707 304.386,200.419 304.315 L 206.711 304.258 206.711 300.143 C 206.711 294.529,206.311 294.966,211.445 294.966 L 215.772 294.966 215.772 289.597 L 215.772 284.228 211.445 284.228 C 206.309 284.228,206.711 284.673,206.711 278.999 L 206.711 274.832 200.009 274.832 L 193.308 274.832 193.214 279.446 M190.412 287.440 C 190.892 287.919,190.940 287.919,190.940 287.440 C 190.940 286.762,195.926 286.664,196.591 287.329 C 196.923 287.661,197.061 287.660,197.269 287.323 C 197.816 286.439,205.197 286.855,206.104 287.820 L 206.876 288.642 207.059 287.861 C 207.268 286.971,208.653 286.589,209.092 287.300 C 209.312 287.655,209.453 287.661,209.785 287.329 C 210.422 286.692,214.255 286.786,214.924 287.456 C 215.945 288.476,215.498 291.752,214.321 291.887 C 213.593 291.970,213.331 291.834,213.191 291.300 C 212.964 290.432,211.883 290.390,211.433 291.231 C 210.888 292.248,207.688 292.146,206.685 291.080 C 205.739 290.072,205.445 290.060,205.309 291.023 C 205.151 292.131,195.543 292.353,194.960 291.262 C 194.514 290.430,193.569 290.414,193.059 291.231 C 192.476 292.164,188.924 292.178,188.681 291.248 C 188.450 290.367,187.048 290.387,186.816 291.275 C 186.629 291.990,185.434 292.204,185.055 291.591 C 184.571 290.808,184.851 287.778,185.448 287.341 C 186.302 286.717,189.758 286.786,190.412 287.440 " stroke="none" fill="#f5f6f6" fill-rule="evenodd"></path><path id="path2" d="M174.916 296.903 L 168.121 296.994 168.121 304.027 C 168.121 311.044,168.123 311.061,168.876 311.244 C 169.291 311.344,183.599 311.385,200.671 311.334 L 231.711 311.242 231.802 304.124 L 231.892 297.006 225.049 296.909 C 219.902 296.836,218.109 296.916,217.814 297.232 C 217.544 297.522,216.195 297.651,213.445 297.651 C 208.728 297.651,209.060 297.280,209.060 302.544 L 209.060 306.376 200.010 306.376 L 190.960 306.376 190.866 302.097 L 190.772 297.819 186.711 297.651 C 184.477 297.559,182.439 297.332,182.181 297.148 C 181.894 296.943,179.062 296.847,174.916 296.903 " stroke="none" fill="#e61e26" fill-rule="evenodd"></path><path id="path3" d="M27.514 130.481 C 27.331 130.543,27.193 130.845,27.208 131.152 C 27.224 131.501,27.298 131.554,27.403 131.292 C 27.528 130.984,28.849 130.872,32.383 130.872 C 35.916 130.872,37.237 130.984,37.362 131.292 C 37.494 131.620,37.537 131.618,37.557 131.281 C 37.599 130.604,29.151 129.931,27.514 130.481 M56.062 130.678 C 55.831 130.957,55.719 131.379,55.814 131.616 C 55.923 131.887,55.997 131.829,56.014 131.460 C 56.038 130.929,56.500 130.872,60.775 130.872 L 65.509 130.872 65.295 131.795 C 65.136 132.480,65.168 132.588,65.421 132.215 C 66.432 130.721,66.014 130.537,61.605 130.537 C 59.313 130.537,57.223 130.455,56.960 130.354 C 56.698 130.253,56.294 130.399,56.062 130.678 M82.718 130.479 C 82.164 130.608,83.826 130.712,86.409 130.709 C 88.993 130.707,91.787 130.812,92.617 130.944 C 93.882 131.144,93.991 131.122,93.289 130.810 C 92.325 130.381,84.225 130.127,82.718 130.479 M109.282 130.450 C 109.195 130.590,116.159 130.664,124.756 130.614 C 137.092 130.543,140.452 130.614,140.690 130.950 C 140.917 131.271,140.957 131.252,140.853 130.872 C 140.703 130.323,109.618 129.907,109.282 130.450 M157.436 130.580 C 155.364 131.069,155.916 131.300,158.059 130.840 C 159.810 130.465,166.699 130.583,168.456 131.019 L 169.295 131.227 168.456 130.832 C 167.366 130.318,159.325 130.134,157.436 130.580 M248.993 130.540 L 244.799 130.736 249.617 130.804 L 254.435 130.872 254.221 131.795 C 254.062 132.480,254.094 132.588,254.347 132.215 C 254.774 131.584,254.800 130.537,254.390 130.537 C 254.220 130.537,253.881 130.493,253.635 130.440 C 253.389 130.387,251.300 130.432,248.993 130.540 M271.208 130.532 C 269.620 130.908,269.472 131.224,271.015 130.942 C 272.682 130.638,279.624 130.634,281.376 130.936 L 282.718 131.168 281.376 130.710 C 279.904 130.209,273.079 130.089,271.208 130.532 M297.812 130.953 C 297.707 131.370,297.666 133.146,297.720 134.899 L 297.819 138.087 303.268 138.179 L 308.718 138.272 308.811 153.028 L 308.903 167.785 308.898 152.936 L 308.893 138.087 303.428 137.995 L 297.964 137.903 298.059 134.304 L 298.154 130.705 313.758 130.705 L 329.362 130.705 329.458 134.304 L 329.553 137.903 324.088 137.995 L 318.624 138.087 318.456 152.936 C 318.364 161.103,318.402 167.785,318.540 167.785 C 318.679 167.785,318.792 161.141,318.792 153.020 L 318.792 138.255 324.340 138.255 L 329.887 138.255 329.793 134.312 L 329.698 130.369 313.849 130.282 L 298.001 130.195 297.812 130.953 M346.141 130.692 L 344.799 131.168 346.141 130.936 C 347.918 130.630,355.181 130.639,356.879 130.951 C 358.042 131.164,358.109 131.146,357.383 130.815 C 356.055 130.212,347.752 130.120,346.141 130.692 M216.123 130.948 C 216.131 131.183,216.356 131.829,216.623 132.383 C 217.090 133.353,217.027 132.617,216.529 131.292 C 216.327 130.754,226.022 130.679,226.289 131.216 C 226.383 131.406,226.421 131.368,226.373 131.133 C 226.248 130.511,216.101 130.328,216.123 130.948 M77.936 132.044 C 77.336 132.305,76.846 132.597,76.846 132.695 C 76.846 132.902,78.545 132.212,79.010 131.815 C 79.451 131.440,79.207 131.492,77.936 132.044 M95.330 131.670 C 95.673 131.981,98.322 133.218,98.322 133.067 C 98.322 132.877,95.790 131.544,95.427 131.544 C 95.297 131.544,95.253 131.601,95.330 131.670 M153.104 132.044 C 152.504 132.305,152.013 132.593,152.013 132.685 C 152.013 132.846,154.386 131.945,154.670 131.676 C 154.963 131.398,154.151 131.589,153.104 132.044 M172.415 132.698 C 173.577 133.324,174.717 133.962,174.947 134.116 C 175.178 134.270,175.060 134.116,174.683 133.773 C 173.975 133.129,171.027 131.538,170.565 131.551 C 170.420 131.555,171.253 132.071,172.415 132.698 M266.695 132.071 C 265.394 132.777,265.541 133.021,266.862 132.348 C 268.127 131.705,268.351 131.538,267.925 131.557 C 267.756 131.564,267.202 131.796,266.695 132.071 M342.317 131.908 C 341.875 132.085,341.597 132.313,341.700 132.416 C 341.803 132.519,342.316 132.371,342.839 132.087 C 343.894 131.515,343.573 131.405,342.317 131.908 M361.542 132.797 C 365.756 135.044,368.665 138.318,370.365 142.727 C 370.805 143.867,371.075 144.346,370.966 143.792 C 370.128 139.521,365.275 133.956,360.639 131.950 C 358.810 131.159,359.259 131.580,361.542 132.797 M27.709 132.550 C 27.833 133.012,28.073 133.616,28.245 133.893 C 28.461 134.242,28.487 134.140,28.331 133.557 C 28.208 133.096,27.967 132.492,27.796 132.215 C 27.580 131.865,27.553 131.967,27.709 132.550 M64.304 134.221 C 63.546 136.114,63.663 136.395,64.460 134.599 C 64.820 133.787,65.055 133.064,64.982 132.991 C 64.909 132.918,64.604 133.471,64.304 134.221 M75.403 133.510 C 74.115 134.359,71.300 137.088,70.388 138.372 C 69.975 138.954,70.844 138.210,72.318 136.719 C 73.793 135.228,75.378 133.763,75.839 133.464 C 76.300 133.166,76.602 132.914,76.510 132.906 C 76.418 132.897,75.920 133.169,75.403 133.510 M338.705 134.187 C 337.811 134.903,336.552 136.070,335.906 136.781 C 335.189 137.570,335.516 137.354,336.745 136.225 C 337.852 135.209,339.211 134.046,339.765 133.642 C 340.319 133.238,340.672 132.902,340.550 132.897 C 340.428 132.891,339.598 133.472,338.705 134.187 M54.569 134.770 C 54.272 135.642,54.087 136.414,54.158 136.484 C 54.229 136.555,54.530 135.900,54.827 135.028 C 55.124 134.157,55.309 133.385,55.238 133.314 C 55.167 133.243,54.866 133.898,54.569 134.770 M99.497 133.955 C 100.050 134.378,101.121 135.255,101.877 135.903 C 102.847 136.734,102.765 136.612,101.600 135.485 C 100.692 134.607,99.621 133.731,99.220 133.537 C 98.794 133.331,98.909 133.505,99.497 133.955 M243.495 134.770 C 243.198 135.642,243.013 136.414,243.084 136.484 C 243.155 136.555,243.456 135.900,243.753 135.028 C 244.050 134.157,244.235 133.385,244.164 133.314 C 244.093 133.243,243.792 133.898,243.495 134.770 M262.434 134.912 C 261.317 135.841,260.403 136.673,260.403 136.761 C 260.403 136.849,261.271 136.222,262.332 135.367 C 264.679 133.478,264.960 133.221,264.682 133.221 C 264.562 133.221,263.550 133.982,262.434 134.912 M288.758 134.284 C 289.496 134.899,290.447 135.742,290.871 136.158 C 291.295 136.573,291.736 136.913,291.852 136.913 C 292.266 136.913,290.547 135.308,288.995 134.246 L 287.416 133.166 288.758 134.284 M38.468 134.564 C 38.581 135.025,38.880 135.856,39.132 136.409 C 39.500 137.218,39.550 137.251,39.385 136.577 C 39.271 136.116,38.972 135.285,38.720 134.732 C 38.352 133.923,38.302 133.890,38.468 134.564 M227.394 134.564 C 227.507 135.025,227.806 135.856,228.058 136.409 C 228.426 137.218,228.476 137.251,228.311 136.577 C 228.198 136.116,227.899 135.285,227.647 134.732 C 227.278 133.923,227.229 133.890,227.394 134.564 M147.640 136.158 L 145.805 138.087 147.735 136.253 C 149.527 134.549,149.818 134.228,149.569 134.228 C 149.517 134.228,148.648 135.096,147.640 136.158 M177.474 136.378 C 178.446 137.468,179.682 139.129,180.221 140.069 C 180.761 141.009,181.203 141.607,181.205 141.397 C 181.210 140.731,178.624 137.131,177.139 135.738 C 175.901 134.578,175.947 134.664,177.474 136.378 M29.051 135.906 C 29.175 136.367,29.416 136.971,29.587 137.248 C 29.803 137.598,29.829 137.496,29.673 136.913 C 29.550 136.451,29.309 135.847,29.138 135.570 C 28.922 135.221,28.895 135.323,29.051 135.906 M217.978 135.906 C 218.101 136.367,218.342 136.971,218.513 137.248 C 218.729 137.598,218.756 137.496,218.600 136.913 C 218.476 136.451,218.235 135.847,218.064 135.570 C 217.848 135.221,217.822 135.323,217.978 135.906 M259.667 137.836 C 259.076 138.524,258.632 139.262,258.810 139.262 C 258.878 139.262,259.269 138.809,259.678 138.255 C 260.487 137.161,260.480 136.889,259.667 137.836 M292.616 138.171 C 293.056 138.771,293.467 139.262,293.531 139.262 C 293.786 139.262,292.954 138.003,292.404 137.556 C 292.041 137.262,292.122 137.496,292.616 138.171 M109.000 137.994 C 109.134 138.128,111.656 138.279,114.605 138.330 L 119.966 138.423 120.140 153.188 L 120.313 167.953 120.386 153.356 C 120.426 145.327,120.344 138.577,120.203 138.355 C 120.025 138.075,118.245 137.922,114.352 137.852 C 111.274 137.797,108.866 137.861,109.000 137.994 M135.235 137.907 L 129.698 138.087 129.693 152.936 L 129.687 167.785 129.780 153.020 L 129.873 138.255 135.406 138.255 C 138.871 138.255,140.940 138.130,140.940 137.919 C 140.940 137.735,140.902 137.616,140.856 137.655 C 140.810 137.694,138.280 137.808,135.235 137.907 M53.059 138.959 C 52.853 139.550,52.695 140.199,52.708 140.402 C 52.721 140.606,52.948 140.181,53.213 139.459 C 53.477 138.737,53.635 138.087,53.564 138.016 C 53.492 137.944,53.265 138.368,53.059 138.959 M62.453 138.963 C 62.247 139.557,62.136 140.100,62.208 140.172 C 62.280 140.244,62.508 139.818,62.714 139.224 C 62.921 138.631,63.032 138.087,62.960 138.016 C 62.888 137.944,62.660 138.370,62.453 138.963 M84.810 138.378 C 83.930 138.624,83.100 138.947,82.964 139.097 C 82.829 139.246,83.020 139.259,83.389 139.126 C 85.943 138.202,88.612 138.190,91.443 139.091 C 91.875 139.228,91.809 139.126,91.258 138.804 C 90.000 138.069,86.696 137.850,84.810 138.378 M160.314 138.266 C 158.317 138.765,156.652 139.759,155.201 141.318 L 153.859 142.759 155.478 141.316 C 158.302 138.799,161.098 138.028,165.101 138.662 C 166.207 138.837,166.400 138.815,165.824 138.577 C 164.614 138.079,161.718 137.915,160.314 138.266 M241.985 138.959 C 241.779 139.550,241.621 140.199,241.634 140.402 C 241.647 140.606,241.874 140.181,242.139 139.459 C 242.404 138.737,242.561 138.087,242.490 138.016 C 242.418 137.944,242.191 138.368,241.985 138.959 M251.380 138.963 C 251.173 139.557,251.062 140.100,251.134 140.172 C 251.206 140.244,251.434 139.818,251.641 139.224 C 251.847 138.631,251.958 138.087,251.886 138.016 C 251.814 137.944,251.586 138.370,251.380 138.963 M274.073 138.223 C 273.379 138.368,272.700 138.599,272.563 138.736 C 272.427 138.874,272.919 138.860,273.658 138.705 C 275.315 138.359,277.311 138.345,278.859 138.669 C 279.664 138.837,279.863 138.814,279.491 138.593 C 278.711 138.131,275.552 137.915,274.073 138.223 M348.927 138.372 C 347.511 138.768,344.631 140.376,344.631 140.769 C 344.631 140.855,345.329 140.482,346.183 139.941 C 348.882 138.229,351.960 137.949,355.537 139.090 C 355.968 139.228,355.902 139.125,355.352 138.804 C 354.101 138.073,350.790 137.850,348.927 138.372 M229.086 139.430 C 229.196 139.983,229.411 140.663,229.565 140.940 C 230.068 141.843,229.895 140.562,229.361 139.430 L 228.887 138.423 229.086 139.430 M184.899 139.380 C 184.899 139.639,185.164 140.051,185.487 140.295 C 185.986 140.673,186.011 140.669,185.654 140.269 C 184.842 139.358,185.281 139.262,190.260 139.262 L 195.285 139.262 195.805 140.268 C 196.092 140.822,196.411 141.275,196.516 141.275 C 196.621 141.275,196.420 140.784,196.070 140.185 L 195.433 139.094 190.166 139.002 C 185.826 138.925,184.899 138.992,184.899 139.380 M209.848 139.177 C 214.148 139.266,214.803 139.350,214.634 139.792 C 214.522 140.083,214.580 140.215,214.769 140.098 C 216.211 139.207,214.994 138.928,209.983 139.000 L 204.866 139.075 209.848 139.177 M81.068 140.246 C 79.679 141.350,78.812 142.383,78.231 143.624 C 77.896 144.341,77.901 144.366,78.265 143.792 C 78.499 143.423,79.554 142.253,80.608 141.191 C 82.766 139.020,82.863 138.820,81.068 140.246 M93.857 140.856 C 94.765 141.732,95.767 142.827,96.083 143.289 C 96.657 144.124,96.657 144.123,96.174 143.103 C 95.723 142.151,92.899 139.262,92.419 139.262 C 92.302 139.262,92.949 139.979,93.857 140.856 M168.360 140.119 C 168.953 140.586,169.913 141.529,170.492 142.213 C 171.072 142.897,171.389 143.145,171.198 142.764 C 170.812 141.998,167.950 139.260,167.541 139.265 C 167.399 139.268,167.767 139.652,168.360 140.119 M357.383 140.252 C 358.029 140.787,358.989 141.726,359.517 142.340 C 360.044 142.954,360.319 143.145,360.126 142.764 C 359.734 141.991,356.871 139.257,356.467 139.271 C 356.325 139.276,356.737 139.717,357.383 140.252 M30.729 140.268 C 30.853 140.730,31.094 141.334,31.265 141.611 C 31.481 141.961,31.507 141.858,31.351 141.275 C 31.228 140.814,30.987 140.210,30.816 139.933 C 30.600 139.583,30.573 139.685,30.729 140.268 M40.279 139.933 C 40.279 140.210,40.425 140.663,40.604 140.940 C 40.893 141.387,40.929 141.387,40.929 140.940 C 40.929 140.663,40.783 140.210,40.604 139.933 C 40.315 139.485,40.279 139.485,40.279 139.933 M68.944 140.635 C 68.648 141.206,68.466 141.733,68.539 141.805 C 68.612 141.878,68.923 141.411,69.230 140.768 C 69.920 139.320,69.681 139.210,68.944 140.635 M219.655 140.268 C 219.779 140.730,220.020 141.334,220.191 141.611 C 220.407 141.961,220.433 141.858,220.277 141.275 C 220.154 140.814,219.913 140.210,219.742 139.933 C 219.526 139.583,219.499 139.685,219.655 140.268 M257.870 140.635 C 257.575 141.206,257.393 141.733,257.465 141.805 C 257.538 141.878,257.849 141.411,258.156 140.768 C 258.846 139.320,258.607 139.210,257.870 140.635 M281.711 139.811 C 281.896 139.973,282.575 140.558,283.220 141.110 L 284.394 142.114 283.556 141.160 C 283.095 140.636,282.416 140.051,282.047 139.861 C 281.678 139.671,281.527 139.648,281.711 139.811 M294.193 140.768 C 294.500 141.411,294.811 141.878,294.884 141.805 C 295.037 141.652,294.018 139.597,293.789 139.597 C 293.704 139.597,293.886 140.124,294.193 140.768 M143.498 142.275 C 143.198 143.024,142.960 143.823,142.969 144.050 C 142.977 144.277,143.276 143.717,143.632 142.805 C 143.988 141.893,144.226 141.094,144.161 141.029 C 144.097 140.965,143.798 141.525,143.498 142.275 M186.119 141.359 C 187.326 143.365,188.647 145.302,188.807 145.302 C 188.996 145.302,188.800 144.969,186.979 142.198 C 186.227 141.054,185.520 140.364,186.119 141.359 M332.425 142.275 C 332.125 143.024,331.886 143.823,331.895 144.050 C 331.904 144.277,332.202 143.717,332.558 142.805 C 332.914 141.893,333.152 141.094,333.088 141.029 C 333.023 140.965,332.725 141.525,332.425 142.275 M61.111 142.319 C 60.904 142.912,60.794 143.456,60.866 143.528 C 60.938 143.600,61.165 143.173,61.372 142.580 C 61.579 141.987,61.689 141.443,61.617 141.371 C 61.546 141.300,61.318 141.726,61.111 142.319 M250.037 142.319 C 249.831 142.912,249.720 143.456,249.792 143.528 C 249.864 143.600,250.092 143.173,250.298 142.580 C 250.505 141.987,250.615 141.443,250.544 141.371 C 250.472 141.300,250.244 141.726,250.037 142.319 M197.508 143.205 C 200.224 147.876,200.133 147.820,201.379 145.554 C 201.924 144.562,201.448 144.903,200.751 146.004 L 200.094 147.042 198.528 144.326 C 197.667 142.833,196.876 141.611,196.771 141.611 C 196.666 141.611,196.998 142.328,197.508 143.205 M51.549 143.495 C 51.252 144.367,51.067 145.138,51.138 145.209 C 51.209 145.280,51.510 144.625,51.807 143.753 C 52.104 142.881,52.289 142.110,52.218 142.039 C 52.147 141.968,51.846 142.623,51.549 143.495 M181.261 142.114 C 181.260 142.299,181.463 142.978,181.711 143.624 C 181.960 144.270,182.168 144.572,182.174 144.295 C 182.180 144.018,181.977 143.339,181.724 142.785 C 181.470 142.232,181.262 141.930,181.261 142.114 M240.475 143.495 C 240.178 144.367,239.993 145.138,240.064 145.209 C 240.135 145.280,240.436 144.625,240.733 143.753 C 241.030 142.881,241.215 142.110,241.144 142.039 C 241.073 141.968,240.772 142.623,240.475 143.495 M202.813 142.701 C 201.657 144.661,201.582 144.828,202.170 144.128 C 202.852 143.315,203.440 142.282,203.220 142.282 C 203.132 142.282,202.948 142.471,202.813 142.701 M267.110 143.372 C 266.745 143.972,266.445 144.602,266.444 144.771 C 266.443 145.153,266.490 145.090,267.378 143.540 C 268.260 141.999,268.034 141.857,267.110 143.372 M284.778 143.121 C 285.554 144.446,285.570 144.465,285.570 144.053 C 285.570 143.858,285.259 143.342,284.879 142.906 L 284.188 142.114 284.778 143.121 M41.488 143.289 C 41.601 143.750,41.900 144.581,42.152 145.134 C 42.520 145.943,42.570 145.976,42.405 145.302 C 42.292 144.841,41.993 144.010,41.740 143.456 C 41.372 142.648,41.323 142.615,41.488 143.289 M230.414 143.289 C 230.527 143.750,230.826 144.581,231.078 145.134 C 231.446 145.943,231.496 145.976,231.331 145.302 C 231.218 144.841,230.919 144.010,230.667 143.456 C 230.299 142.648,230.249 142.615,230.414 143.289 M31.917 143.289 C 31.924 143.565,32.219 144.396,32.574 145.134 C 32.929 145.872,33.126 146.109,33.011 145.659 C 32.696 144.431,31.904 142.713,31.917 143.289 M153.172 143.991 C 152.877 144.562,152.695 145.088,152.767 145.161 C 152.840 145.234,153.151 144.767,153.458 144.123 C 154.148 142.676,153.909 142.565,153.172 143.991 M256.361 144.734 C 255.857 146.984,256.068 153.575,256.675 154.533 C 257.096 155.199,257.097 155.199,256.861 154.530 C 256.413 153.258,256.289 146.790,256.678 144.977 C 256.888 143.995,256.996 143.125,256.916 143.046 C 256.836 142.966,256.587 143.726,256.361 144.734 M295.565 143.960 C 295.879 145.493,295.875 152.519,295.559 154.027 C 295.348 155.036,295.371 155.107,295.721 154.530 C 296.372 153.459,296.453 146.126,295.835 144.295 C 295.447 143.148,295.382 143.067,295.565 143.960 M342.098 143.991 C 341.803 144.562,341.621 145.088,341.694 145.161 C 341.766 145.234,342.077 144.767,342.384 144.123 C 343.074 142.676,342.835 142.565,342.098 143.991 M67.438 145.190 C 66.973 147.430,67.169 153.079,67.756 154.362 L 68.140 155.201 67.951 154.362 C 67.514 152.424,67.397 147.356,67.746 145.497 C 68.232 142.909,67.966 142.645,67.438 145.190 M171.868 144.648 C 172.065 145.211,172.288 145.610,172.364 145.533 C 172.530 145.367,171.897 143.624,171.670 143.624 C 171.583 143.624,171.672 144.085,171.868 144.648 M211.838 144.044 C 211.182 144.892,210.959 145.413,211.356 145.167 C 211.753 144.922,212.548 143.624,212.301 143.624 C 212.225 143.624,212.017 143.813,211.838 144.044 M360.776 144.547 C 361.156 145.686,361.409 145.947,361.409 145.198 C 361.409 144.957,361.185 144.466,360.911 144.108 C 360.454 143.512,360.443 143.549,360.776 144.547 M106.912 145.134 C 107.657 150.826,107.694 151.009,107.506 148.027 C 107.409 146.481,107.196 144.895,107.033 144.504 C 106.820 143.993,106.786 144.172,106.912 145.134 M221.333 144.631 C 221.457 145.092,221.698 145.696,221.869 145.973 C 222.085 146.323,222.111 146.221,221.955 145.638 C 221.832 145.176,221.591 144.572,221.420 144.295 C 221.204 143.945,221.177 144.048,221.333 144.631 M97.242 146.309 C 97.541 148.210,97.542 149.713,97.249 151.846 C 97.058 153.228,97.083 153.376,97.389 152.685 C 97.865 151.612,97.853 146.737,97.372 145.638 C 97.067 144.942,97.045 145.057,97.242 146.309 M286.074 149.161 C 286.074 151.270,286.176 152.736,286.302 152.420 C 286.427 152.104,286.530 150.638,286.530 149.161 C 286.530 147.685,286.427 146.218,286.302 145.902 C 286.176 145.586,286.074 147.052,286.074 149.161 M59.284 147.036 C 58.980 147.809,58.787 148.496,58.854 148.563 C 58.921 148.631,59.228 148.056,59.536 147.287 C 59.843 146.519,60.037 145.831,59.966 145.760 C 59.894 145.689,59.588 146.263,59.284 147.036 M77.057 146.393 C 76.798 147.361,76.846 151.275,77.131 152.286 C 77.251 152.713,77.349 151.392,77.349 149.350 C 77.349 145.292,77.350 145.300,77.057 146.393 M210.531 146.057 C 209.376 148.017,209.300 148.184,209.889 147.483 C 210.570 146.671,211.158 145.638,210.938 145.638 C 210.850 145.638,210.667 145.826,210.531 146.057 M248.359 146.682 C 248.153 147.275,248.042 147.819,248.114 147.890 C 248.186 147.962,248.414 147.536,248.620 146.943 C 248.827 146.350,248.938 145.806,248.866 145.734 C 248.794 145.662,248.566 146.089,248.359 146.682 M265.697 147.819 C 265.500 149.315,265.779 152.468,266.140 152.829 C 266.274 152.963,266.162 148.160,265.999 146.812 C 265.955 146.443,265.819 146.896,265.697 147.819 M33.260 146.812 C 33.266 146.997,33.562 147.752,33.917 148.490 C 34.272 149.228,34.468 149.455,34.353 148.993 C 34.117 148.043,33.242 146.299,33.260 146.812 M49.871 148.193 C 49.574 149.065,49.389 149.836,49.460 149.907 C 49.531 149.978,49.832 149.323,50.129 148.451 C 50.426 147.579,50.611 146.808,50.540 146.737 C 50.469 146.666,50.168 147.321,49.871 148.193 M238.797 148.193 C 238.500 149.065,238.315 149.836,238.386 149.907 C 238.457 149.978,238.758 149.323,239.055 148.451 C 239.352 147.579,239.537 146.808,239.466 146.737 C 239.395 146.666,239.094 147.321,238.797 148.193 M142.392 149.161 C 142.393 150.453,142.454 150.940,142.527 150.244 C 142.599 149.548,142.598 148.491,142.524 147.895 C 142.450 147.299,142.391 147.869,142.392 149.161 M152.117 149.161 C 152.119 150.268,152.182 150.681,152.257 150.078 C 152.331 149.475,152.330 148.569,152.253 148.064 C 152.177 147.560,152.116 148.054,152.117 149.161 M222.676 147.987 C 222.799 148.448,223.040 149.052,223.211 149.329 C 223.427 149.679,223.454 149.576,223.298 148.993 C 223.174 148.532,222.933 147.928,222.762 147.651 C 222.546 147.301,222.520 147.404,222.676 147.987 M232.092 147.987 C 232.205 148.448,232.504 149.279,232.756 149.832 C 233.124 150.641,233.174 150.674,233.009 150.000 C 232.896 149.539,232.597 148.708,232.345 148.154 C 231.976 147.346,231.927 147.313,232.092 147.987 M331.312 149.161 C 331.314 150.268,331.377 150.681,331.451 150.078 C 331.526 149.475,331.524 148.569,331.448 148.064 C 331.371 147.560,331.310 148.054,331.312 149.161 M341.044 149.161 C 341.045 150.268,341.108 150.681,341.183 150.078 C 341.257 149.475,341.256 148.569,341.179 148.064 C 341.103 147.560,341.042 148.054,341.044 149.161 M190.561 148.154 C 190.742 148.523,191.136 149.128,191.437 149.497 L 191.983 150.168 191.654 149.497 C 191.473 149.128,191.078 148.523,190.778 148.154 L 190.231 147.483 190.561 148.154 M371.561 149.161 C 371.565 149.899,371.634 150.162,371.714 149.744 C 371.794 149.327,371.791 148.723,371.707 148.402 C 371.623 148.081,371.557 148.423,371.561 149.161 M43.341 148.490 C 43.340 148.674,43.543 149.354,43.792 150.000 C 44.041 150.646,44.249 150.948,44.255 150.671 C 44.260 150.394,44.058 149.715,43.804 149.161 C 43.551 148.607,43.342 148.305,43.341 148.490 M182.628 149.329 C 182.628 149.975,182.697 150.239,182.782 149.916 C 182.866 149.593,182.866 149.065,182.782 148.742 C 182.697 148.419,182.628 148.683,182.628 149.329 M361.823 149.329 C 361.823 149.975,361.892 150.239,361.976 149.916 C 362.061 149.593,362.061 149.065,361.976 148.742 C 361.892 148.419,361.823 148.683,361.823 149.329 M246.532 151.398 C 246.229 152.171,246.035 152.859,246.103 152.926 C 246.170 152.993,246.476 152.419,246.784 151.650 C 247.092 150.881,247.285 150.194,247.214 150.122 C 247.143 150.051,246.836 150.625,246.532 151.398 M107.097 151.848 C 107.070 152.403,106.899 153.374,106.717 154.007 C 106.536 154.639,106.450 155.220,106.527 155.297 C 106.796 155.565,107.421 152.626,107.285 151.736 C 107.152 150.867,107.146 150.870,107.097 151.848 M48.356 152.550 C 48.119 153.205,47.999 153.816,48.090 153.907 C 48.181 153.997,48.436 153.523,48.658 152.852 C 49.182 151.263,48.917 150.998,48.356 152.550 M172.108 153.011 C 171.830 153.918,171.721 154.587,171.866 154.497 C 172.165 154.312,172.929 151.676,172.739 151.486 C 172.670 151.417,172.386 152.104,172.108 153.011 M360.838 153.460 C 360.375 154.788,360.289 155.299,360.600 154.876 C 361.090 154.212,361.887 151.708,361.676 151.497 C 361.613 151.434,361.236 152.318,360.838 153.460 M35.427 152.349 C 35.551 152.810,35.792 153.414,35.963 153.691 C 36.179 154.041,36.205 153.939,36.049 153.356 C 35.926 152.894,35.685 152.290,35.514 152.013 C 35.298 151.664,35.271 151.766,35.427 152.349 M224.353 152.349 C 224.477 152.810,224.718 153.414,224.889 153.691 C 225.105 154.041,225.131 153.939,224.975 153.356 C 224.852 152.894,224.611 152.290,224.440 152.013 C 224.224 151.664,224.197 151.766,224.353 152.349 M44.823 153.020 C 44.947 153.482,45.188 154.086,45.359 154.362 C 45.575 154.712,45.601 154.610,45.445 154.027 C 45.322 153.565,45.081 152.961,44.910 152.685 C 44.694 152.335,44.667 152.437,44.823 153.020 M233.749 153.020 C 233.873 153.482,234.114 154.086,234.285 154.362 C 234.501 154.712,234.527 154.610,234.371 154.027 C 234.248 153.565,234.007 152.961,233.836 152.685 C 233.620 152.335,233.593 152.437,233.749 153.020 M152.685 153.149 C 152.685 153.509,153.683 155.369,153.876 155.369 C 153.969 155.369,153.794 154.878,153.489 154.279 C 152.867 153.054,152.685 152.798,152.685 153.149 M341.611 153.149 C 341.611 153.509,342.609 155.369,342.802 155.369 C 342.895 155.369,342.721 154.878,342.416 154.279 C 341.793 153.054,341.611 152.798,341.611 153.149 M56.236 154.726 C 55.928 155.495,55.740 156.187,55.816 156.264 C 55.893 156.341,56.208 155.775,56.516 155.006 C 56.823 154.237,57.012 153.545,56.935 153.468 C 56.858 153.391,56.544 153.957,56.236 154.726 M245.190 154.754 C 244.887 155.527,244.693 156.214,244.760 156.282 C 244.827 156.349,245.134 155.775,245.442 155.006 C 245.750 154.237,245.943 153.549,245.872 153.478 C 245.801 153.407,245.494 153.981,245.190 154.754 M181.611 154.933 C 181.114 156.551,181.354 156.791,181.879 155.201 C 182.101 154.531,182.216 153.917,182.137 153.837 C 182.057 153.757,181.820 154.250,181.611 154.933 M193.046 154.111 C 192.390 154.959,192.167 155.480,192.564 155.235 C 192.961 154.989,193.756 153.691,193.509 153.691 C 193.433 153.691,193.225 153.880,193.046 154.111 M370.362 155.487 C 369.190 159.205,365.748 163.274,361.918 165.471 C 360.992 166.002,360.400 166.438,360.602 166.440 C 363.217 166.462,370.142 158.670,370.964 154.782 C 371.318 153.105,370.992 153.487,370.362 155.487 M142.969 154.272 C 142.949 154.788,144.001 157.453,144.161 157.293 C 144.226 157.228,143.988 156.429,143.632 155.517 C 143.276 154.605,142.977 154.045,142.969 154.272 M284.969 154.846 C 284.763 155.299,284.027 156.319,283.333 157.113 C 282.175 158.438,282.162 158.474,283.173 157.550 C 284.337 156.487,285.751 154.432,285.495 154.176 C 285.412 154.092,285.175 154.394,284.969 154.846 M331.895 154.272 C 331.875 154.788,332.927 157.453,333.088 157.293 C 333.152 157.228,332.914 156.429,332.558 155.517 C 332.202 154.605,331.904 154.045,331.895 154.272 M94.997 156.423 C 94.367 157.181,93.167 158.235,92.330 158.766 C 91.493 159.297,90.955 159.732,91.135 159.732 C 91.900 159.732,95.358 156.816,96.012 155.621 C 96.507 154.714,96.243 154.923,94.997 156.423 M47.128 156.168 C 47.006 156.652,46.772 157.047,46.608 157.047 C 46.443 157.047,46.309 157.198,46.309 157.383 C 46.309 157.567,46.445 157.718,46.611 157.718 C 46.948 157.718,47.743 155.685,47.501 155.443 C 47.417 155.359,47.249 155.685,47.128 156.168 M154.379 156.207 C 155.127 157.237,155.423 157.513,157.013 158.663 C 157.826 159.251,158.656 159.731,158.859 159.730 C 159.062 159.730,158.700 159.413,158.054 159.027 C 157.408 158.641,156.207 157.697,155.386 156.931 C 154.565 156.164,154.112 155.838,154.379 156.207 M344.128 156.984 C 345.580 158.550,346.996 159.527,348.322 159.876 C 348.784 159.998,348.423 159.724,347.522 159.269 C 346.620 158.813,345.186 157.787,344.334 156.989 L 342.786 155.537 344.128 156.984 M358.409 157.195 C 357.604 158.015,356.511 158.865,355.979 159.086 C 355.447 159.306,355.078 159.553,355.159 159.634 C 355.533 160.007,357.749 158.416,359.371 156.611 C 360.671 155.162,360.009 155.565,358.409 157.195 M37.105 156.711 C 37.229 157.173,37.469 157.777,37.641 158.054 C 37.857 158.404,37.883 158.301,37.727 157.718 C 37.604 157.257,37.363 156.653,37.192 156.376 C 36.976 156.026,36.949 156.128,37.105 156.711 M208.233 156.376 C 208.767 157.344,213.178 163.929,213.516 164.262 C 214.046 164.783,213.540 163.950,210.969 160.067 C 208.850 156.866,207.496 155.039,208.233 156.376 M226.031 156.711 C 226.155 157.173,226.396 157.777,226.567 158.054 C 226.783 158.404,226.809 158.301,226.653 157.718 C 226.530 157.257,226.289 156.653,226.118 156.376 C 225.902 156.026,225.875 156.128,226.031 156.711 M235.654 156.899 C 235.160 157.435,235.119 157.718,235.535 157.718 C 235.821 157.718,236.357 156.708,236.166 156.529 C 236.115 156.482,235.885 156.648,235.654 156.899 M257.392 156.544 C 257.387 157.106,259.292 160.237,259.952 160.749 C 260.545 161.210,260.547 161.202,259.989 160.544 C 259.668 160.167,258.954 159.037,258.401 158.033 C 257.847 157.029,257.393 156.359,257.392 156.544 M294.193 157.555 C 293.886 158.198,293.704 158.725,293.789 158.725 C 294.018 158.725,295.037 156.670,294.884 156.517 C 294.811 156.444,294.500 156.911,294.193 157.555 M79.866 156.921 C 79.866 157.444,82.971 159.694,83.725 159.718 C 83.909 159.724,83.532 159.412,82.886 159.025 C 82.240 158.638,81.296 157.930,80.789 157.453 C 80.281 156.976,79.866 156.737,79.866 156.921 M180.193 158.323 C 179.738 159.190,178.260 161.012,176.908 162.371 C 175.557 163.731,174.901 164.523,175.451 164.131 C 177.450 162.708,181.647 157.374,181.155 156.882 C 181.081 156.808,180.648 157.456,180.193 158.323 M68.792 157.204 C 68.792 157.659,70.783 160.641,71.411 161.126 C 71.942 161.536,71.943 161.521,71.429 160.900 C 71.126 160.534,70.409 159.488,69.835 158.575 C 69.261 157.662,68.792 157.045,68.792 157.204 M168.767 157.943 L 167.953 158.839 168.865 158.195 C 169.367 157.840,169.782 157.437,169.788 157.299 C 169.805 156.885,169.621 157.001,168.767 157.943 M54.572 159.053 C 53.815 160.946,53.932 161.227,54.729 159.431 C 55.089 158.620,55.323 157.896,55.250 157.823 C 55.177 157.750,54.872 158.304,54.572 159.053 M243.498 159.053 C 242.741 160.946,242.858 161.227,243.655 159.431 C 244.015 158.620,244.250 157.896,244.177 157.823 C 244.104 157.750,243.798 158.304,243.498 159.053 M270.470 158.554 C 270.470 158.783,272.524 159.802,272.678 159.649 C 272.751 159.576,272.284 159.265,271.640 158.958 C 270.996 158.651,270.470 158.469,270.470 158.554 M280.789 158.917 C 279.534 159.597,279.610 159.881,280.872 159.228 C 281.426 158.942,281.879 158.636,281.879 158.548 C 281.879 158.332,281.843 158.345,280.789 158.917 M103.837 160.098 C 103.314 160.854,102.048 162.230,101.023 163.157 C 99.999 164.084,99.639 164.522,100.222 164.131 C 101.350 163.375,104.179 160.366,104.729 159.339 C 105.302 158.268,104.824 158.675,103.837 160.098 M199.468 159.462 C 198.311 161.422,198.227 161.607,198.813 160.906 C 199.122 160.537,199.515 160.008,199.687 159.732 C 200.020 159.195,200.027 159.200,201.276 160.961 C 201.516 161.300,201.439 161.061,201.105 160.430 C 200.425 159.146,199.854 158.809,199.468 159.462 M292.616 160.151 C 292.122 160.826,292.041 161.060,292.404 160.766 C 292.954 160.319,293.786 159.060,293.531 159.060 C 293.467 159.060,293.056 159.551,292.616 160.151 M38.293 159.899 C 38.300 160.084,38.595 160.839,38.950 161.577 C 39.305 162.315,39.502 162.542,39.387 162.081 C 39.150 161.130,38.276 159.386,38.293 159.899 M86.661 160.307 C 87.169 160.384,87.999 160.384,88.507 160.307 C 89.014 160.231,88.599 160.168,87.584 160.168 C 86.569 160.168,86.154 160.231,86.661 160.307 M161.829 160.307 C 162.336 160.384,163.167 160.384,163.674 160.307 C 164.182 160.231,163.767 160.168,162.752 160.168 C 161.737 160.168,161.321 160.231,161.829 160.307 M275.252 160.307 C 275.759 160.384,276.590 160.384,277.097 160.307 C 277.605 160.231,277.190 160.168,276.174 160.168 C 275.159 160.168,274.744 160.231,275.252 160.307 M350.760 160.308 C 351.270 160.385,352.025 160.383,352.437 160.303 C 352.850 160.224,352.433 160.161,351.510 160.163 C 350.587 160.166,350.250 160.231,350.760 160.308 M147.819 162.416 C 148.915 163.523,149.887 164.430,149.979 164.430 C 150.071 164.430,149.250 163.523,148.154 162.416 C 147.059 161.309,146.086 160.403,145.994 160.403 C 145.902 160.403,146.723 161.309,147.819 162.416 M227.709 161.074 C 227.833 161.535,228.073 162.139,228.245 162.416 C 228.461 162.766,228.487 162.664,228.331 162.081 C 228.208 161.619,227.967 161.015,227.796 160.738 C 227.580 160.388,227.553 160.491,227.709 161.074 M335.889 161.577 C 338.103 164.163,343.288 167.504,344.966 167.426 C 345.243 167.413,344.937 167.206,344.286 166.966 C 341.613 165.981,339.469 164.634,337.169 162.495 C 335.729 161.155,335.207 160.781,335.889 161.577 M188.348 161.158 C 187.692 162.006,187.469 162.527,187.866 162.281 C 188.263 162.036,189.058 160.738,188.811 160.738 C 188.735 160.738,188.527 160.927,188.348 161.158 M53.230 162.409 C 52.473 164.302,52.589 164.583,53.386 162.787 C 53.746 161.975,53.981 161.252,53.908 161.179 C 53.835 161.106,53.530 161.659,53.230 162.409 M261.242 162.387 C 262.196 163.427,264.094 164.956,264.094 164.684 C 264.094 164.615,263.226 163.822,262.164 162.923 C 260.925 161.874,260.595 161.682,261.242 162.387 M197.744 162.164 C 197.088 163.012,196.865 163.534,197.262 163.288 C 197.659 163.043,198.454 161.745,198.207 161.745 C 198.131 161.745,197.923 161.934,197.744 162.164 M202.181 162.752 C 202.468 163.305,202.777 163.758,202.870 163.758 C 202.962 163.758,202.803 163.305,202.517 162.752 C 202.230 162.198,201.921 161.745,201.828 161.745 C 201.736 161.745,201.895 162.198,202.181 162.752 M186.689 163.674 C 186.373 164.182,185.954 164.824,185.758 165.101 C 185.465 165.516,185.491 165.535,185.906 165.210 C 186.462 164.775,187.727 162.752,187.443 162.752 C 187.344 162.752,187.005 163.167,186.689 163.674 M241.667 163.741 C 241.471 164.304,241.381 164.765,241.469 164.765 C 241.695 164.765,242.328 163.022,242.162 162.856 C 242.086 162.780,241.863 163.178,241.667 163.741 M39.765 163.674 C 39.896 163.997,40.231 164.912,40.509 165.706 C 40.788 166.501,41.079 167.087,41.157 167.009 C 41.335 166.830,39.949 163.087,39.705 163.087 C 39.606 163.087,39.633 163.352,39.765 163.674 M288.387 164.228 C 287.630 164.800,286.724 165.463,286.374 165.700 C 286.024 165.938,286.342 165.815,287.081 165.427 C 288.535 164.664,290.108 163.473,289.897 163.296 C 289.824 163.236,289.145 163.655,288.387 164.228 M195.793 165.185 C 195.276 165.969,195.067 166.434,195.329 166.217 C 195.833 165.801,197.118 163.758,196.876 163.758 C 196.797 163.758,196.310 164.400,195.793 165.185 M229.051 164.430 C 229.175 164.891,229.416 165.495,229.587 165.772 C 229.803 166.122,229.829 166.019,229.673 165.436 C 229.550 164.975,229.309 164.371,229.138 164.094 C 228.922 163.744,228.895 163.846,229.051 164.430 M203.482 164.933 C 203.753 165.487,204.221 166.242,204.521 166.611 C 205.031 167.238,205.034 167.217,204.572 166.275 C 204.300 165.721,203.833 164.966,203.533 164.597 C 203.023 163.970,203.020 163.991,203.482 164.933 M75.337 164.767 C 75.561 165.131,77.517 166.220,77.517 165.981 C 77.517 165.903,76.979 165.521,76.322 165.133 C 75.665 164.746,75.222 164.581,75.337 164.767 M150.839 164.940 C 151.715 165.683,155.393 167.451,156.040 167.441 C 156.317 167.437,155.697 167.085,154.662 166.660 C 153.627 166.234,152.192 165.545,151.474 165.129 C 150.756 164.712,150.470 164.628,150.839 164.940 M97.903 165.293 C 96.648 165.973,96.725 166.257,97.987 165.604 C 98.540 165.318,98.993 165.012,98.993 164.924 C 98.993 164.708,98.957 164.721,97.903 165.293 M172.987 165.436 C 172.433 165.803,172.152 166.104,172.362 166.105 C 172.729 166.107,174.506 164.797,174.161 164.778 C 174.069 164.774,173.540 165.070,172.987 165.436 M264.430 164.916 C 264.430 165.008,264.883 165.318,265.436 165.604 C 265.990 165.890,266.443 166.049,266.443 165.957 C 266.443 165.865,265.990 165.555,265.436 165.268 C 264.883 164.982,264.430 164.823,264.430 164.916 M184.694 166.621 C 184.388 167.088,184.203 167.537,184.284 167.618 C 184.365 167.698,184.696 167.316,185.020 166.768 C 185.736 165.555,185.471 165.435,184.694 166.621 M214.979 166.611 C 215.755 167.936,215.772 167.955,215.772 167.543 C 215.772 167.348,215.461 166.832,215.081 166.396 L 214.390 165.604 214.979 166.611 M51.404 166.945 C 51.193 167.407,51.151 167.785,51.310 167.785 C 51.589 167.785,52.091 166.409,51.887 166.205 C 51.832 166.150,51.615 166.483,51.404 166.945 M240.330 166.945 C 240.120 167.407,240.077 167.785,240.237 167.785 C 240.515 167.785,241.017 166.409,240.813 166.205 C 240.758 166.150,240.541 166.483,240.330 166.945 M79.362 166.958 C 79.916 167.212,80.596 167.415,80.872 167.409 C 81.149 167.403,80.847 167.195,80.201 166.946 C 78.669 166.356,78.066 166.365,79.362 166.958 M94.463 166.958 C 93.624 167.362,93.596 167.409,94.295 167.238 C 95.246 167.006,96.315 166.461,95.805 166.468 C 95.621 166.471,95.017 166.691,94.463 166.958 M169.631 166.958 C 168.792 167.362,168.764 167.409,169.463 167.238 C 170.414 167.006,171.483 166.461,170.973 166.468 C 170.789 166.471,170.185 166.691,169.631 166.958 M267.785 166.722 C 268.062 166.893,268.666 167.134,269.128 167.257 C 269.711 167.413,269.813 167.387,269.463 167.171 C 269.186 167.000,268.582 166.759,268.121 166.635 C 267.538 166.479,267.435 166.506,267.785 166.722 M283.221 166.946 C 282.576 167.195,282.273 167.403,282.550 167.409 C 282.827 167.415,283.507 167.212,284.060 166.958 C 285.356 166.365,284.754 166.356,283.221 166.946 M358.557 166.963 L 357.550 167.453 358.557 167.260 C 359.111 167.154,359.707 166.926,359.883 166.755 C 360.354 166.294,359.731 166.392,358.557 166.963 M351.678 168.121 L 349.161 168.335 351.510 168.356 C 352.802 168.368,354.312 168.262,354.866 168.121 C 356.118 167.802,355.414 167.802,351.678 168.121 M86.164 168.364 C 86.767 168.439,87.673 168.437,88.177 168.361 C 88.681 168.284,88.188 168.223,87.081 168.225 C 85.973 168.227,85.561 168.289,86.164 168.364 M161.665 168.358 C 162.082 168.438,162.686 168.435,163.007 168.351 C 163.328 168.267,162.987 168.202,162.248 168.205 C 161.510 168.209,161.248 168.278,161.665 168.358 M275.425 168.364 C 276.029 168.439,276.935 168.437,277.439 168.361 C 277.943 168.284,277.450 168.223,276.342 168.225 C 275.235 168.227,274.822 168.289,275.425 168.364 M183.977 268.037 C 192.789 268.087,207.211 268.087,216.023 268.037 C 224.836 267.987,217.626 267.946,200.000 267.946 C 182.374 267.946,175.164 267.987,183.977 268.037 M192.946 279.195 L 192.785 283.725 188.423 283.893 L 184.060 284.060 183.968 289.671 L 183.876 295.282 188.331 295.376 L 192.785 295.470 192.953 300.000 L 193.121 304.530 199.789 304.621 C 207.999 304.734,207.383 305.138,207.383 299.633 L 207.383 295.321 211.661 295.213 L 215.940 295.105 211.577 295.120 L 207.215 295.134 207.047 299.664 L 206.879 304.195 200.084 304.285 L 193.289 304.376 193.289 300.074 C 193.289 294.705,193.541 294.966,188.356 294.966 L 184.228 294.966 184.228 289.597 L 184.228 284.228 188.584 284.228 C 193.754 284.228,193.366 284.693,193.211 278.691 L 193.108 274.664 192.946 279.195 M207.047 279.477 L 207.215 284.060 211.662 284.228 C 214.108 284.320,216.108 284.283,216.108 284.144 C 216.108 284.006,214.144 283.893,211.745 283.893 L 207.383 283.893 207.383 279.550 C 207.383 277.162,207.269 275.137,207.131 275.051 C 206.992 274.965,206.955 276.957,207.047 279.477 M171.393 282.465 C 173.284 282.525,176.380 282.525,178.272 282.465 C 180.164 282.405,178.616 282.356,174.832 282.356 C 171.049 282.356,169.501 282.405,171.393 282.465 M218.456 289.597 L 218.456 296.980 219.547 296.930 C 220.562 296.883,220.574 296.870,219.715 296.740 L 218.792 296.600 218.792 289.582 L 218.792 282.565 225.419 282.466 L 232.047 282.368 225.252 282.291 L 218.456 282.215 218.456 289.597 M181.620 289.674 L 181.544 296.630 174.748 296.729 L 167.953 296.827 174.759 296.903 C 180.030 296.963,181.602 296.883,181.729 296.551 C 181.820 296.315,181.849 293.106,181.795 289.420 L 181.696 282.718 181.620 289.674 M187.001 287.154 C 187.511 287.231,188.266 287.229,188.679 287.149 C 189.092 287.069,188.674 287.006,187.752 287.009 C 186.829 287.011,186.491 287.076,187.001 287.154 M191.163 287.136 C 191.040 287.260,190.942 287.524,190.945 287.724 C 190.948 287.953,191.044 287.939,191.205 287.686 C 191.345 287.465,192.438 287.230,193.633 287.163 L 195.805 287.042 193.596 286.977 C 192.381 286.942,191.286 287.013,191.163 287.136 M197.534 287.164 C 197.448 287.303,198.597 287.416,200.086 287.416 C 201.954 287.416,202.838 287.546,202.935 287.836 C 203.035 288.134,202.590 288.255,201.390 288.255 C 199.119 288.255,198.843 288.863,201.055 288.992 C 203.593 289.140,203.642 289.917,201.119 289.988 L 199.161 290.042 201.007 290.239 C 202.407 290.389,202.843 290.564,202.815 290.968 C 202.795 291.260,202.973 291.499,203.211 291.499 C 203.524 291.499,203.620 290.963,203.557 289.555 C 203.494 288.131,203.597 287.563,203.944 287.430 C 204.740 287.124,204.968 287.211,206.196 288.290 C 207.163 289.138,207.383 289.221,207.383 288.737 C 207.383 288.410,207.286 288.240,207.168 288.358 C 207.050 288.475,206.510 288.199,205.968 287.742 C 204.872 286.820,204.601 286.761,203.690 287.249 C 203.269 287.474,202.992 287.474,202.853 287.249 C 202.614 286.862,197.770 286.785,197.534 287.164 M207.340 287.500 C 206.923 288.031,206.935 288.044,207.462 287.630 C 207.783 287.379,208.281 287.264,208.570 287.375 C 208.872 287.491,209.008 287.435,208.890 287.244 C 208.573 286.732,207.849 286.851,207.340 287.500 M211.498 287.154 C 212.008 287.231,212.763 287.229,213.176 287.149 C 213.588 287.069,213.171 287.006,212.248 287.009 C 211.326 287.011,210.988 287.076,211.498 287.154 M185.038 287.708 C 184.941 287.960,184.917 288.980,184.986 289.973 L 185.111 291.779 185.173 289.709 C 185.212 288.419,185.393 287.576,185.654 287.471 C 185.983 287.338,185.981 287.296,185.644 287.275 C 185.407 287.260,185.134 287.455,185.038 287.708 M196.374 287.600 C 196.816 287.858,196.923 288.329,196.853 289.715 C 196.792 290.932,196.892 291.499,197.168 291.499 C 197.451 291.499,197.491 291.218,197.304 290.563 C 197.156 290.048,197.116 289.317,197.215 288.939 C 197.406 288.208,196.813 287.242,196.184 287.259 C 195.976 287.264,196.061 287.418,196.374 287.600 M209.472 287.668 C 209.008 288.236,208.801 291.500,209.228 291.498 C 209.413 291.497,209.571 290.682,209.580 289.686 C 209.592 288.483,209.761 287.771,210.084 287.566 C 210.351 287.397,210.400 287.256,210.192 287.253 C 209.984 287.251,209.660 287.437,209.472 287.668 M187.836 288.497 C 188.840 288.681,188.795 289.171,187.752 289.407 C 186.973 289.584,186.979 289.591,187.836 289.513 C 189.022 289.406,189.095 288.436,187.919 288.390 C 187.190 288.362,187.179 288.376,187.836 288.497 M190.578 289.794 C 190.492 290.832,190.571 291.500,190.782 291.499 C 190.976 291.499,191.078 290.971,191.014 290.296 C 190.813 288.158,190.723 288.055,190.578 289.794 M193.121 288.591 C 192.596 289.440,193.945 289.927,194.966 289.257 C 195.414 288.963,195.414 288.889,194.966 288.596 C 194.313 288.167,193.384 288.164,193.121 288.591 M211.412 288.575 C 211.041 288.815,211.009 288.996,211.290 289.276 C 211.812 289.798,213.255 289.541,213.255 288.926 C 213.255 288.330,212.124 288.115,211.412 288.575 M215.159 289.665 C 215.118 290.769,214.925 291.344,214.513 291.584 C 214.190 291.772,214.096 291.930,214.305 291.936 C 215.049 291.956,215.476 290.975,215.348 289.538 L 215.218 288.087 215.159 289.665 M194.631 288.926 C 194.631 289.111,194.329 289.262,193.960 289.262 C 193.591 289.262,193.289 289.111,193.289 288.926 C 193.289 288.742,193.591 288.591,193.960 288.591 C 194.329 288.591,194.631 288.742,194.631 288.926 M213.087 288.926 C 213.087 289.111,212.785 289.262,212.416 289.262 C 212.047 289.262,211.745 289.111,211.745 288.926 C 211.745 288.742,212.047 288.591,212.416 288.591 C 212.785 288.591,213.087 288.742,213.087 288.926 M204.962 290.604 C 204.881 291.158,204.939 291.611,205.092 291.611 C 205.244 291.611,205.369 291.215,205.369 290.731 C 205.369 289.941,205.429 289.898,205.956 290.311 C 206.489 290.729,206.500 290.717,206.083 290.185 C 205.424 289.345,205.131 289.455,204.962 290.604 M186.693 290.786 C 186.584 291.071,186.588 291.398,186.704 291.513 C 186.819 291.628,186.913 291.454,186.913 291.125 C 186.913 290.652,187.123 290.559,187.919 290.676 C 188.473 290.757,188.926 290.699,188.926 290.546 C 188.926 290.032,186.899 290.250,186.693 290.786 M193.939 290.456 C 194.481 290.559,194.994 290.864,195.079 291.134 C 195.178 291.446,195.215 291.408,195.181 291.030 C 195.145 290.615,194.802 290.411,194.041 290.352 C 193.003 290.272,192.998 290.277,193.939 290.456 M211.190 290.786 C 211.080 291.071,211.085 291.398,211.200 291.513 C 211.315 291.628,211.409 291.471,211.409 291.163 C 211.409 290.412,212.717 290.432,213.285 291.191 C 213.685 291.725,213.708 291.710,213.535 291.023 C 213.307 290.118,211.516 289.937,211.190 290.786 M223.590 296.894 C 225.214 296.956,227.781 296.956,229.295 296.894 C 230.809 296.832,229.480 296.781,226.342 296.782 C 223.205 296.782,221.966 296.833,223.590 296.894 " stroke="none" fill="#95b8d8" fill-rule="evenodd"></path><path id="path4" d="M86.661 130.097 C 86.984 130.181,87.513 130.181,87.836 130.097 C 88.159 130.013,87.894 129.944,87.248 129.944 C 86.602 129.944,86.338 130.013,86.661 130.097 M161.665 130.103 C 162.082 130.183,162.686 130.180,163.007 130.096 C 163.328 130.012,162.987 129.947,162.248 129.950 C 161.510 129.954,161.248 130.023,161.665 130.103 M275.587 130.097 C 275.910 130.181,276.439 130.181,276.762 130.097 C 277.085 130.013,276.820 129.944,276.174 129.944 C 275.529 129.944,275.264 130.013,275.587 130.097 M30.466 130.450 C 31.627 130.516,33.439 130.515,34.493 130.449 C 35.547 130.383,34.597 130.329,32.383 130.329 C 30.168 130.330,29.305 130.384,30.466 130.450 M61.303 130.452 C 65.152 130.543,65.746 130.631,65.878 131.134 C 65.989 131.557,66.040 131.509,66.068 130.956 C 66.107 130.205,66.087 130.202,61.493 130.275 L 56.879 130.348 61.303 130.452 M108.781 133.977 C 108.839 137.851,108.976 137.398,109.137 132.801 C 109.187 131.370,109.115 130.200,108.977 130.201 C 108.838 130.201,108.750 131.900,108.781 133.977 M215.991 130.453 C 215.906 130.591,218.223 130.705,221.141 130.705 C 224.059 130.705,226.376 130.591,226.290 130.453 C 226.205 130.315,223.888 130.201,221.141 130.201 C 218.394 130.201,216.077 130.315,215.991 130.453 M244.855 130.425 C 244.732 130.548,244.633 130.812,244.636 131.012 C 244.639 131.236,244.741 131.219,244.901 130.968 C 245.074 130.695,246.491 130.524,249.174 130.453 L 253.188 130.346 249.133 130.274 C 246.903 130.234,244.978 130.302,244.855 130.425 M254.090 130.429 C 254.402 130.511,254.724 130.833,254.806 131.145 C 254.912 131.546,254.967 131.491,254.995 130.956 C 255.025 130.375,254.860 130.210,254.279 130.240 C 253.744 130.268,253.689 130.323,254.090 130.429 M80.285 130.774 C 79.870 130.854,79.530 131.052,79.530 131.214 C 79.530 131.376,80.021 131.343,80.621 131.141 C 82.369 130.551,82.230 130.399,80.285 130.774 M155.453 130.774 C 155.038 130.854,154.698 131.052,154.698 131.214 C 154.698 131.376,155.189 131.343,155.789 131.141 C 157.536 130.551,157.398 130.399,155.453 130.774 M269.295 130.776 C 268.926 130.865,268.473 131.091,268.289 131.278 C 268.062 131.508,268.226 131.539,268.792 131.373 C 270.529 130.863,270.936 130.382,269.295 130.776 M282.550 131.040 C 284.082 131.630,284.685 131.622,283.389 131.028 C 282.836 130.775,282.156 130.572,281.879 130.578 C 281.602 130.583,281.904 130.792,282.550 131.040 M344.128 131.028 C 342.832 131.622,343.434 131.630,344.966 131.040 C 345.612 130.792,345.914 130.583,345.638 130.578 C 345.361 130.572,344.681 130.775,344.128 131.028 M55.101 132.450 C 54.604 134.068,54.844 134.308,55.369 132.718 C 55.590 132.047,55.706 131.433,55.627 131.354 C 55.547 131.274,55.310 131.767,55.101 132.450 M243.997 132.588 C 243.790 133.181,243.680 133.725,243.752 133.796 C 243.823 133.868,244.051 133.442,244.258 132.849 C 244.465 132.256,244.575 131.712,244.503 131.640 C 244.432 131.568,244.204 131.995,243.997 132.588 M340.856 132.407 C 339.601 133.087,339.678 133.371,340.940 132.718 C 341.493 132.432,341.946 132.126,341.946 132.038 C 341.946 131.822,341.910 131.835,340.856 132.407 M227.038 132.886 C 227.161 133.347,227.402 133.951,227.573 134.228 C 227.790 134.578,227.816 134.476,227.660 133.893 C 227.537 133.431,227.296 132.827,227.125 132.550 C 226.908 132.201,226.882 132.303,227.038 132.886 M264.765 132.914 L 263.926 133.597 265.017 133.065 C 265.617 132.773,266.107 132.461,266.107 132.374 C 266.107 132.040,265.573 132.255,264.765 132.914 M38.311 133.574 C 38.508 134.137,38.730 134.536,38.807 134.460 C 38.973 134.293,38.340 132.550,38.113 132.550 C 38.026 132.550,38.115 133.011,38.311 133.574 M141.057 135.235 C 141.057 136.804,141.115 137.445,141.185 136.661 C 141.256 135.877,141.256 134.593,141.185 133.809 C 141.115 133.024,141.057 133.666,141.057 135.235 M216.626 133.305 C 216.751 133.721,216.992 134.208,217.161 134.388 C 217.330 134.569,217.298 134.229,217.090 133.633 C 216.665 132.414,216.273 132.137,216.626 133.305 M73.883 134.312 C 73.137 134.912,72.437 135.614,72.328 135.873 C 72.219 136.132,72.851 135.691,73.733 134.893 C 74.614 134.095,75.398 133.393,75.475 133.332 C 75.552 133.271,75.531 133.221,75.428 133.221 C 75.325 133.221,74.630 133.712,73.883 134.312 M287.919 133.314 C 287.919 133.378,288.410 133.790,289.010 134.229 C 289.685 134.723,289.919 134.804,289.625 134.442 C 289.178 133.892,287.919 133.060,287.919 133.314 M147.315 136.074 C 146.500 136.904,145.909 137.584,146.001 137.584 C 146.093 137.584,146.836 136.904,147.651 136.074 C 148.466 135.243,149.058 134.564,148.965 134.564 C 148.873 134.564,148.131 135.243,147.315 136.074 M336.242 136.074 C 335.427 136.904,334.835 137.584,334.927 137.584 C 335.020 137.584,335.762 136.904,336.577 136.074 C 337.392 135.243,337.984 134.564,337.891 134.564 C 337.799 134.564,337.057 135.243,336.242 136.074 M366.429 135.990 C 367.820 137.472,368.121 137.738,368.121 137.486 C 368.121 137.432,367.404 136.715,366.527 135.892 L 364.933 134.396 366.429 135.990 M102.585 136.275 C 103.177 136.977,104.065 138.163,104.559 138.910 C 105.054 139.657,105.522 140.268,105.600 140.268 C 105.949 140.268,104.395 138.059,103.020 136.601 C 102.190 135.719,101.994 135.573,102.585 136.275 M177.517 136.074 C 178.143 136.720,178.731 137.248,178.823 137.248 C 178.915 137.248,178.478 136.720,177.852 136.074 C 177.226 135.428,176.638 134.899,176.546 134.899 C 176.454 134.899,176.891 135.428,177.517 136.074 M53.393 137.286 C 53.186 137.879,53.076 138.423,53.148 138.494 C 53.219 138.566,53.447 138.140,53.654 137.547 C 53.861 136.954,53.971 136.410,53.899 136.338 C 53.828 136.266,53.600 136.693,53.393 137.286 M70.908 137.332 C 70.253 138.055,68.783 140.281,69.192 139.933 C 69.513 139.659,71.817 136.577,71.701 136.577 C 71.642 136.577,71.285 136.917,70.908 137.332 M242.264 137.463 C 242.079 137.950,241.990 138.410,242.066 138.486 C 242.142 138.563,242.365 138.164,242.561 137.601 C 242.998 136.349,242.734 136.227,242.264 137.463 M29.378 137.668 C 29.503 138.083,29.744 138.570,29.913 138.751 C 30.081 138.931,30.050 138.591,29.842 137.996 C 29.417 136.777,29.025 136.500,29.378 137.668 M218.312 137.584 C 218.433 138.045,218.666 138.566,218.830 138.742 C 219.309 139.254,219.162 138.519,218.598 137.584 L 218.093 136.745 218.312 137.584 M39.597 137.310 C 39.597 137.418,39.831 138.015,40.117 138.636 C 40.635 139.761,40.637 139.762,40.429 138.758 C 40.249 137.889,39.597 136.754,39.597 137.310 M108.944 138.339 C 109.030 138.477,111.506 138.591,114.446 138.591 L 119.792 138.591 119.884 153.272 L 119.977 167.953 119.972 153.188 L 119.966 138.423 114.377 138.255 C 111.303 138.163,108.858 138.201,108.944 138.339 M297.944 138.348 C 298.088 138.491,300.610 138.566,303.549 138.515 L 308.893 138.421 303.288 138.254 C 300.205 138.162,297.800 138.204,297.944 138.348 M86.661 138.486 C 86.984 138.571,87.513 138.571,87.836 138.486 C 88.159 138.402,87.894 138.333,87.248 138.333 C 86.602 138.333,86.338 138.402,86.661 138.486 M132.651 138.505 C 134.275 138.567,136.842 138.566,138.355 138.504 C 139.869 138.442,138.540 138.392,135.403 138.392 C 132.265 138.393,131.027 138.443,132.651 138.505 M161.829 138.486 C 162.152 138.571,162.680 138.571,163.003 138.486 C 163.326 138.402,163.062 138.333,162.416 138.333 C 161.770 138.333,161.506 138.402,161.829 138.486 M275.759 138.492 C 276.176 138.573,276.780 138.570,277.101 138.486 C 277.422 138.402,277.081 138.336,276.342 138.340 C 275.604 138.343,275.342 138.412,275.759 138.492 M321.577 138.505 C 323.201 138.567,325.768 138.566,327.282 138.504 C 328.795 138.442,327.466 138.392,324.329 138.392 C 321.191 138.393,319.953 138.443,321.577 138.505 M350.927 138.492 C 351.344 138.573,351.948 138.570,352.269 138.486 C 352.590 138.402,352.248 138.336,351.510 138.340 C 350.772 138.343,350.509 138.412,350.927 138.492 M184.718 138.949 C 184.596 139.145,184.587 139.397,184.698 139.508 C 184.809 139.619,184.899 139.533,184.899 139.318 C 184.899 138.470,195.179 138.805,195.786 139.672 C 196.074 140.082,196.309 140.257,196.309 140.060 C 196.309 138.713,185.503 137.677,184.718 138.949 M207.634 138.840 C 208.972 138.903,211.162 138.903,212.500 138.840 C 213.838 138.776,212.743 138.724,210.067 138.724 C 207.391 138.724,206.296 138.776,207.634 138.840 M258.233 139.459 C 257.920 139.936,257.722 140.384,257.793 140.455 C 257.863 140.526,258.186 140.135,258.510 139.587 C 259.233 138.363,259.017 138.262,258.233 139.459 M293.590 139.094 C 294.156 140.189,294.621 140.795,294.618 140.436 C 294.617 140.252,294.307 139.723,293.930 139.262 C 293.474 138.705,293.360 138.648,293.590 139.094 M166.946 139.651 C 167.685 140.033,168.653 140.668,169.098 141.062 C 169.543 141.456,169.792 141.580,169.651 141.337 C 169.249 140.641,166.734 138.925,166.141 138.941 C 165.846 138.949,166.208 139.269,166.946 139.651 M204.183 140.017 L 203.651 141.107 204.335 140.268 C 204.993 139.461,205.208 138.926,204.874 138.926 C 204.787 138.926,204.476 139.417,204.183 140.017 M271.225 139.594 C 270.101 140.279,269.675 140.880,270.721 140.305 C 271.501 139.877,272.695 138.950,272.483 138.938 C 272.391 138.933,271.825 139.228,271.225 139.594 M279.866 139.041 C 279.866 139.127,280.550 139.599,281.385 140.088 C 282.221 140.578,283.088 141.272,283.312 141.630 C 283.535 141.989,283.861 142.282,284.036 142.282 C 284.589 142.282,282.590 140.414,281.200 139.633 C 280.466 139.221,279.866 138.954,279.866 139.041 M92.274 139.867 C 92.731 140.180,93.637 140.867,94.287 141.392 C 94.938 141.918,94.719 141.654,93.801 140.805 C 92.883 139.956,91.977 139.270,91.788 139.279 C 91.598 139.289,91.817 139.553,92.274 139.867 M62.142 140.435 C 61.932 140.897,61.890 141.275,62.049 141.275 C 62.327 141.275,62.829 139.899,62.625 139.694 C 62.570 139.639,62.353 139.973,62.142 140.435 M80.519 141.191 L 79.362 142.450 80.621 141.293 C 81.792 140.217,82.033 139.933,81.777 139.933 C 81.721 139.933,81.155 140.499,80.519 141.191 M143.776 140.971 C 143.481 141.542,143.299 142.068,143.371 142.141 C 143.444 142.214,143.755 141.747,144.062 141.103 C 144.752 139.656,144.513 139.545,143.776 140.971 M52.051 141.312 C 51.844 141.905,51.734 142.449,51.805 142.521 C 51.877 142.593,52.105 142.166,52.312 141.573 C 52.518 140.980,52.629 140.436,52.557 140.365 C 52.485 140.293,52.257 140.719,52.051 141.312 M155.076 141.771 C 154.315 142.597,153.691 143.378,153.691 143.505 C 153.691 143.632,153.741 143.673,153.802 143.596 C 153.863 143.519,154.561 142.739,155.355 141.862 C 156.148 140.986,156.721 140.268,156.629 140.268 C 156.537 140.268,155.838 140.945,155.076 141.771 M240.940 141.275 C 240.705 141.841,240.592 142.382,240.688 142.478 C 240.784 142.573,241.031 142.166,241.238 141.573 C 241.445 140.980,241.558 140.439,241.490 140.371 C 241.421 140.303,241.174 140.710,240.940 141.275 M344.307 141.359 C 343.716 141.959,343.074 142.752,342.880 143.121 C 342.685 143.490,342.597 143.716,342.683 143.624 C 345.480 140.616,346.661 138.970,344.307 141.359 M358.530 141.611 C 360.289 143.660,360.642 143.982,359.819 142.785 C 359.438 142.232,358.700 141.401,358.180 140.940 C 357.551 140.382,357.669 140.608,358.530 141.611 M268.791 141.444 C 268.358 141.905,268.148 142.282,268.323 142.282 C 268.698 142.282,269.909 140.938,269.712 140.741 C 269.638 140.667,269.223 140.984,268.791 141.444 M370.070 141.107 C 370.240 141.477,370.463 142.005,370.566 142.282 C 370.727 142.717,370.756 142.714,370.779 142.262 C 370.793 141.974,370.571 141.446,370.284 141.088 C 369.770 140.447,369.767 140.447,370.070 141.107 M230.058 141.611 C 230.182 142.072,230.422 142.676,230.594 142.953 C 230.810 143.303,230.836 143.200,230.680 142.617 C 230.557 142.156,230.316 141.552,230.145 141.275 C 229.929 140.925,229.902 141.028,230.058 141.611 M203.106 141.695 C 202.923 141.925,202.594 142.492,202.375 142.953 C 201.911 143.929,202.751 143.028,203.392 141.862 C 203.766 141.183,203.592 141.081,203.106 141.695 M219.822 141.443 C 219.822 141.628,220.038 142.156,220.302 142.617 C 220.566 143.079,220.782 143.305,220.782 143.121 C 220.782 142.936,220.566 142.408,220.302 141.946 C 220.038 141.485,219.822 141.258,219.822 141.443 M284.899 143.960 C 285.276 144.698,285.660 145.302,285.752 145.302 C 285.844 145.302,285.612 144.698,285.235 143.960 C 284.858 143.221,284.475 142.617,284.382 142.617 C 284.290 142.617,284.523 143.221,284.899 143.960 M249.413 144.715 C 249.052 145.701,249.061 145.743,249.507 145.154 C 249.934 144.590,250.186 143.624,249.906 143.624 C 249.854 143.624,249.632 144.115,249.413 144.715 M77.862 144.774 C 77.363 146.085,77.462 146.292,78.060 145.188 C 78.344 144.665,78.493 144.153,78.391 144.051 C 78.290 143.950,78.051 144.275,77.862 144.774 M142.497 144.701 C 142.384 145.124,142.306 145.847,142.323 146.309 C 142.342 146.803,142.475 146.536,142.647 145.659 C 142.956 144.087,142.847 143.395,142.497 144.701 M211.742 144.712 C 210.760 146.188,210.685 146.461,211.532 145.470 C 212.279 144.595,212.615 143.960,212.329 143.960 C 212.281 143.960,212.017 144.298,211.742 144.712 M331.417 144.812 C 331.302 145.112,331.227 145.835,331.250 146.420 C 331.285 147.305,331.334 147.230,331.543 145.973 C 331.810 144.368,331.761 143.916,331.417 144.812 M152.723 145.671 C 152.517 146.261,152.364 146.986,152.382 147.282 C 152.400 147.577,152.625 147.150,152.882 146.333 C 153.419 144.621,153.285 144.060,152.723 145.671 M341.650 145.671 C 341.444 146.261,341.288 147.137,341.304 147.617 C 341.321 148.141,341.510 147.753,341.778 146.644 C 342.281 144.563,342.214 144.052,341.650 145.671 M371.611 148.993 C 371.613 152.164,371.663 152.560,371.896 151.212 C 372.051 150.310,372.051 148.574,371.894 147.353 C 371.626 145.267,371.610 145.365,371.611 148.993 M182.632 146.812 C 182.631 147.550,182.745 148.607,182.886 149.161 C 183.255 150.613,183.268 149.029,182.903 146.980 L 182.634 145.470 182.632 146.812 M43.145 147.315 C 43.269 147.777,43.510 148.381,43.681 148.658 C 43.897 149.008,43.923 148.905,43.767 148.322 C 43.644 147.861,43.403 147.257,43.232 146.980 C 43.016 146.630,42.989 146.732,43.145 147.315 M189.566 147.256 C 189.770 147.637,190.102 148.051,190.304 148.176 C 190.567 148.339,190.566 148.207,190.300 147.710 C 190.096 147.329,189.764 146.915,189.562 146.790 C 189.299 146.628,189.300 146.760,189.566 147.256 M172.543 148.826 C 172.505 149.933,172.396 151.216,172.301 151.678 L 172.129 152.517 172.488 151.694 C 172.686 151.241,172.794 149.958,172.730 148.842 L 172.613 146.812 172.543 148.826 M361.520 149.161 C 361.521 150.453,361.582 150.940,361.654 150.244 C 361.727 149.548,361.726 148.491,361.652 147.895 C 361.577 147.299,361.518 147.869,361.520 149.161 M59.115 148.169 C 58.553 149.403,58.660 149.666,59.268 148.544 C 59.552 148.020,59.721 147.529,59.645 147.452 C 59.568 147.375,59.329 147.698,59.115 148.169 M142.047 148.993 C 142.047 150.008,142.110 150.424,142.187 149.916 C 142.264 149.409,142.264 148.578,142.187 148.070 C 142.110 147.563,142.047 147.978,142.047 148.993 M296.409 148.993 C 296.409 150.008,296.472 150.424,296.549 149.916 C 296.626 149.409,296.626 148.578,296.549 148.070 C 296.472 147.563,296.409 147.978,296.409 148.993 M255.796 148.993 C 255.796 149.824,255.862 150.164,255.942 149.748 C 256.022 149.333,256.022 148.654,255.942 148.238 C 255.862 147.823,255.796 148.163,255.796 148.993 M330.968 149.161 C 330.971 150.084,331.036 150.422,331.113 149.911 C 331.190 149.401,331.188 148.646,331.109 148.234 C 331.029 147.821,330.966 148.238,330.968 149.161 M97.393 148.993 C 97.393 149.639,97.462 149.904,97.547 149.581 C 97.631 149.258,97.631 148.729,97.547 148.406 C 97.462 148.083,97.393 148.347,97.393 148.993 M191.126 149.581 C 191.455 150.088,192.105 151.082,192.570 151.790 C 193.317 152.927,193.362 153.161,192.962 153.803 C 192.550 154.466,192.559 154.489,193.067 154.070 C 193.373 153.816,193.624 153.449,193.624 153.254 C 193.624 152.852,190.950 148.658,190.694 148.658 C 190.602 148.658,190.796 149.073,191.126 149.581 M222.842 149.070 C 222.804 149.468,223.897 152.054,224.042 151.908 C 224.115 151.835,223.881 151.112,223.521 150.301 C 223.161 149.489,222.856 148.936,222.842 149.070 M341.329 150.839 C 341.316 151.393,341.524 152.299,341.790 152.852 C 342.181 153.664,342.232 153.697,342.053 153.020 C 341.930 152.559,341.723 151.653,341.591 151.007 C 341.358 149.862,341.352 149.858,341.329 150.839 M182.635 151.510 C 182.639 152.248,182.707 152.511,182.788 152.093 C 182.868 151.676,182.865 151.072,182.781 150.751 C 182.697 150.430,182.631 150.772,182.635 151.510 M237.574 151.025 C 237.371 151.405,237.264 151.891,237.335 152.107 C 237.407 152.322,237.636 152.012,237.843 151.417 C 238.269 150.195,238.128 149.990,237.574 151.025 M233.414 151.342 C 233.537 151.804,233.778 152.408,233.949 152.685 C 234.165 153.034,234.192 152.932,234.036 152.349 C 233.912 151.888,233.671 151.284,233.500 151.007 C 233.284 150.657,233.258 150.759,233.414 151.342 M44.687 152.031 C 44.883 152.594,45.106 152.992,45.182 152.916 C 45.349 152.750,44.715 151.007,44.489 151.007 C 44.402 151.007,44.491 151.467,44.687 152.031 M152.390 151.342 C 152.384 151.619,152.587 152.299,152.840 152.852 C 153.434 154.148,153.442 153.546,152.852 152.013 C 152.604 151.367,152.395 151.065,152.390 151.342 M331.213 152.041 C 331.216 152.672,331.357 153.407,331.526 153.674 C 331.725 153.988,331.766 153.633,331.642 152.667 C 331.405 150.814,331.206 150.524,331.213 152.041 M57.647 151.854 C 57.544 152.219,57.356 152.819,57.231 153.188 C 57.107 153.557,57.250 153.435,57.550 152.916 C 57.851 152.398,58.038 151.797,57.966 151.582 C 57.894 151.368,57.751 151.490,57.647 151.854 M142.305 152.209 C 142.318 152.747,142.463 153.490,142.626 153.859 C 142.825 154.307,142.857 154.028,142.724 153.020 C 142.489 151.242,142.272 150.822,142.305 152.209 M206.841 152.192 C 206.535 152.659,206.346 153.102,206.421 153.177 C 206.495 153.251,206.811 152.869,207.122 152.327 C 207.814 151.121,207.608 151.021,206.841 152.192 M77.543 152.617 C 77.514 153.102,78.445 155.034,78.709 155.034 C 78.801 155.034,78.667 154.618,78.410 154.111 C 78.154 153.603,77.860 152.961,77.757 152.685 C 77.631 152.346,77.561 152.324,77.543 152.617 M96.308 153.861 C 96.113 154.374,95.873 154.924,95.775 155.082 C 95.678 155.240,95.679 155.369,95.777 155.369 C 96.070 155.369,97.045 153.309,96.846 153.110 C 96.745 153.009,96.503 153.347,96.308 153.861 M266.660 153.607 C 266.745 153.930,267.117 154.572,267.487 155.034 C 268.137 155.845,268.136 155.826,267.462 154.446 C 266.735 152.958,266.396 152.604,266.660 153.607 M35.768 154.027 C 35.890 154.488,36.203 155.243,36.463 155.705 L 36.937 156.544 36.715 155.705 C 36.593 155.243,36.280 154.488,36.020 154.027 L 35.546 153.188 35.768 154.027 M224.520 153.523 C 224.520 153.708,224.736 154.237,225.000 154.698 C 225.264 155.159,225.480 155.386,225.480 155.201 C 225.480 155.017,225.264 154.488,225.000 154.027 C 224.736 153.565,224.520 153.339,224.520 153.523 M284.732 154.698 C 284.445 155.252,284.286 155.705,284.379 155.705 C 284.471 155.705,284.781 155.252,285.067 154.698 C 285.353 154.144,285.512 153.691,285.420 153.691 C 285.328 153.691,285.018 154.144,284.732 154.698 M170.838 155.222 C 170.450 155.879,170.285 156.322,170.472 156.207 C 170.835 155.982,171.924 154.027,171.686 154.027 C 171.607 154.027,171.226 154.564,170.838 155.222 M256.568 155.034 C 256.692 155.495,256.933 156.099,257.104 156.376 C 257.320 156.726,257.346 156.623,257.190 156.040 C 257.067 155.579,256.826 154.975,256.655 154.698 C 256.439 154.348,256.412 154.451,256.568 155.034 M295.339 155.406 C 295.133 155.999,295.022 156.543,295.094 156.615 C 295.166 156.687,295.394 156.260,295.600 155.667 C 295.807 155.074,295.917 154.530,295.846 154.459 C 295.774 154.387,295.546 154.813,295.339 155.406 M190.991 156.755 C 190.210 157.886,189.631 158.870,189.703 158.943 C 189.822 159.062,190.239 158.483,192.096 155.621 C 193.250 153.842,192.396 154.718,190.991 156.755 M236.054 155.497 C 235.933 155.981,235.699 156.376,235.534 156.376 C 235.370 156.376,235.235 156.527,235.235 156.711 C 235.235 156.896,235.371 157.047,235.538 157.047 C 235.874 157.047,236.669 155.014,236.427 154.772 C 236.343 154.688,236.175 155.014,236.054 155.497 M359.348 155.789 C 358.805 156.562,358.755 156.741,359.176 156.403 C 359.774 155.923,360.560 154.698,360.270 154.698 C 360.183 154.698,359.769 155.189,359.348 155.789 M46.152 156.040 C 46.439 157.043,46.578 157.226,46.846 156.957 C 46.957 156.846,46.792 156.405,46.480 155.978 L 45.911 155.201 46.152 156.040 M55.761 156.694 C 55.565 157.257,55.475 157.718,55.563 157.718 C 55.789 157.718,56.422 155.975,56.256 155.809 C 56.180 155.733,55.957 156.131,55.761 156.694 M94.112 157.131 L 92.785 158.557 94.211 157.231 C 95.538 155.997,95.792 155.705,95.538 155.705 C 95.483 155.705,94.841 156.346,94.112 157.131 M181.264 156.694 C 181.068 157.257,180.979 157.718,181.066 157.718 C 181.293 157.718,181.926 155.975,181.760 155.809 C 181.683 155.733,181.461 156.131,181.264 156.694 M268.960 157.018 C 269.846 157.980,271.141 158.943,271.141 158.640 C 271.141 158.580,270.424 157.945,269.547 157.228 C 268.082 156.030,268.034 156.013,268.960 157.018 M282.383 157.474 C 281.644 158.207,281.342 158.650,281.711 158.459 C 282.500 158.050,284.499 156.017,284.039 156.090 C 283.866 156.118,283.121 156.740,282.383 157.474 M168.603 157.802 L 167.617 158.893 168.790 157.886 C 169.435 157.332,170.027 156.841,170.105 156.795 C 170.182 156.749,170.098 156.711,169.917 156.711 C 169.737 156.711,169.145 157.202,168.603 157.802 M344.959 157.542 C 345.446 158.128,347.638 159.530,347.788 159.350 C 347.843 159.283,347.135 158.735,346.215 158.133 C 345.294 157.530,344.729 157.264,344.959 157.542 M357.047 158.104 C 356.401 158.671,356.176 158.980,356.547 158.793 C 357.160 158.483,358.680 157.028,358.357 157.061 C 358.283 157.068,357.693 157.538,357.047 158.104 M37.272 158.054 C 37.272 158.331,37.488 158.935,37.752 159.396 C 38.029 159.881,38.231 160.022,38.231 159.732 C 38.231 159.455,38.015 158.851,37.752 158.389 C 37.475 157.904,37.272 157.763,37.272 158.054 M210.098 158.725 C 211.071 160.231,211.074 160.235,211.072 159.871 C 211.071 159.702,210.681 159.111,210.205 158.557 L 209.341 157.550 210.098 158.725 M257.718 157.961 C 257.718 158.155,258.029 158.671,258.409 159.107 L 259.100 159.899 258.511 158.893 C 257.735 157.568,257.718 157.548,257.718 157.961 M293.840 158.809 L 293.240 159.899 293.935 159.107 C 294.536 158.423,294.841 157.718,294.535 157.718 C 294.483 157.718,294.170 158.209,293.840 158.809 M157.383 158.554 C 157.383 158.783,159.437 159.802,159.591 159.649 C 159.664 159.576,159.196 159.265,158.553 158.958 C 157.909 158.651,157.383 158.469,157.383 158.554 M83.221 159.165 C 84.396 159.841,85.703 160.218,85.450 159.808 C 85.337 159.625,84.903 159.402,84.485 159.311 C 84.067 159.221,83.423 159.042,83.054 158.914 C 82.645 158.773,82.711 158.871,83.221 159.165 M333.557 158.878 C 333.557 159.284,336.050 162.386,336.388 162.402 C 336.561 162.410,336.323 162.001,335.858 161.493 C 335.394 160.986,334.686 160.135,334.285 159.602 C 333.885 159.070,333.557 158.744,333.557 158.878 M90.101 159.576 C 89.262 159.980,89.234 160.026,89.933 159.855 C 90.884 159.623,91.953 159.078,91.443 159.086 C 91.258 159.088,90.654 159.309,90.101 159.576 M165.136 159.424 C 164.694 159.601,164.412 159.826,164.510 159.923 C 164.607 160.021,165.195 159.879,165.817 159.608 C 167.052 159.069,166.438 158.904,165.136 159.424 M354.062 159.424 C 353.620 159.601,353.338 159.826,353.436 159.923 C 353.533 160.021,354.122 159.879,354.743 159.608 C 355.978 159.069,355.364 158.904,354.062 159.424 M145.236 159.899 C 145.627 160.647,147.730 162.893,149.004 163.925 C 149.668 164.463,148.207 162.789,145.197 159.564 C 145.025 159.379,145.042 159.530,145.236 159.899 M188.861 159.983 C 188.221 160.729,187.831 161.409,188.045 161.409 C 188.135 161.409,188.532 160.956,188.926 160.403 C 189.708 159.305,189.668 159.044,188.861 159.983 M243.008 160.920 C 242.445 162.154,242.553 162.418,243.161 161.296 C 243.444 160.772,243.614 160.281,243.537 160.204 C 243.460 160.127,243.222 160.450,243.008 160.920 M260.006 161.326 C 260.556 162.018,261.428 162.961,261.943 163.423 C 262.457 163.884,262.061 163.318,261.063 162.164 C 259.057 159.848,258.440 159.358,260.006 161.326 M366.096 162.650 C 364.131 164.697,364.765 164.436,366.862 162.334 C 367.980 161.214,368.327 160.738,368.025 160.738 C 367.973 160.738,367.105 161.598,366.096 162.650 M177.181 162.584 C 176.366 163.414,175.775 164.094,175.867 164.094 C 175.959 164.094,176.702 163.414,177.517 162.584 C 178.332 161.753,178.923 161.074,178.831 161.074 C 178.739 161.074,177.996 161.753,177.181 162.584 M101.660 163.003 L 100.503 164.262 101.762 163.105 C 102.454 162.469,103.020 161.903,103.020 161.847 C 103.020 161.591,102.736 161.832,101.660 163.003 M290.817 162.612 C 290.288 163.077,289.922 163.523,290.003 163.604 C 290.083 163.685,290.582 163.300,291.111 162.748 C 292.279 161.529,292.128 161.459,290.817 162.612 M38.950 162.289 C 38.937 162.496,39.306 163.478,39.770 164.470 C 40.235 165.463,40.515 165.898,40.393 165.438 C 40.074 164.235,38.978 161.843,38.950 162.289 M73.004 163.178 C 73.094 163.413,73.504 163.810,73.916 164.061 C 74.630 164.497,74.627 164.477,73.851 163.635 C 72.943 162.649,72.763 162.552,73.004 163.178 M52.596 164.761 C 52.305 165.502,52.138 166.107,52.225 166.107 C 52.452 166.107,53.421 163.712,53.260 163.551 C 53.186 163.476,52.887 164.021,52.596 164.761 M174.329 164.962 L 173.322 165.827 174.413 165.106 C 175.013 164.709,175.503 164.319,175.503 164.239 C 175.503 163.988,175.361 164.075,174.329 164.962 M263.665 164.790 C 264.075 165.217,264.495 165.482,264.598 165.379 C 264.702 165.276,264.366 164.926,263.853 164.602 L 262.919 164.013 263.665 164.790 M185.235 165.436 C 184.841 165.990,184.594 166.443,184.686 166.443 C 184.778 166.443,185.176 165.990,185.570 165.436 C 185.965 164.883,186.212 164.430,186.120 164.430 C 186.027 164.430,185.629 164.883,185.235 165.436 M214.267 165.195 C 214.591 165.708,214.940 166.044,215.044 165.941 C 215.147 165.838,214.882 165.418,214.454 165.007 L 213.677 164.262 214.267 165.195 M241.312 165.185 C 240.780 166.605,240.559 167.450,240.718 167.450 C 240.805 167.450,241.108 166.770,241.391 165.940 C 241.908 164.422,241.840 163.773,241.312 165.185 M363.255 164.981 C 362.886 165.273,361.942 165.804,361.158 166.161 C 359.434 166.945,359.243 167.327,360.926 166.624 C 362.119 166.125,364.094 164.848,364.094 164.574 C 364.094 164.353,363.981 164.407,363.255 164.981 M204.183 166.695 C 204.476 167.294,204.787 167.785,204.874 167.785 C 205.208 167.785,204.993 167.251,204.335 166.443 L 203.651 165.604 204.183 166.695 M171.141 166.637 L 170.302 167.142 171.141 166.923 C 171.602 166.802,172.123 166.569,172.299 166.405 C 172.811 165.926,172.076 166.073,171.141 166.637 M40.627 166.821 C 40.563 168.347,51.750 168.804,51.906 167.282 C 51.960 166.760,51.936 166.741,51.802 167.198 C 51.498 168.229,41.517 168.073,41.014 167.030 C 40.753 166.489,40.643 166.430,40.627 166.821 M215.620 167.198 C 215.826 167.740,215.435 167.791,210.522 167.860 L 205.201 167.934 210.377 168.037 C 215.583 168.140,216.724 167.929,215.819 167.030 C 215.480 166.694,215.441 166.727,215.620 167.198 M80.912 167.787 C 81.211 167.962,82.343 168.182,83.429 168.276 L 85.403 168.447 83.221 167.969 C 80.621 167.399,80.190 167.365,80.912 167.787 M156.352 167.795 C 156.800 167.987,158.084 168.208,159.204 168.286 C 161.225 168.428,161.228 168.427,159.564 168.153 C 158.641 168.001,157.357 167.780,156.711 167.662 C 155.699 167.476,155.649 167.494,156.352 167.795 M168.040 167.642 C 167.934 167.748,166.814 167.967,165.551 168.129 L 163.255 168.424 165.740 168.287 C 167.688 168.181,170.166 167.450,168.579 167.450 C 168.389 167.450,168.146 167.536,168.040 167.642 M270.174 167.772 C 270.472 167.955,271.605 168.178,272.691 168.269 L 274.664 168.433 272.991 168.126 C 272.071 167.957,270.938 167.733,270.474 167.629 C 269.821 167.483,269.753 167.515,270.174 167.772 M280.034 167.986 L 278.020 168.437 279.785 168.267 C 280.756 168.173,281.888 167.961,282.302 167.795 C 283.347 167.374,282.417 167.453,280.034 167.986 M345.384 167.796 C 345.706 167.992,346.763 168.217,347.733 168.296 L 349.497 168.439 347.987 168.121 C 347.156 167.947,346.099 167.722,345.638 167.622 C 344.937 167.470,344.895 167.499,345.384 167.796 M355.705 167.978 L 353.859 168.431 355.497 168.249 C 356.398 168.148,357.455 167.937,357.846 167.779 C 358.886 167.359,357.824 167.458,355.705 167.978 M90.101 168.121 L 88.758 168.361 90.101 168.385 C 90.839 168.398,91.745 168.279,92.114 168.121 L 92.785 167.832 92.114 167.856 C 91.745 167.870,90.839 167.989,90.101 168.121 M122.552 168.034 C 123.790 168.098,125.904 168.099,127.250 168.035 C 128.597 167.971,127.584 167.918,125.000 167.918 C 122.416 167.917,121.315 167.969,122.552 168.034 M186.997 168.035 C 188.427 168.098,190.768 168.098,192.198 168.035 C 193.628 167.972,192.458 167.920,189.597 167.920 C 186.737 167.920,185.566 167.972,186.997 168.035 M232.634 168.035 C 234.065 168.098,236.405 168.098,237.836 168.035 C 239.266 167.972,238.096 167.920,235.235 167.920 C 232.374 167.920,231.204 167.972,232.634 168.035 M311.326 168.034 C 312.664 168.098,314.853 168.098,316.191 168.034 C 317.529 167.971,316.435 167.919,313.758 167.919 C 311.082 167.919,309.987 167.971,311.326 168.034 M47.315 169.977 C 47.315 170.520,47.840 170.643,48.133 170.169 C 48.235 170.004,48.093 169.782,47.817 169.677 C 47.512 169.560,47.315 169.678,47.315 169.977 M231.956 275.076 L 231.879 282.536 225.587 282.635 L 219.295 282.734 225.598 282.810 C 230.452 282.868,231.938 282.788,232.064 282.458 C 232.155 282.223,232.185 278.787,232.131 274.824 L 232.033 267.617 231.956 275.076 M167.943 275.336 L 167.953 282.718 174.559 282.809 L 181.165 282.900 181.304 283.816 C 181.432 284.660,181.447 284.646,181.493 283.641 L 181.544 282.550 174.839 282.550 L 168.134 282.550 168.033 275.252 L 167.932 267.953 167.943 275.336 M206.842 279.362 C 206.842 281.762,206.896 282.699,206.961 281.446 C 207.025 280.192,207.025 278.229,206.960 277.083 C 206.894 275.938,206.841 276.963,206.842 279.362 M215.908 289.765 C 215.908 292.718,215.959 293.881,216.022 292.350 C 216.084 290.818,216.084 288.402,216.021 286.981 C 215.958 285.559,215.907 286.812,215.908 289.765 M181.338 289.765 C 181.339 292.164,181.392 293.102,181.457 291.848 C 181.522 290.595,181.521 288.632,181.456 287.486 C 181.391 286.340,181.338 287.366,181.338 289.765 M186.913 288.926 C 186.913 289.111,187.290 289.262,187.752 289.262 C 188.213 289.262,188.591 289.111,188.591 288.926 C 188.591 288.742,188.213 288.591,187.752 288.591 C 187.290 288.591,186.913 288.742,186.913 288.926 M193.289 288.926 C 193.289 289.111,193.591 289.262,193.960 289.262 C 194.329 289.262,194.631 289.111,194.631 288.926 C 194.631 288.742,194.329 288.591,193.960 288.591 C 193.591 288.591,193.289 288.742,193.289 288.926 M211.745 288.926 C 211.745 289.111,212.047 289.262,212.416 289.262 C 212.785 289.262,213.087 289.111,213.087 288.926 C 213.087 288.742,212.785 288.591,212.416 288.591 C 212.047 288.591,211.745 288.742,211.745 288.926 M196.141 291.633 C 195.310 291.817,195.412 291.857,196.728 291.859 C 197.605 291.860,198.322 291.822,198.322 291.775 C 198.322 291.523,197.018 291.438,196.141 291.633 M202.345 291.630 C 201.772 291.778,202.064 291.855,203.272 291.877 C 204.241 291.894,205.034 291.858,205.034 291.797 C 205.034 291.549,203.121 291.430,202.345 291.630 M206.842 299.832 C 206.842 302.232,206.896 303.169,206.961 301.916 C 207.025 300.662,207.025 298.699,206.960 297.553 C 206.894 296.407,206.841 297.433,206.842 299.832 " stroke="none" fill="#c3e7fa" fill-rule="evenodd"></path></g></svg>