<svg id="svg" version="1.1" xmlns="http://www.w3.org/2000/svg" xmlns:xlink="http://www.w3.org/1999/xlink" width="400" height="450.36603221083453" viewBox="0, 0, 400,450.36603221083453"><g id="svgg"><path id="path0" d="M190.602 0.481 C 189.283 0.692,188.023 1.010,187.802 1.186 C 187.581 1.363,186.815 1.633,186.100 1.786 C 185.385 1.938,184.800 2.215,184.800 2.400 C 184.800 2.585,184.260 2.855,183.600 3.000 C 182.940 3.145,182.400 3.415,182.400 3.600 C 182.400 3.785,181.848 4.058,181.173 4.206 C 180.498 4.354,179.856 4.711,179.745 4.998 C 179.565 5.469,178.824 5.821,177.845 5.902 C 177.649 5.918,177.379 6.093,177.245 6.290 C 176.888 6.813,172.175 9.600,171.648 9.600 C 171.401 9.600,171.200 9.762,171.200 9.961 C 171.200 10.159,170.705 10.522,170.100 10.767 C 168.452 11.435,165.018 13.346,164.872 13.678 C 164.801 13.838,163.782 14.423,162.607 14.979 C 161.432 15.535,160.409 16.128,160.335 16.295 C 160.261 16.463,159.303 17.050,158.207 17.600 C 157.111 18.150,155.973 18.825,155.679 19.100 C 155.384 19.375,154.886 19.600,154.571 19.600 C 154.257 19.600,154.000 19.810,154.000 20.067 C 154.000 20.323,153.885 20.419,153.745 20.278 C 153.605 20.138,152.975 20.391,152.345 20.839 C 151.715 21.288,151.197 21.507,151.194 21.327 C 151.191 21.147,151.056 21.180,150.894 21.400 C 150.556 21.860,149.440 22.590,148.000 23.295 C 147.450 23.564,146.910 23.877,146.800 23.992 C 146.446 24.360,145.029 25.190,144.008 25.626 C 143.463 25.859,142.923 26.174,142.808 26.325 C 142.694 26.476,141.700 27.050,140.600 27.600 C 139.500 28.150,138.536 28.747,138.458 28.926 C 138.319 29.245,136.350 30.117,136.045 29.994 C 135.959 29.960,135.779 30.093,135.645 30.290 C 135.304 30.788,129.516 34.246,128.463 34.580 C 127.988 34.731,127.600 35.022,127.600 35.227 C 127.600 35.432,127.372 35.600,127.093 35.600 C 126.814 35.600,125.914 36.056,125.093 36.614 C 124.272 37.172,123.594 37.487,123.587 37.314 C 123.580 37.141,123.355 37.270,123.087 37.600 C 122.819 37.930,121.882 38.560,121.004 39.000 C 120.126 39.440,118.510 40.385,117.413 41.100 C 116.316 41.815,115.189 42.400,114.909 42.400 C 114.629 42.400,114.400 42.580,114.400 42.800 C 114.400 43.020,114.195 43.200,113.944 43.200 C 113.694 43.200,112.614 43.738,111.544 44.396 C 110.475 45.054,109.597 45.459,109.594 45.296 C 109.591 45.133,109.456 45.180,109.294 45.400 C 108.908 45.926,107.666 46.714,106.300 47.302 C 105.695 47.562,105.200 47.916,105.200 48.088 C 105.200 48.259,104.958 48.400,104.661 48.400 C 104.365 48.400,103.707 48.760,103.200 49.200 C 102.693 49.640,102.035 50.000,101.739 50.000 C 101.442 50.000,101.200 50.180,101.200 50.400 C 101.200 50.620,100.971 50.800,100.691 50.800 C 100.411 50.800,99.246 51.416,98.102 52.169 C 96.959 52.923,95.613 53.667,95.112 53.823 C 94.610 53.980,94.110 54.228,94.000 54.374 C 93.679 54.801,89.624 57.200,89.223 57.200 C 89.022 57.200,88.619 57.432,88.329 57.715 C 87.864 58.167,86.033 59.194,82.300 61.098 C 81.695 61.406,81.200 61.811,81.200 61.998 C 81.200 62.184,80.660 62.455,80.000 62.600 C 79.340 62.745,78.800 63.000,78.800 63.168 C 78.800 63.335,78.395 63.674,77.900 63.922 C 77.405 64.170,76.100 64.922,75.000 65.592 C 73.900 66.262,72.325 67.106,71.500 67.466 C 70.675 67.826,70.000 68.255,70.000 68.417 C 70.000 68.580,69.528 68.832,68.952 68.976 C 68.375 69.121,67.661 69.456,67.366 69.720 C 66.014 70.927,65.602 71.184,64.634 71.427 C 64.065 71.570,63.600 71.828,63.600 72.000 C 63.600 72.172,63.143 72.428,62.584 72.568 C 62.025 72.709,61.666 72.984,61.787 73.179 C 61.908 73.375,61.465 73.654,60.803 73.799 C 60.142 73.945,59.600 74.217,59.600 74.405 C 59.600 74.593,59.195 74.870,58.700 75.021 C 58.205 75.172,55.884 76.444,53.542 77.848 C 51.201 79.252,49.086 80.400,48.842 80.400 C 48.599 80.400,48.400 80.537,48.400 80.705 C 48.400 80.873,48.055 81.188,47.632 81.405 C 47.210 81.622,45.815 82.366,44.532 83.057 C 43.250 83.749,41.678 84.592,41.040 84.931 C 40.402 85.270,39.772 85.694,39.640 85.874 C 39.508 86.053,38.680 86.551,37.800 86.980 C 36.920 87.409,35.930 87.971,35.600 88.229 C 35.016 88.685,32.263 90.218,28.200 92.350 C 27.100 92.928,26.056 93.625,25.880 93.900 C 25.704 94.175,25.299 94.400,24.980 94.400 C 24.661 94.400,24.400 94.560,24.400 94.757 C 24.400 94.953,23.907 95.237,23.304 95.388 C 22.701 95.540,22.116 95.784,22.004 95.932 C 21.692 96.342,20.325 97.175,19.100 97.702 C 18.495 97.962,18.000 98.316,18.000 98.488 C 18.000 98.659,17.785 98.800,17.522 98.800 C 16.932 98.800,13.918 100.812,13.480 101.499 C 13.304 101.774,12.989 102.000,12.780 102.000 C 12.351 102.000,9.715 104.656,8.800 106.010 C 8.470 106.498,8.020 107.101,7.800 107.349 C 7.580 107.597,6.861 108.610,6.201 109.600 C 5.542 110.590,4.891 111.490,4.755 111.600 C 4.619 111.710,4.369 112.250,4.200 112.800 C 4.031 113.350,3.781 113.890,3.646 114.000 C 3.260 114.314,2.000 116.819,2.000 117.272 C 2.000 117.496,1.740 118.246,1.422 118.940 C 0.027 121.981,0.000 123.988,-0.000 225.000 C -0.000 323.454,0.065 328.973,1.232 330.180 C 1.435 330.389,1.606 330.839,1.614 331.180 C 1.621 331.521,1.975 332.520,2.400 333.400 C 2.825 334.280,3.179 335.143,3.186 335.317 C 3.194 335.491,3.544 336.002,3.963 336.453 L 4.727 337.272 12.063 333.080 C 16.099 330.774,21.260 327.787,23.533 326.444 C 25.806 325.100,27.733 324.000,27.817 324.000 C 27.900 324.000,30.872 322.290,34.421 320.200 C 37.970 318.110,40.947 316.400,41.037 316.400 C 41.127 316.400,43.586 314.988,46.500 313.261 C 52.034 309.984,62.533 303.921,64.600 302.809 C 65.260 302.454,66.561 301.677,67.492 301.082 C 68.423 300.487,69.287 300.000,69.412 300.000 C 69.537 300.000,72.466 298.334,75.920 296.297 C 79.374 294.261,82.682 292.347,83.272 292.045 L 84.344 291.495 83.446 290.047 C 82.542 288.589,78.360 280.142,76.889 276.800 C 76.452 275.810,75.427 273.110,74.609 270.800 C 73.791 268.490,72.982 266.324,72.812 265.987 C 72.641 265.650,72.378 264.750,72.228 263.987 C 72.077 263.224,71.798 262.240,71.609 261.800 C 71.419 261.360,70.886 259.380,70.425 257.400 C 69.963 255.420,69.420 253.170,69.219 252.400 C 69.019 251.630,68.736 250.100,68.591 249.000 C 68.446 247.900,68.172 246.370,67.982 245.600 C 67.350 243.037,66.400 230.574,66.400 224.855 C 66.400 214.902,68.219 200.034,70.372 192.400 C 72.285 185.614,73.457 181.995,75.860 175.453 C 77.031 172.265,81.662 162.711,83.543 159.600 C 84.009 158.830,84.559 157.840,84.765 157.400 C 85.587 155.647,92.500 145.417,94.280 143.321 C 94.676 142.854,96.260 140.921,97.800 139.024 C 103.193 132.383,114.900 121.523,122.000 116.574 C 127.272 112.900,129.225 111.600,129.472 111.600 C 129.618 111.600,130.021 111.353,130.369 111.052 C 132.250 109.419,145.187 102.934,150.800 100.810 C 152.010 100.352,153.360 99.814,153.800 99.614 C 174.061 90.391,210.825 88.966,236.200 96.419 C 237.740 96.872,239.681 97.415,240.514 97.626 C 241.346 97.837,242.336 98.172,242.714 98.370 C 243.091 98.569,245.020 99.308,247.000 100.014 C 257.783 103.859,270.163 110.624,280.200 118.154 C 289.808 125.363,299.025 134.525,306.605 144.399 C 309.405 148.047,315.200 156.871,315.200 157.487 C 315.200 158.362,315.664 158.130,324.927 152.639 C 327.747 150.968,330.127 149.600,330.216 149.600 C 330.304 149.600,333.733 147.620,337.836 145.200 C 341.938 142.780,345.368 140.800,345.457 140.800 C 345.546 140.800,348.679 139.000,352.420 136.800 C 356.160 134.600,359.289 132.800,359.372 132.800 C 359.456 132.800,362.258 131.180,365.600 129.200 C 368.942 127.220,371.742 125.600,371.822 125.600 C 371.902 125.600,374.990 123.826,378.684 121.657 C 382.378 119.488,385.596 117.643,385.836 117.557 C 387.099 117.102,395.534 111.801,395.289 111.617 C 394.765 111.224,393.200 108.840,393.200 108.436 C 393.200 108.218,392.974 107.896,392.698 107.720 C 392.421 107.544,391.723 106.770,391.145 106.000 C 389.432 103.716,386.841 101.278,385.183 100.391 C 384.651 100.106,383.975 99.632,383.680 99.337 C 383.384 99.042,382.901 98.800,382.605 98.800 C 382.309 98.800,382.007 98.665,381.933 98.500 C 381.814 98.231,380.733 97.599,377.018 95.627 C 375.867 95.016,375.481 94.749,374.214 93.684 C 373.876 93.401,373.600 93.268,373.600 93.389 C 373.600 93.511,372.925 93.196,372.100 92.689 C 371.275 92.183,369.745 91.326,368.700 90.785 C 367.655 90.244,366.800 89.680,366.800 89.532 C 366.800 89.385,366.275 89.148,365.633 89.007 C 364.992 88.866,364.363 88.481,364.236 88.150 C 364.109 87.820,363.823 87.662,363.600 87.800 C 363.377 87.938,363.091 87.780,362.964 87.450 C 362.837 87.119,362.208 86.734,361.567 86.593 C 360.925 86.452,360.400 86.190,360.400 86.010 C 360.400 85.830,359.725 85.338,358.900 84.915 C 355.469 83.156,353.789 82.229,353.600 81.989 C 353.490 81.850,352.500 81.300,351.400 80.768 C 350.300 80.236,349.256 79.576,349.080 79.300 C 348.904 79.025,348.514 78.800,348.213 78.800 C 347.913 78.800,347.607 78.665,347.533 78.500 C 347.460 78.335,346.326 77.660,345.014 77.000 C 343.701 76.340,342.384 75.575,342.085 75.300 C 341.787 75.025,341.286 74.800,340.971 74.800 C 340.657 74.800,340.400 74.620,340.400 74.400 C 340.400 74.180,340.143 74.000,339.829 74.000 C 339.514 74.000,339.016 73.775,338.721 73.500 C 338.427 73.225,337.292 72.550,336.200 72.000 C 335.108 71.450,333.992 70.820,333.721 70.600 C 332.495 69.606,332.041 69.328,329.792 68.200 C 328.476 67.540,327.340 66.865,327.267 66.700 C 327.193 66.535,326.947 66.400,326.719 66.400 C 326.277 66.400,321.536 63.632,321.200 63.178 C 321.090 63.030,320.550 62.769,320.000 62.600 C 319.450 62.431,318.910 62.161,318.800 62.000 C 318.626 61.747,316.874 60.711,312.714 58.403 C 312.116 58.071,310.766 57.350,309.714 56.800 C 308.661 56.250,307.744 55.678,307.677 55.530 C 307.609 55.381,306.619 54.773,305.477 54.178 C 304.334 53.584,303.310 52.985,303.200 52.849 C 303.090 52.712,301.650 51.903,300.000 51.050 C 298.350 50.198,296.910 49.388,296.800 49.250 C 296.690 49.113,295.703 48.550,294.607 48.000 C 293.511 47.450,292.392 46.820,292.121 46.600 C 290.948 45.648,290.434 45.335,288.181 44.200 C 286.871 43.540,285.740 42.865,285.667 42.700 C 285.593 42.535,285.347 42.400,285.119 42.400 C 284.657 42.400,279.916 39.616,279.596 39.156 C 279.484 38.995,278.899 38.740,278.296 38.588 C 277.693 38.437,277.200 38.191,277.200 38.043 C 277.200 37.894,276.165 37.238,274.900 36.586 C 273.635 35.934,272.510 35.289,272.400 35.154 C 272.290 35.019,271.795 34.781,271.300 34.627 C 270.805 34.472,270.400 34.178,270.400 33.973 C 270.400 33.768,270.171 33.600,269.891 33.600 C 269.611 33.600,268.425 32.970,267.256 32.200 C 266.087 31.430,265.052 30.800,264.957 30.800 C 264.862 30.800,264.023 30.317,263.092 29.726 C 262.161 29.135,260.056 27.958,258.414 27.110 C 256.771 26.262,255.331 25.440,255.214 25.284 C 255.096 25.128,254.105 24.550,253.012 24.000 C 251.133 23.055,250.650 22.754,249.483 21.800 C 249.213 21.580,247.915 20.860,246.597 20.200 C 245.278 19.540,244.110 18.910,244.000 18.800 C 243.890 18.690,242.945 18.154,241.900 17.608 C 240.855 17.063,240.000 16.497,240.000 16.352 C 240.000 16.206,239.550 15.974,239.000 15.836 C 238.450 15.698,238.000 15.422,238.000 15.224 C 238.000 15.026,237.460 14.745,236.800 14.600 C 236.140 14.455,235.600 14.204,235.600 14.043 C 235.600 13.881,234.970 13.502,234.200 13.200 C 233.430 12.898,232.800 12.504,232.800 12.325 C 232.800 12.146,232.543 12.000,232.229 12.000 C 231.914 12.000,231.388 11.731,231.059 11.402 C 230.730 11.072,230.042 10.623,229.530 10.403 C 228.559 9.984,227.143 9.149,226.800 8.792 C 226.690 8.677,226.150 8.364,225.600 8.095 C 224.160 7.390,223.044 6.660,222.706 6.200 C 222.544 5.980,222.409 5.931,222.406 6.092 C 222.403 6.252,221.815 6.024,221.100 5.584 C 220.385 5.144,219.305 4.568,218.700 4.304 C 218.095 4.040,217.600 3.698,217.600 3.544 C 217.600 3.390,217.060 3.145,216.400 3.000 C 215.740 2.855,215.200 2.585,215.200 2.400 C 215.200 2.215,214.615 1.938,213.900 1.786 C 213.185 1.633,212.420 1.375,212.200 1.213 C 210.697 0.108,196.035 -0.390,190.602 0.481 M191.400 159.061 C 164.930 162.168,141.971 182.908,135.454 209.600 C 133.330 218.297,133.206 231.883,135.183 239.200 C 137.305 247.056,138.063 249.153,140.703 254.468 L 142.426 257.935 147.781 254.768 C 150.727 253.025,153.224 251.600,153.330 251.600 C 153.498 251.600,162.767 246.233,164.400 245.190 C 164.730 244.980,165.810 244.374,166.800 243.844 C 167.790 243.314,171.362 241.243,174.738 239.240 C 178.114 237.238,180.960 235.600,181.062 235.600 C 181.164 235.600,184.134 233.890,187.662 231.800 C 191.190 229.710,194.159 228.000,194.260 228.000 C 194.361 228.000,196.876 226.560,199.849 224.800 C 202.822 223.040,205.325 221.600,205.411 221.600 C 205.562 221.600,215.961 215.597,217.200 214.795 C 217.530 214.582,218.647 213.957,219.682 213.406 C 220.717 212.855,223.147 211.446,225.082 210.275 C 227.017 209.104,229.590 207.599,230.800 206.931 C 234.573 204.848,236.437 203.775,241.727 200.639 C 244.547 198.968,246.926 197.600,247.014 197.600 C 247.144 197.600,256.660 192.103,257.149 191.745 C 258.331 190.879,248.262 178.826,241.921 173.517 C 237.548 169.856,225.209 162.800,223.179 162.800 C 222.927 162.800,222.154 162.558,221.460 162.262 C 218.595 161.039,214.161 159.962,208.800 159.186 C 206.648 158.874,193.775 158.782,191.400 159.061 M303.861 202.700 C 303.758 202.865,305.863 202.953,308.537 202.895 C 317.656 202.699,318.609 202.557,311.324 202.478 C 307.322 202.435,303.963 202.535,303.861 202.700 M359.461 202.700 C 359.358 202.865,361.463 202.953,364.137 202.895 C 373.256 202.699,374.209 202.557,366.924 202.478 C 362.922 202.435,359.563 202.535,359.461 202.700 M318.586 210.300 L 318.600 217.400 325.800 217.415 L 333.000 217.429 325.909 217.305 L 318.818 217.182 318.695 210.190 L 318.571 203.199 318.586 210.300 M374.186 210.300 L 374.200 217.400 381.400 217.414 L 388.600 217.427 381.509 217.305 L 374.418 217.182 374.295 210.191 L 374.171 203.199 374.186 210.300 M351.800 217.200 L 344.600 217.428 351.676 217.514 C 356.058 217.567,358.847 217.448,359.000 217.200 C 359.136 216.980,359.192 216.839,359.124 216.886 C 359.056 216.933,355.760 217.075,351.800 217.200 M292.900 217.498 C 294.825 217.571,297.975 217.571,299.900 217.498 C 301.825 217.425,300.250 217.365,296.400 217.365 C 292.550 217.365,290.975 217.425,292.900 217.498 M333.365 224.800 C 333.365 228.650,333.425 230.225,333.498 228.300 C 333.571 226.375,333.571 223.225,333.498 221.300 C 333.425 219.375,333.365 220.950,333.365 224.800 M318.399 239.681 C 318.290 243.795,318.339 247.022,318.510 246.851 C 318.680 246.681,318.769 243.314,318.709 239.370 L 318.598 232.200 318.399 239.681 M373.999 239.681 C 373.890 243.795,373.939 247.022,374.110 246.851 C 374.280 246.681,374.369 243.314,374.309 239.370 L 374.198 232.200 373.999 239.681 M197.700 291.496 C 198.965 291.575,201.035 291.575,202.300 291.496 C 203.565 291.416,202.530 291.351,200.000 291.351 C 197.470 291.351,196.435 291.416,197.700 291.496 M103.200 316.600 C 103.946 317.370,104.647 318.000,104.757 318.000 C 104.867 318.000,104.346 317.370,103.600 316.600 C 102.854 315.830,102.153 315.200,102.043 315.200 C 101.933 315.200,102.454 315.830,103.200 316.600 M107.600 321.000 C 108.346 321.770,109.047 322.400,109.157 322.400 C 109.267 322.400,108.746 321.770,108.000 321.000 C 107.254 320.230,106.553 319.600,106.443 319.600 C 106.333 319.600,106.854 320.230,107.600 321.000 M290.575 322.500 L 289.400 323.800 290.700 322.625 C 291.912 321.530,292.184 321.200,291.875 321.200 C 291.806 321.200,291.221 321.785,290.575 322.500 " stroke="none" fill="#649cd3" fill-rule="evenodd"></path><path id="path1" d="M188.400 92.233 C 124.057 99.224,75.955 145.786,67.770 209.000 C 64.249 236.192,70.970 269.118,84.508 291.000 C 98.729 313.985,113.848 328.836,135.508 341.098 C 141.155 344.295,152.692 349.466,156.400 350.462 C 157.170 350.668,158.160 350.995,158.600 351.188 C 159.040 351.381,160.390 351.812,161.600 352.147 C 162.810 352.481,164.790 353.030,166.000 353.367 C 173.633 355.490,180.836 356.633,192.800 357.622 C 200.139 358.229,216.419 357.331,221.561 356.036 C 222.352 355.836,223.900 355.550,225.000 355.400 C 228.394 354.936,238.457 352.348,241.400 351.182 C 241.840 351.008,243.756 350.321,245.658 349.656 C 251.491 347.615,260.855 343.316,265.474 340.560 C 277.903 333.143,286.200 326.802,294.400 318.455 C 299.165 313.603,300.820 311.765,303.813 308.000 C 305.124 306.350,306.287 304.910,306.398 304.800 C 306.509 304.690,306.972 304.060,307.426 303.400 C 307.880 302.740,309.059 301.030,310.046 299.600 C 315.483 291.723,315.477 291.755,312.100 289.816 C 310.615 288.964,306.660 286.675,303.311 284.731 C 299.962 282.787,296.362 280.721,295.311 280.139 C 294.260 279.558,290.250 277.244,286.400 274.996 C 270.731 265.849,264.762 262.400,264.599 262.400 C 264.505 262.400,263.094 261.590,261.464 260.600 C 257.890 258.430,257.897 258.431,256.820 260.255 C 250.388 271.158,238.509 280.981,224.200 287.232 C 211.088 292.960,188.239 292.951,175.800 287.213 C 175.360 287.010,174.100 286.465,173.000 286.001 C 171.900 285.538,170.344 284.807,169.543 284.378 C 168.742 283.949,167.658 283.373,167.134 283.099 C 153.906 276.175,141.643 261.177,136.592 245.746 C 122.476 202.617,154.705 158.158,200.000 158.276 C 223.002 158.336,245.217 170.635,256.757 189.700 C 257.771 191.374,257.893 191.426,259.011 190.658 C 259.445 190.360,260.880 189.522,262.200 188.795 C 263.520 188.069,267.300 185.910,270.600 183.998 C 273.900 182.085,280.290 178.387,284.800 175.780 C 289.310 173.172,296.020 169.275,299.710 167.119 C 303.401 164.964,306.489 163.200,306.573 163.200 C 306.714 163.200,314.849 158.440,315.123 158.197 C 315.575 157.796,308.845 147.852,304.025 141.800 C 286.556 119.868,260.995 103.271,233.826 96.221 C 228.235 94.770,226.493 94.409,219.000 93.147 C 214.432 92.377,192.968 91.736,188.400 92.233 M304.000 210.391 L 304.000 217.582 296.700 217.691 L 289.400 217.800 289.291 224.891 L 289.182 231.982 296.491 232.091 L 303.800 232.200 303.909 239.500 L 304.018 246.800 311.200 246.800 L 318.382 246.800 318.491 239.500 L 318.600 232.200 325.909 232.091 L 333.218 231.982 333.109 224.891 L 333.000 217.800 325.700 217.691 L 318.400 217.582 318.400 210.391 L 318.400 203.200 311.200 203.200 L 304.000 203.200 304.000 210.391 M359.600 210.391 L 359.600 217.582 352.300 217.691 L 345.000 217.800 344.891 224.891 L 344.782 231.982 352.091 232.091 L 359.400 232.200 359.509 239.500 L 359.618 246.800 366.800 246.800 L 373.982 246.800 374.091 239.500 L 374.200 232.200 381.509 232.091 L 388.818 231.982 388.709 224.891 L 388.600 217.800 381.300 217.691 L 374.000 217.582 374.000 210.391 L 374.000 203.200 366.800 203.200 L 359.600 203.200 359.600 210.391 " stroke="none" fill="#fbfbfb" fill-rule="evenodd"></path><path id="path2" d="M389.000 116.083 C 385.700 118.070,382.010 120.235,380.800 120.894 C 378.740 122.017,376.348 123.400,360.313 132.738 C 356.855 134.752,353.951 136.400,353.860 136.400 C 353.769 136.400,350.338 138.380,346.236 140.800 C 342.133 143.220,338.713 145.200,338.636 145.200 C 338.558 145.200,335.138 147.180,331.036 149.600 C 326.933 152.020,323.507 154.000,323.422 154.000 C 323.046 154.000,314.186 159.366,314.067 159.666 C 313.993 159.850,313.757 160.000,313.542 160.000 C 313.326 160.000,310.776 161.402,307.875 163.115 C 304.974 164.829,301.745 166.674,300.700 167.215 C 299.655 167.756,298.800 168.334,298.800 168.499 C 298.800 168.665,298.611 168.800,298.380 168.800 C 298.148 168.800,295.853 170.042,293.280 171.559 C 290.706 173.077,287.790 174.795,286.800 175.377 C 285.810 175.959,284.685 176.538,284.300 176.664 C 283.915 176.790,283.600 177.052,283.600 177.247 C 283.600 177.441,283.411 177.600,283.180 177.600 C 282.948 177.600,280.630 178.860,278.028 180.400 C 275.425 181.940,273.094 183.200,272.848 183.200 C 272.602 183.200,272.400 183.380,272.400 183.600 C 272.400 183.820,272.211 184.000,271.980 184.000 C 271.749 184.000,268.734 185.675,265.280 187.722 C 261.826 189.769,258.128 191.863,257.062 192.376 C 255.997 192.888,251.795 195.264,247.726 197.654 C 243.657 200.044,240.254 202.000,240.163 202.000 C 240.073 202.000,237.524 203.449,234.500 205.221 C 231.475 206.993,228.676 208.619,228.281 208.836 C 227.885 209.053,225.005 210.726,221.881 212.553 C 218.756 214.380,215.390 216.329,214.400 216.883 C 212.125 218.156,210.460 219.120,205.095 222.272 C 202.727 223.662,200.691 224.800,200.570 224.800 C 200.449 224.800,198.379 225.970,195.970 227.400 C 193.561 228.830,191.519 230.000,191.432 230.000 C 191.344 230.000,188.422 231.676,184.937 233.725 C 181.451 235.773,178.330 237.575,178.000 237.728 C 177.670 237.881,176.770 238.382,176.000 238.840 C 175.230 239.298,172.080 241.131,169.000 242.912 C 165.920 244.694,160.378 247.917,156.684 250.076 C 152.990 252.234,149.902 254.000,149.822 254.000 C 149.386 254.000,142.800 258.097,142.800 258.368 C 142.800 258.913,146.683 264.451,149.103 267.359 C 155.676 275.255,166.866 283.341,175.800 286.650 C 189.208 291.618,204.853 292.607,216.200 289.204 C 224.038 286.854,223.157 287.185,228.800 284.475 C 238.981 279.585,248.994 271.005,254.935 262.078 C 257.617 258.049,258.883 257.161,259.533 258.853 C 259.607 259.044,259.846 259.200,260.065 259.200 C 260.284 259.200,263.014 260.704,266.132 262.542 C 269.249 264.381,272.880 266.474,274.200 267.194 C 275.520 267.914,276.884 268.749,277.231 269.051 C 277.579 269.353,277.995 269.600,278.156 269.600 C 278.318 269.600,280.868 271.040,283.824 272.800 C 286.780 274.560,289.276 276.000,289.369 276.000 C 289.463 276.000,292.889 277.980,296.982 280.400 C 301.075 282.820,304.509 284.800,304.613 284.800 C 305.005 284.800,315.600 291.241,315.600 291.480 C 315.600 292.348,309.875 301.047,306.044 306.000 C 299.926 313.908,294.413 319.672,285.600 327.373 C 283.762 328.978,276.633 334.219,273.800 336.046 C 269.345 338.920,268.648 339.359,267.800 339.830 C 267.360 340.075,266.280 340.694,265.400 341.206 C 262.851 342.689,254.840 346.617,252.000 347.775 C 250.570 348.359,249.040 349.002,248.600 349.204 C 246.334 350.249,240.096 352.257,234.400 353.777 C 227.031 355.743,223.689 356.394,216.800 357.207 C 214.930 357.428,211.960 357.787,210.200 358.005 C 206.049 358.519,193.847 358.519,190.000 358.004 C 188.350 357.784,185.290 357.425,183.200 357.207 C 177.326 356.596,169.986 355.165,164.600 353.581 C 163.060 353.129,161.119 352.585,160.286 352.374 C 159.454 352.163,158.464 351.838,158.086 351.651 C 157.709 351.465,156.410 350.999,155.200 350.616 C 153.990 350.232,152.460 349.679,151.800 349.386 C 151.140 349.094,148.881 348.133,146.779 347.252 C 143.249 345.772,139.942 344.130,133.800 340.809 C 128.959 338.191,119.028 331.239,113.806 326.812 C 108.357 322.194,98.942 312.511,95.703 308.196 C 95.536 307.974,94.756 306.984,93.968 305.996 C 91.868 303.361,87.200 296.468,87.200 296.002 C 87.200 295.781,87.061 295.600,86.892 295.600 C 86.722 295.600,86.141 294.790,85.600 293.800 C 84.434 291.666,84.432 291.666,81.938 293.200 C 80.866 293.860,79.916 294.400,79.827 294.400 C 79.739 294.400,78.308 295.203,76.647 296.185 C 73.316 298.155,55.648 308.338,52.800 309.931 C 51.810 310.484,48.149 312.616,44.663 314.668 C 41.178 316.721,38.256 318.400,38.168 318.400 C 38.081 318.400,36.073 319.546,33.705 320.947 C 29.822 323.244,15.096 331.747,11.600 333.710 C 3.907 338.031,4.063 337.799,6.597 341.130 C 8.010 342.988,14.617 349.600,15.061 349.600 C 15.357 349.600,15.600 349.768,15.600 349.974 C 15.600 350.180,16.230 350.576,17.000 350.854 C 17.770 351.133,18.400 351.505,18.400 351.680 C 18.400 351.856,18.642 352.000,18.939 352.000 C 19.235 352.000,19.893 352.360,20.400 352.800 C 20.907 353.240,21.565 353.600,21.861 353.600 C 22.158 353.600,22.400 353.777,22.400 353.992 C 22.400 354.208,22.850 354.498,23.400 354.636 C 23.950 354.774,24.400 355.033,24.400 355.212 C 24.400 355.390,24.940 355.655,25.600 355.800 C 26.260 355.945,26.800 356.224,26.800 356.420 C 26.800 356.616,27.745 357.246,28.900 357.820 C 31.770 359.245,33.271 360.107,33.914 360.700 C 34.213 360.975,34.714 361.200,35.029 361.200 C 35.343 361.200,35.600 361.341,35.600 361.512 C 35.600 361.684,36.095 362.038,36.700 362.298 C 37.925 362.825,39.292 363.658,39.604 364.068 C 39.716 364.216,40.301 364.460,40.904 364.612 C 41.507 364.763,42.000 365.034,42.000 365.214 C 42.000 365.394,42.945 366.015,44.100 366.593 C 46.922 368.006,48.461 368.899,49.114 369.500 C 49.413 369.775,49.914 370.000,50.229 370.000 C 50.543 370.000,50.800 370.166,50.800 370.368 C 50.800 370.571,51.325 370.852,51.967 370.993 C 52.608 371.134,53.233 371.508,53.354 371.824 C 53.476 372.141,53.851 372.400,54.187 372.400 C 54.524 372.400,54.800 372.566,54.800 372.768 C 54.800 372.971,55.340 373.255,56.000 373.400 C 56.660 373.545,57.200 373.818,57.200 374.006 C 57.200 374.194,57.830 374.576,58.600 374.854 C 59.370 375.133,60.000 375.505,60.000 375.680 C 60.000 375.856,60.242 376.000,60.539 376.000 C 60.835 376.000,61.493 376.360,62.000 376.800 C 62.507 377.240,63.165 377.600,63.461 377.600 C 63.758 377.600,64.000 377.777,64.000 377.992 C 64.000 378.208,64.450 378.498,65.000 378.636 C 65.550 378.774,66.000 379.033,66.000 379.212 C 66.000 379.390,66.540 379.655,67.200 379.800 C 67.860 379.945,68.400 380.224,68.400 380.420 C 68.400 380.616,69.345 381.246,70.500 381.820 C 73.575 383.347,74.983 384.161,75.133 384.500 C 75.207 384.665,75.494 384.800,75.772 384.800 C 76.050 384.800,76.693 385.160,77.200 385.600 C 77.707 386.040,78.365 386.400,78.661 386.400 C 78.958 386.400,79.200 386.577,79.200 386.792 C 79.200 387.008,79.650 387.298,80.200 387.436 C 80.750 387.574,81.200 387.833,81.200 388.012 C 81.200 388.190,81.740 388.455,82.400 388.600 C 83.060 388.745,83.600 389.016,83.600 389.203 C 83.600 389.389,84.545 390.015,85.700 390.593 C 88.522 392.006,90.061 392.899,90.714 393.500 C 91.013 393.775,91.514 394.000,91.829 394.000 C 92.143 394.000,92.400 394.141,92.400 394.312 C 92.400 394.484,92.895 394.838,93.500 395.098 C 94.725 395.625,96.092 396.458,96.404 396.868 C 96.516 397.016,97.101 397.260,97.704 397.412 C 98.307 397.563,98.800 397.825,98.800 397.995 C 98.800 398.164,99.385 398.540,100.100 398.829 C 100.815 399.118,101.490 399.455,101.600 399.577 C 101.886 399.896,103.233 400.724,104.400 401.298 C 104.950 401.569,105.638 402.018,105.929 402.295 C 106.219 402.573,106.714 402.800,107.029 402.800 C 107.343 402.800,107.600 402.966,107.600 403.168 C 107.600 403.371,108.140 403.655,108.800 403.800 C 109.460 403.945,110.000 404.224,110.000 404.420 C 110.000 404.616,110.945 405.246,112.100 405.820 C 115.175 407.347,116.583 408.161,116.733 408.500 C 116.807 408.665,117.094 408.800,117.372 408.800 C 117.650 408.800,118.293 409.160,118.800 409.600 C 119.307 410.040,119.965 410.400,120.261 410.400 C 120.558 410.400,120.800 410.560,120.800 410.757 C 120.800 410.953,121.250 411.226,121.800 411.364 C 122.350 411.502,122.800 411.778,122.800 411.976 C 122.800 412.174,123.325 412.452,123.967 412.593 C 124.608 412.734,125.224 413.085,125.334 413.373 C 125.445 413.661,126.043 414.024,126.664 414.180 C 127.284 414.336,127.884 414.584,127.996 414.732 C 128.308 415.142,129.675 415.975,130.900 416.502 C 131.505 416.762,132.000 417.116,132.000 417.288 C 132.000 417.459,132.257 417.600,132.571 417.600 C 132.886 417.600,133.381 417.827,133.671 418.105 C 133.962 418.382,134.650 418.839,135.200 419.121 C 135.750 419.402,137.280 420.251,138.600 421.008 C 139.920 421.764,141.450 422.608,142.000 422.884 C 142.550 423.159,143.090 423.477,143.200 423.592 C 143.504 423.908,144.881 424.747,146.000 425.298 C 146.550 425.569,147.238 426.018,147.529 426.295 C 147.819 426.573,148.314 426.800,148.629 426.800 C 148.943 426.800,149.200 426.941,149.200 427.112 C 149.200 427.284,149.695 427.646,150.300 427.917 C 150.905 428.187,152.480 429.038,153.800 429.808 C 155.120 430.577,156.695 431.424,157.300 431.691 C 157.905 431.957,158.400 432.316,158.400 432.488 C 158.400 432.659,158.642 432.800,158.939 432.800 C 159.235 432.800,159.893 433.160,160.400 433.600 C 160.907 434.040,161.565 434.400,161.861 434.400 C 162.158 434.400,162.400 434.560,162.400 434.757 C 162.400 434.953,162.850 435.226,163.400 435.364 C 163.950 435.502,164.400 435.778,164.400 435.976 C 164.400 436.174,164.925 436.452,165.567 436.593 C 166.208 436.734,166.824 437.085,166.934 437.373 C 167.045 437.661,167.643 438.024,168.264 438.180 C 168.884 438.336,169.484 438.584,169.596 438.732 C 169.908 439.142,171.275 439.975,172.500 440.502 C 173.105 440.762,173.600 441.116,173.600 441.288 C 173.600 441.459,173.842 441.600,174.139 441.600 C 174.435 441.600,175.093 441.960,175.600 442.400 C 176.107 442.840,176.750 443.200,177.028 443.200 C 177.306 443.200,177.593 443.335,177.667 443.500 C 177.740 443.665,178.700 444.250,179.800 444.800 C 180.900 445.350,182.229 446.115,182.754 446.500 C 183.279 446.885,184.044 447.200,184.454 447.200 C 184.864 447.200,185.200 447.372,185.200 447.582 C 185.200 447.792,185.875 448.085,186.700 448.234 C 187.525 448.383,188.386 448.650,188.613 448.829 C 190.452 450.274,209.548 450.274,211.387 448.829 C 211.614 448.650,212.475 448.383,213.300 448.234 C 214.125 448.085,214.800 447.792,214.800 447.582 C 214.800 447.372,215.136 447.200,215.546 447.200 C 215.956 447.200,216.721 446.876,217.246 446.480 C 217.771 446.084,219.145 445.321,220.300 444.785 C 221.455 444.250,222.400 443.693,222.400 443.549 C 222.400 443.405,222.850 443.174,223.400 443.036 C 223.950 442.898,224.400 442.608,224.400 442.392 C 224.400 442.177,224.657 442.000,224.971 442.000 C 225.286 442.000,225.781 441.773,226.071 441.495 C 226.362 441.218,227.050 440.769,227.600 440.498 C 228.890 439.863,230.145 439.072,230.404 438.732 C 230.516 438.584,231.116 438.336,231.736 438.180 C 232.357 438.024,232.955 437.661,233.066 437.373 C 233.176 437.085,233.792 436.734,234.433 436.593 C 235.075 436.452,235.600 436.171,235.600 435.968 C 235.600 435.766,235.857 435.600,236.171 435.600 C 236.486 435.600,236.983 435.375,237.278 435.100 C 237.572 434.825,238.516 434.240,239.377 433.800 C 240.237 433.360,241.134 432.818,241.371 432.595 C 241.607 432.373,242.250 431.964,242.800 431.687 C 243.350 431.410,244.880 430.559,246.200 429.796 C 247.520 429.033,249.095 428.187,249.700 427.917 C 250.305 427.646,250.800 427.284,250.800 427.112 C 250.800 426.941,251.057 426.800,251.371 426.800 C 251.686 426.800,252.181 426.573,252.471 426.295 C 252.762 426.018,253.450 425.569,254.000 425.298 C 255.290 424.663,256.545 423.872,256.804 423.532 C 256.916 423.384,257.488 423.143,258.075 422.996 C 258.662 422.848,259.233 422.491,259.344 422.202 C 259.455 421.912,260.098 421.554,260.773 421.406 C 261.448 421.258,262.000 420.971,262.000 420.768 C 262.000 420.566,262.242 420.400,262.539 420.400 C 262.835 420.400,263.493 420.040,264.000 419.600 C 264.507 419.160,265.165 418.800,265.461 418.800 C 265.758 418.800,266.000 418.620,266.000 418.400 C 266.000 418.180,266.257 418.000,266.571 418.000 C 266.886 418.000,267.381 417.773,267.671 417.495 C 267.962 417.218,268.650 416.769,269.200 416.498 C 270.490 415.863,271.745 415.072,272.004 414.732 C 272.116 414.584,272.716 414.336,273.336 414.180 C 273.957 414.024,274.555 413.661,274.666 413.373 C 274.776 413.085,275.392 412.734,276.033 412.593 C 276.675 412.452,277.200 412.171,277.200 411.968 C 277.200 411.766,277.457 411.600,277.771 411.600 C 278.086 411.600,278.589 411.354,278.890 411.053 C 279.191 410.752,279.834 410.380,280.319 410.226 C 280.803 410.072,281.200 409.778,281.200 409.573 C 281.200 409.368,281.457 409.200,281.771 409.200 C 282.086 409.200,282.589 408.975,282.890 408.700 C 283.425 408.210,284.264 407.730,288.100 405.714 C 289.145 405.165,290.000 404.569,290.000 404.390 C 290.000 404.210,290.540 403.945,291.200 403.800 C 291.860 403.655,292.400 403.371,292.400 403.168 C 292.400 402.966,292.657 402.800,292.971 402.800 C 293.286 402.800,293.784 402.575,294.079 402.300 C 294.373 402.025,295.466 401.354,296.507 400.808 C 297.548 400.263,298.400 399.692,298.400 399.540 C 298.400 399.388,298.952 399.142,299.627 398.994 C 300.302 398.846,300.945 398.488,301.056 398.198 C 301.167 397.909,301.738 397.552,302.325 397.404 C 302.912 397.257,303.484 397.016,303.596 396.868 C 303.908 396.458,305.275 395.625,306.500 395.098 C 307.105 394.838,307.600 394.484,307.600 394.312 C 307.600 394.141,307.857 394.000,308.171 394.000 C 308.486 394.000,308.987 393.775,309.286 393.500 C 309.939 392.899,311.478 392.006,314.300 390.593 C 315.455 390.015,316.400 389.389,316.400 389.203 C 316.400 389.016,316.940 388.745,317.600 388.600 C 318.260 388.455,318.800 388.190,318.800 388.012 C 318.800 387.833,319.250 387.574,319.800 387.436 C 320.350 387.298,320.800 387.008,320.800 386.792 C 320.800 386.577,321.057 386.400,321.371 386.400 C 321.686 386.400,322.189 386.154,322.490 385.853 C 322.791 385.552,323.434 385.180,323.919 385.026 C 324.403 384.872,324.800 384.593,324.800 384.405 C 324.800 384.217,325.340 383.945,326.000 383.800 C 326.660 383.655,327.200 383.408,327.200 383.252 C 327.200 383.095,328.190 382.466,329.400 381.853 C 330.610 381.240,331.600 380.587,331.600 380.401 C 331.600 380.216,332.140 379.945,332.800 379.800 C 333.460 379.655,334.000 379.371,334.000 379.168 C 334.000 378.966,334.257 378.800,334.571 378.800 C 334.886 378.800,335.389 378.554,335.690 378.253 C 335.991 377.952,336.634 377.580,337.119 377.426 C 337.603 377.272,338.000 376.978,338.000 376.773 C 338.000 376.568,338.257 376.400,338.571 376.400 C 338.886 376.400,339.389 376.154,339.690 375.853 C 339.991 375.552,340.679 375.167,341.219 374.998 C 341.758 374.828,342.629 374.355,343.154 373.945 C 343.679 373.535,344.354 373.200,344.654 373.200 C 344.954 373.200,345.200 373.020,345.200 372.800 C 345.200 372.580,345.476 372.400,345.813 372.400 C 346.149 372.400,346.524 372.141,346.646 371.824 C 346.767 371.508,347.392 371.134,348.033 370.993 C 348.675 370.852,349.200 370.571,349.200 370.368 C 349.200 370.166,349.457 370.000,349.771 370.000 C 350.086 370.000,350.589 369.775,350.890 369.500 C 351.425 369.010,352.264 368.530,356.100 366.514 C 357.145 365.965,358.000 365.369,358.000 365.190 C 358.000 365.010,358.540 364.745,359.200 364.600 C 359.860 364.455,360.400 364.171,360.400 363.968 C 360.400 363.766,360.642 363.600,360.939 363.600 C 361.235 363.600,361.893 363.240,362.400 362.800 C 362.907 362.360,363.565 362.000,363.861 362.000 C 364.158 362.000,364.400 361.820,364.400 361.600 C 364.400 361.380,364.657 361.200,364.971 361.200 C 365.286 361.200,365.789 360.975,366.090 360.700 C 366.625 360.210,367.464 359.730,371.300 357.714 C 372.345 357.165,373.200 356.569,373.200 356.390 C 373.200 356.210,373.740 355.945,374.400 355.800 C 375.060 355.655,375.600 355.371,375.600 355.168 C 375.600 354.966,375.857 354.800,376.171 354.800 C 376.486 354.800,376.989 354.554,377.290 354.253 C 377.591 353.952,378.234 353.580,378.719 353.426 C 379.203 353.272,379.600 352.978,379.600 352.773 C 379.600 352.568,379.857 352.400,380.171 352.400 C 380.486 352.400,380.981 352.167,381.271 351.883 C 381.562 351.599,382.385 351.127,383.100 350.835 C 383.815 350.542,384.400 350.145,384.400 349.951 C 384.400 349.758,384.625 349.599,384.900 349.598 C 385.665 349.594,390.063 345.176,393.552 340.907 C 393.953 340.417,394.713 339.157,395.240 338.107 C 395.768 337.058,396.335 336.140,396.500 336.067 C 396.665 335.993,396.806 335.723,396.814 335.467 C 396.821 335.210,397.175 334.280,397.600 333.400 C 398.025 332.520,398.379 331.485,398.386 331.100 C 398.394 330.715,398.554 330.400,398.741 330.400 C 399.922 330.400,400.000 323.814,400.000 224.643 C 400.000 123.193,399.985 122.071,398.570 118.940 C 398.256 118.246,398.000 117.496,398.000 117.272 C 398.000 116.837,396.754 114.335,396.371 114.000 C 396.245 113.890,396.025 113.485,395.883 113.100 C 395.525 112.129,395.683 112.060,389.000 116.083 M318.800 209.591 L 318.800 216.782 326.100 216.891 L 333.400 217.000 333.509 224.700 L 333.617 232.400 326.217 232.400 L 318.818 232.400 318.709 239.900 L 318.600 247.400 311.800 247.514 C 302.182 247.675,303.200 248.590,303.200 239.792 L 303.200 232.400 295.800 232.400 L 288.400 232.400 288.400 225.080 C 288.400 216.019,287.656 216.800,296.280 216.800 L 303.200 216.800 303.200 209.600 L 303.200 202.400 311.000 202.400 L 318.800 202.400 318.800 209.591 M374.400 209.591 L 374.400 216.782 381.700 216.891 L 389.000 217.000 389.109 224.700 L 389.217 232.400 381.817 232.400 L 374.418 232.400 374.309 239.900 L 374.200 247.400 366.600 247.400 L 359.000 247.400 358.891 239.900 L 358.782 232.400 351.391 232.400 L 344.000 232.400 344.000 225.080 C 344.000 216.019,343.256 216.800,351.880 216.800 L 358.800 216.800 358.800 209.600 L 358.800 202.400 366.600 202.400 L 374.400 202.400 374.400 209.591 " stroke="none" fill="#044d8d" fill-rule="evenodd"></path><path id="path3" d="M191.690 91.582 C 188.769 91.750,186.309 91.957,186.223 92.043 C 186.137 92.130,192.378 92.200,200.092 92.200 C 207.805 92.200,213.415 92.084,212.558 91.941 C 209.811 91.485,197.172 91.268,191.690 91.582 M180.125 92.765 C 178.983 92.904,177.912 93.154,177.745 93.322 C 177.415 93.652,181.340 93.298,183.600 92.793 L 185.000 92.480 183.600 92.496 C 182.830 92.505,181.266 92.626,180.125 92.765 M218.000 93.000 C 219.650 93.302,221.360 93.550,221.800 93.550 L 222.600 93.549 221.800 93.225 C 221.360 93.047,219.650 92.799,218.000 92.675 L 215.000 92.450 218.000 93.000 M173.307 93.976 C 172.377 94.128,171.477 94.392,171.307 94.563 C 170.976 94.899,174.342 94.477,175.992 93.975 L 177.000 93.669 176.000 93.684 C 175.450 93.693,174.238 93.824,173.307 93.976 M224.008 93.949 C 225.466 94.430,229.187 94.871,228.200 94.446 C 227.760 94.256,226.410 93.992,225.200 93.859 C 223.811 93.706,223.372 93.739,224.008 93.949 M167.600 95.312 C 166.610 95.546,166.070 95.796,166.400 95.866 C 166.730 95.937,167.900 95.742,169.000 95.433 C 171.329 94.779,170.246 94.685,167.600 95.312 M229.400 94.992 C 230.184 95.370,238.981 97.552,239.128 97.405 C 239.210 97.323,238.495 97.042,237.539 96.780 C 236.583 96.519,234.990 96.065,234.000 95.772 C 232.178 95.233,228.663 94.636,229.400 94.992 M158.800 97.844 C 156.490 98.610,154.349 99.323,154.043 99.428 C 153.736 99.533,153.569 99.703,153.672 99.805 C 153.775 99.908,156.276 99.192,159.229 98.214 C 162.183 97.237,164.240 96.440,163.800 96.444 C 163.360 96.448,161.110 97.078,158.800 97.844 M240.965 98.230 C 241.826 98.545,242.616 98.718,242.721 98.613 C 242.976 98.357,240.922 97.593,240.074 97.628 C 239.703 97.644,240.104 97.914,240.965 98.230 M243.800 99.189 C 247.352 100.675,252.151 102.382,252.314 102.219 C 252.424 102.109,252.264 101.929,251.957 101.820 C 251.651 101.710,249.720 100.986,247.666 100.210 C 244.471 99.004,241.448 98.205,243.800 99.189 M150.324 100.938 C 148.034 101.825,146.592 102.748,148.335 102.212 C 149.697 101.792,153.470 100.045,153.000 100.051 C 152.780 100.054,151.576 100.453,150.324 100.938 M142.900 104.204 C 140.865 105.165,139.200 106.063,139.200 106.199 C 139.200 106.336,139.335 106.373,139.500 106.283 C 140.795 105.575,146.105 103.200,146.392 103.200 C 146.590 103.200,146.864 103.020,147.000 102.800 C 147.399 102.155,146.809 102.357,142.900 104.204 M253.000 102.800 C 253.136 103.020,253.435 103.200,253.666 103.200 C 255.213 103.200,269.334 111.070,276.035 115.667 C 287.936 123.832,301.902 137.766,309.544 149.100 C 310.471 150.475,311.324 151.600,311.439 151.600 C 311.681 151.600,311.661 151.565,309.868 148.901 C 301.108 135.884,287.424 122.605,273.000 113.124 C 265.681 108.313,252.063 101.284,253.000 102.800 M137.389 106.937 C 136.955 107.232,135.340 108.154,133.800 108.985 C 132.260 109.816,130.716 110.744,130.369 111.048 C 130.021 111.352,129.622 111.600,129.480 111.600 C 129.088 111.600,123.224 115.638,122.932 116.109 C 122.628 116.602,122.923 116.429,126.195 114.191 C 129.320 112.053,137.502 107.200,137.981 107.200 C 138.186 107.200,138.464 107.020,138.600 106.800 C 138.950 106.233,138.318 106.304,137.389 106.937 M119.141 118.660 C 111.680 124.391,102.017 133.702,96.993 140.000 C 95.677 141.650,94.405 143.208,94.166 143.463 C 92.656 145.072,84.629 157.162,84.894 157.428 C 84.981 157.514,86.111 155.923,87.407 153.892 C 95.294 141.526,105.461 130.186,116.800 121.105 C 122.388 116.631,122.658 116.400,122.321 116.400 C 122.190 116.400,120.759 117.417,119.141 118.660 M312.086 152.800 C 312.406 153.350,313.169 154.663,313.782 155.718 C 314.396 156.773,314.981 157.552,315.084 157.449 C 315.311 157.223,313.525 154.181,312.353 152.800 L 311.505 151.800 312.086 152.800 M84.126 158.500 C 82.890 160.422,78.282 169.615,78.464 169.797 C 78.553 169.886,79.994 167.269,81.666 163.980 C 84.345 158.710,85.164 156.885,84.126 158.500 M193.645 158.428 C 191.579 158.620,189.839 158.827,189.778 158.889 C 189.717 158.950,194.251 159.000,199.853 159.000 C 205.456 159.000,209.493 158.888,208.825 158.752 C 206.500 158.276,197.375 158.082,193.645 158.428 M185.664 159.673 C 184.709 159.887,184.020 160.153,184.132 160.266 C 184.360 160.493,188.800 159.643,188.800 159.372 C 188.800 159.121,187.638 159.233,185.664 159.673 M211.400 159.538 C 211.840 159.731,213.100 160.002,214.200 160.140 C 215.552 160.309,215.925 160.273,215.353 160.028 C 214.887 159.828,213.627 159.557,212.553 159.426 C 211.282 159.271,210.880 159.310,211.400 159.538 M180.856 160.859 C 180.117 161.072,179.604 161.337,179.716 161.449 C 179.945 161.679,183.200 160.871,183.200 160.585 C 183.200 160.320,182.403 160.414,180.856 160.859 M217.800 160.998 C 218.460 161.309,219.360 161.561,219.800 161.557 L 220.600 161.549 219.800 161.234 C 219.360 161.061,218.460 160.810,217.800 160.676 L 216.600 160.433 217.800 160.998 M177.200 162.153 C 164.521 166.841,153.453 175.314,145.496 186.424 C 142.858 190.107,137.573 200.039,137.627 201.212 C 137.642 201.536,137.857 201.350,138.104 200.800 C 140.396 195.708,141.175 194.157,142.930 191.200 C 150.168 179.002,161.384 169.196,174.200 163.859 C 176.180 163.035,178.160 162.201,178.600 162.007 C 179.838 161.461,178.770 161.572,177.200 162.153 M220.954 161.926 C 221.095 162.153,221.792 162.463,222.505 162.616 C 232.586 164.774,249.659 178.510,256.171 189.700 C 256.779 190.745,257.441 191.600,257.644 191.600 C 258.134 191.600,256.462 189.043,252.887 184.324 C 246.151 175.432,236.488 167.958,225.972 163.506 C 221.843 161.758,220.611 161.370,220.954 161.926 M76.995 172.650 C 76.448 173.887,76.013 175.102,76.028 175.350 C 76.054 175.759,77.147 173.544,78.027 171.300 C 78.759 169.434,77.948 170.494,76.995 172.650 M75.033 177.633 C 74.667 178.550,74.442 179.375,74.533 179.467 C 74.625 179.558,75.000 178.883,75.367 177.967 C 75.733 177.050,75.958 176.225,75.867 176.133 C 75.775 176.042,75.400 176.717,75.033 177.633 M73.640 181.440 C 73.097 183.408,73.377 183.688,74.000 181.800 C 74.264 181.001,74.385 180.252,74.269 180.136 C 74.153 180.020,73.870 180.607,73.640 181.440 M72.400 185.200 C 71.811 187.389,72.123 187.701,72.764 185.564 C 73.034 184.661,73.165 183.831,73.054 183.721 C 72.943 183.610,72.649 184.276,72.400 185.200 M71.203 189.189 C 70.956 190.108,70.822 191.066,70.906 191.319 C 70.991 191.572,71.279 190.907,71.548 189.841 C 71.816 188.775,71.950 187.816,71.844 187.711 C 71.739 187.606,71.450 188.271,71.203 189.189 M70.306 192.469 C 70.173 192.815,69.966 193.976,69.846 195.049 L 69.628 197.000 70.203 194.800 C 70.750 192.709,70.819 191.130,70.306 192.469 M69.066 197.870 C 68.496 199.880,67.161 209.686,67.273 211.044 C 67.357 212.071,67.565 211.173,67.885 208.400 C 68.152 206.090,68.648 202.686,68.988 200.836 C 69.544 197.803,69.591 196.018,69.066 197.870 M136.261 205.075 C 135.699 206.794,135.144 208.920,135.029 209.800 C 134.833 211.304,134.856 211.280,135.414 209.400 C 135.741 208.300,136.370 206.249,136.813 204.842 C 137.256 203.435,137.542 202.209,137.450 202.117 C 137.358 202.025,136.823 203.356,136.261 205.075 M303.796 203.300 C 303.479 204.184,303.389 217.601,303.700 217.601 C 303.865 217.600,304.000 214.364,304.000 210.409 L 304.000 203.218 311.300 203.099 L 318.600 202.981 311.287 202.890 C 305.733 202.822,303.932 202.920,303.796 203.300 M359.396 203.300 C 359.079 204.184,358.989 217.601,359.300 217.601 C 359.465 217.600,359.600 214.364,359.600 210.409 L 359.600 203.218 366.900 203.099 L 374.200 202.981 366.887 202.890 C 361.333 202.822,359.532 202.920,359.396 203.300 M134.266 212.900 C 133.819 215.502,133.599 219.030,133.950 217.975 C 134.357 216.751,134.944 211.600,134.676 211.600 C 134.573 211.600,134.389 212.185,134.266 212.900 M66.920 214.800 C 66.920 216.010,66.995 216.505,67.087 215.900 C 67.178 215.295,67.178 214.305,67.087 213.700 C 66.995 213.095,66.920 213.590,66.920 214.800 M66.567 224.800 C 66.567 229.090,66.626 230.845,66.698 228.700 C 66.770 226.555,66.770 223.045,66.698 220.900 C 66.626 218.755,66.567 220.510,66.567 224.800 M288.891 224.900 L 289.000 232.200 296.291 232.309 L 303.582 232.418 303.691 239.709 L 303.800 247.000 310.900 247.014 L 318.001 247.029 311.009 246.905 L 304.018 246.782 303.909 239.491 L 303.800 232.200 296.483 232.091 L 289.165 231.982 289.283 224.790 C 289.347 220.835,289.261 217.599,289.091 217.600 C 288.921 217.600,288.831 220.885,288.891 224.900 M344.400 225.000 L 344.400 232.400 351.791 232.400 L 359.182 232.400 359.291 239.700 L 359.400 247.000 366.500 247.014 L 373.601 247.029 366.609 246.905 L 359.618 246.782 359.509 239.491 L 359.400 232.200 352.083 232.091 L 344.765 231.982 344.883 224.790 C 344.947 220.835,344.865 217.599,344.700 217.600 C 344.535 217.600,344.400 220.930,344.400 225.000 M133.350 225.000 C 133.351 227.420,133.416 228.358,133.496 227.085 C 133.576 225.812,133.575 223.832,133.494 222.685 C 133.414 221.538,133.349 222.580,133.350 225.000 M133.838 233.200 C 133.955 234.630,134.211 236.430,134.406 237.200 C 134.671 238.245,134.704 237.925,134.538 235.940 C 134.416 234.477,134.160 232.677,133.970 231.940 C 133.718 230.965,133.682 231.309,133.838 233.200 M322.300 232.298 C 324.335 232.371,327.665 232.371,329.700 232.298 C 331.735 232.225,330.070 232.166,326.000 232.166 C 321.930 232.166,320.265 232.225,322.300 232.298 M377.900 232.298 C 379.935 232.371,383.265 232.371,385.300 232.298 C 387.335 232.225,385.670 232.166,381.600 232.166 C 377.530 232.166,375.865 232.225,377.900 232.298 M66.845 234.031 C 66.780 236.087,67.591 243.984,68.012 245.400 C 68.401 246.706,68.356 246.106,67.410 237.383 C 67.124 234.752,66.870 233.244,66.845 234.031 M135.065 240.200 C 135.392 242.291,137.950 250.085,138.479 250.600 C 138.961 251.069,138.574 249.565,137.811 248.000 C 137.543 247.450,136.915 245.470,136.415 243.600 C 135.304 239.439,134.715 237.956,135.065 240.200 M68.648 248.965 C 68.772 250.266,69.035 251.706,69.232 252.165 C 69.660 253.163,69.335 250.158,68.780 247.994 C 68.502 246.908,68.473 247.123,68.648 248.965 M138.800 251.342 C 138.800 251.847,142.139 258.394,142.310 258.223 C 142.402 258.131,141.731 256.564,140.818 254.741 C 139.162 251.432,138.800 250.822,138.800 251.342 M69.849 254.800 C 69.988 255.790,70.260 256.960,70.453 257.400 C 70.681 257.921,70.715 257.571,70.551 256.400 C 70.412 255.410,70.140 254.240,69.947 253.800 C 69.719 253.279,69.685 253.629,69.849 254.800 M71.040 259.800 C 71.182 260.680,71.474 261.580,71.691 261.800 C 71.949 262.063,71.985 261.720,71.796 260.800 C 71.366 258.707,70.730 257.866,71.040 259.800 M72.224 263.800 C 72.355 264.680,72.641 265.580,72.859 265.800 C 73.292 266.235,72.950 264.419,72.333 263.000 C 72.100 262.464,72.064 262.727,72.224 263.800 M73.200 266.791 C 73.200 267.404,75.969 274.723,77.289 277.600 C 77.945 279.030,78.648 280.630,78.852 281.155 C 79.056 281.681,79.305 282.028,79.407 281.927 C 79.508 281.826,78.701 279.730,77.614 277.270 C 76.526 274.810,75.159 271.358,74.575 269.599 C 73.589 266.626,73.200 265.831,73.200 266.791 M247.191 271.900 L 243.800 275.400 247.300 272.009 C 250.551 268.859,250.982 268.400,250.691 268.400 C 250.631 268.400,249.056 269.975,247.191 271.900 M153.000 272.400 C 154.528 273.940,155.869 275.200,155.979 275.200 C 156.089 275.200,154.928 273.940,153.400 272.400 C 151.872 270.860,150.531 269.600,150.421 269.600 C 150.311 269.600,151.472 270.860,153.000 272.400 M158.200 277.002 C 159.080 277.809,160.160 278.656,160.600 278.884 C 161.615 279.409,161.114 278.949,158.600 277.047 L 156.600 275.534 158.200 277.002 M241.993 276.513 C 241.439 277.001,240.449 277.815,239.793 278.322 C 239.137 278.829,238.960 279.070,239.400 278.857 C 240.233 278.454,243.550 275.636,243.200 275.629 C 243.090 275.627,242.547 276.025,241.993 276.513 M292.000 278.179 C 292.000 278.289,292.540 278.659,293.200 279.000 C 293.860 279.341,294.400 279.531,294.400 279.421 C 294.400 279.311,293.860 278.941,293.200 278.600 C 292.540 278.259,292.000 278.069,292.000 278.179 M79.600 282.700 C 79.600 282.891,79.861 283.396,80.180 283.824 C 80.740 284.573,80.752 284.568,80.532 283.694 C 80.304 282.791,79.600 282.040,79.600 282.700 M80.813 285.024 C 80.806 285.256,81.064 285.796,81.387 286.224 C 81.710 286.651,81.980 286.809,81.987 286.576 C 81.994 286.344,81.736 285.804,81.413 285.376 C 81.090 284.949,80.820 284.791,80.813 285.024 M175.600 287.031 C 175.600 287.301,177.678 288.056,177.876 287.857 C 177.967 287.767,177.492 287.501,176.820 287.267 C 176.149 287.033,175.600 286.927,175.600 287.031 M223.000 287.414 C 221.995 287.898,221.963 287.953,222.800 287.751 C 223.350 287.619,223.971 287.350,224.180 287.155 C 224.698 286.671,224.414 286.733,223.000 287.414 M82.250 287.812 C 82.656 288.909,84.286 291.482,84.760 291.775 C 84.976 291.909,84.540 291.000,83.791 289.757 C 82.255 287.207,81.823 286.662,82.250 287.812 M184.600 290.000 C 185.040 290.189,185.670 290.344,186.000 290.344 C 186.378 290.344,186.304 290.217,185.800 290.000 C 185.360 289.811,184.730 289.656,184.400 289.656 C 184.022 289.656,184.096 289.783,184.600 290.000 M314.150 290.959 C 314.594 291.315,314.800 291.823,314.655 292.202 C 314.512 292.573,314.575 292.739,314.805 292.597 C 315.493 292.172,315.233 291.244,314.300 290.792 C 313.453 290.381,313.444 290.391,314.150 290.959 M206.000 291.200 L 204.200 291.480 205.800 291.493 C 206.680 291.500,207.940 291.368,208.600 291.200 C 210.200 290.793,208.619 290.793,206.000 291.200 M193.100 291.482 C 193.595 291.578,194.405 291.578,194.900 291.482 C 195.395 291.387,194.990 291.309,194.000 291.309 C 193.010 291.309,192.605 291.387,193.100 291.482 M97.200 309.725 C 97.200 309.794,97.785 310.379,98.500 311.025 L 99.800 312.200 98.625 310.900 C 97.530 309.688,97.200 309.416,97.200 309.725 M299.178 313.500 L 297.800 315.000 299.300 313.622 C 300.696 312.338,300.984 312.000,300.678 312.000 C 300.612 312.000,299.937 312.675,299.178 313.500 M294.581 318.500 L 293.000 320.200 294.700 318.619 C 296.281 317.148,296.584 316.800,296.281 316.800 C 296.216 316.800,295.451 317.565,294.581 318.500 M110.200 323.200 C 111.059 324.080,111.852 324.800,111.962 324.800 C 112.072 324.800,111.459 324.080,110.600 323.200 C 109.741 322.320,108.948 321.600,108.838 321.600 C 108.728 321.600,109.341 322.320,110.200 323.200 M288.575 324.100 L 287.400 325.400 288.700 324.225 C 289.912 323.130,290.184 322.800,289.875 322.800 C 289.806 322.800,289.221 323.385,288.575 324.100 M112.800 325.325 C 112.800 325.394,113.385 325.979,114.100 326.625 L 115.400 327.800 114.225 326.500 C 113.130 325.288,112.800 325.016,112.800 325.325 M285.775 326.500 L 284.600 327.800 285.900 326.625 C 286.615 325.979,287.200 325.394,287.200 325.325 C 287.200 325.016,286.870 325.288,285.775 326.500 M238.200 352.214 C 237.200 352.696,237.166 352.751,238.000 352.548 C 239.133 352.271,240.407 351.621,239.800 351.630 C 239.580 351.633,238.860 351.896,238.200 352.214 M164.400 353.141 C 164.730 353.334,165.540 353.609,166.200 353.752 C 166.968 353.918,167.184 353.884,166.800 353.659 C 166.470 353.466,165.660 353.191,165.000 353.048 C 164.232 352.882,164.016 352.916,164.400 353.141 M175.633 355.747 C 175.725 355.828,176.520 356.004,177.400 356.138 C 178.515 356.307,178.758 356.271,178.200 356.019 C 177.432 355.671,175.290 355.444,175.633 355.747 M221.600 356.000 C 220.808 356.254,220.767 356.320,221.400 356.320 C 221.840 356.320,222.650 356.176,223.200 356.000 C 223.992 355.746,224.033 355.680,223.400 355.680 C 222.960 355.680,222.150 355.824,221.600 356.000 M185.000 357.210 C 186.590 357.552,190.285 357.733,189.967 357.454 C 189.875 357.374,188.360 357.208,186.600 357.087 C 184.302 356.929,183.851 356.963,185.000 357.210 M214.500 357.076 C 214.885 357.176,215.515 357.176,215.900 357.076 C 216.285 356.975,215.970 356.893,215.200 356.893 C 214.430 356.893,214.115 356.975,214.500 357.076 M210.905 357.487 C 211.514 357.579,212.414 357.577,212.905 357.482 C 213.397 357.387,212.900 357.311,211.800 357.314 C 210.700 357.317,210.297 357.395,210.905 357.487 M192.700 357.882 C 193.195 357.978,194.005 357.978,194.500 357.882 C 194.995 357.787,194.590 357.709,193.600 357.709 C 192.610 357.709,192.205 357.787,192.700 357.882 M205.705 357.887 C 206.314 357.979,207.214 357.977,207.705 357.882 C 208.197 357.787,207.700 357.711,206.600 357.714 C 205.500 357.717,205.097 357.795,205.705 357.887 " stroke="none" fill="#9cbddc" fill-rule="evenodd"></path><path id="path4" d="M391.891 113.975 C 388.331 116.162,387.217 117.103,390.200 115.403 C 393.460 113.545,395.828 112.013,395.400 112.040 C 395.180 112.054,393.601 112.925,391.891 113.975 M380.029 120.835 C 377.075 122.595,373.735 124.543,372.607 125.162 C 368.527 127.401,360.000 132.486,360.000 132.680 C 360.000 132.790,360.675 132.478,361.500 131.989 C 362.325 131.499,364.530 130.243,366.400 129.199 C 368.270 128.154,372.113 125.927,374.941 124.250 C 377.768 122.572,380.166 121.200,380.271 121.200 C 380.562 121.200,386.000 117.930,386.000 117.754 C 386.000 117.354,385.022 117.859,380.029 120.835 M356.278 134.480 C 354.782 135.366,353.643 136.176,353.748 136.281 C 353.937 136.470,359.600 133.251,359.600 132.954 C 359.600 132.611,358.875 132.944,356.278 134.480 M350.108 138.130 C 347.698 139.564,345.600 141.044,347.000 140.322 C 348.382 139.610,353.200 136.682,353.200 136.554 C 353.200 136.298,353.104 136.347,350.108 138.130 M345.168 140.943 C 344.600 141.240,341.540 143.012,338.368 144.883 C 335.196 146.753,331.700 148.779,330.600 149.383 C 326.576 151.596,318.400 156.484,318.400 156.677 C 318.400 156.787,319.165 156.429,320.100 155.883 C 321.035 155.337,322.700 154.393,323.800 153.787 C 324.900 153.180,328.320 151.200,331.400 149.386 C 334.480 147.572,337.900 145.594,339.000 144.989 C 342.320 143.164,346.400 140.719,346.400 140.554 C 346.400 140.323,346.291 140.358,345.168 140.943 M316.200 157.810 L 315.000 158.816 316.500 157.968 C 317.325 157.502,318.000 157.049,318.000 156.960 C 318.000 156.557,317.301 156.887,316.200 157.810 M257.642 191.637 C 256.675 192.066,254.425 193.290,252.642 194.357 C 250.859 195.424,248.500 196.790,247.400 197.393 C 243.508 199.525,237.200 203.276,237.200 203.459 C 237.200 203.711,241.169 201.509,248.821 197.012 C 252.352 194.937,256.222 192.775,257.421 192.208 C 260.446 190.776,260.625 190.313,257.642 191.637 M303.200 209.600 L 303.200 216.800 296.249 216.800 C 287.615 216.800,288.351 215.998,288.500 225.252 L 288.619 232.600 288.710 225.143 C 288.817 216.287,287.885 217.200,296.816 217.200 L 303.566 217.200 303.683 209.800 C 303.747 205.729,303.665 202.399,303.500 202.400 C 303.335 202.400,303.200 205.640,303.200 209.600 M358.800 209.600 L 358.800 216.800 351.880 216.800 C 343.235 216.800,343.979 215.999,344.087 225.180 L 344.173 232.600 344.387 225.000 L 344.600 217.400 351.800 217.200 L 359.000 217.000 359.200 209.699 C 359.310 205.684,359.265 202.399,359.100 202.399 C 358.935 202.400,358.800 205.640,358.800 209.600 M233.200 205.600 C 232.650 206.030,232.071 206.386,231.914 206.391 C 231.507 206.404,222.000 212.042,222.000 212.270 C 222.000 212.487,226.078 210.227,227.662 209.133 C 228.246 208.730,228.844 208.400,228.992 208.400 C 229.337 208.400,234.800 205.159,234.800 204.954 C 234.800 204.600,234.137 204.867,233.200 205.600 M219.600 213.429 C 218.610 213.974,217.170 214.791,216.400 215.244 C 215.630 215.698,213.605 216.880,211.900 217.872 C 210.195 218.864,208.800 219.764,208.800 219.872 C 208.800 219.980,209.655 219.582,210.700 218.988 C 211.745 218.394,213.410 217.454,214.400 216.899 C 217.961 214.902,221.600 212.706,221.600 212.554 C 221.600 212.330,221.571 212.343,219.600 213.429 M325.571 217.095 C 330.317 217.180,332.731 217.376,333.136 217.710 C 333.619 218.108,333.693 218.088,333.532 217.600 C 333.366 217.096,332.152 216.998,325.967 216.985 L 318.600 216.970 325.571 217.095 M381.591 217.095 L 388.783 217.218 388.905 224.809 L 389.027 232.401 389.013 224.700 L 389.000 217.000 381.700 216.986 L 374.399 216.972 381.591 217.095 M206.600 220.928 C 199.813 224.714,198.319 225.659,200.300 224.911 C 201.262 224.547,208.400 220.363,208.400 220.162 C 208.400 219.929,208.362 219.945,206.600 220.928 M194.000 228.131 C 191.528 229.431,191.142 229.675,191.305 229.838 C 191.489 230.022,195.200 228.048,195.200 227.766 C 195.200 227.522,195.099 227.553,194.000 228.131 M187.500 231.829 C 186.005 232.640,186.096 232.978,187.600 232.200 C 188.260 231.859,188.800 231.494,188.800 231.390 C 188.800 231.132,188.757 231.147,187.500 231.829 M303.286 239.657 C 303.211 246.140,303.283 247.146,303.833 247.357 C 304.749 247.709,318.318 247.656,318.539 247.300 C 318.641 247.135,315.366 247.000,311.262 247.000 L 303.800 247.000 303.586 239.600 L 303.373 232.200 303.286 239.657 M358.987 240.000 L 359.000 247.400 366.371 247.509 C 370.425 247.569,373.881 247.479,374.052 247.309 C 374.222 247.139,370.954 247.052,366.790 247.117 L 359.218 247.233 359.096 239.917 L 358.974 232.600 358.987 240.000 M180.800 235.731 C 178.328 237.031,177.942 237.275,178.105 237.438 C 178.289 237.622,182.000 235.648,182.000 235.366 C 182.000 235.122,181.899 235.153,180.800 235.731 M174.300 239.429 C 172.805 240.240,172.896 240.578,174.400 239.800 C 175.060 239.459,175.600 239.094,175.600 238.990 C 175.600 238.732,175.557 238.747,174.300 239.429 M166.728 243.812 C 165.698 244.349,164.729 244.992,164.574 245.242 C 164.310 245.670,167.762 243.853,168.580 243.134 C 169.184 242.603,168.733 242.768,166.728 243.812 M160.100 247.642 C 158.945 248.315,158.000 248.958,158.000 249.071 C 158.000 249.293,161.557 247.315,162.180 246.747 C 162.858 246.128,162.242 246.393,160.100 247.642 M151.284 252.666 C 150.340 253.235,149.637 253.771,149.723 253.856 C 149.895 254.028,153.600 252.031,153.600 251.766 C 153.600 251.412,152.934 251.671,151.284 252.666 M146.900 255.242 C 145.745 255.915,144.800 256.558,144.800 256.671 C 144.800 256.893,148.357 254.915,148.980 254.347 C 149.658 253.728,149.042 253.993,146.900 255.242 M152.600 271.600 C 154.128 273.140,155.469 274.400,155.579 274.400 C 155.689 274.400,154.528 273.140,153.000 271.600 C 151.472 270.060,150.131 268.800,150.021 268.800 C 149.911 268.800,151.072 270.060,152.600 271.600 M246.989 271.700 L 244.200 274.600 247.100 271.811 C 249.794 269.220,250.183 268.800,249.889 268.800 C 249.828 268.800,248.523 270.105,246.989 271.700 M306.000 285.779 C 306.000 285.889,306.540 286.259,307.200 286.600 C 307.860 286.941,308.400 287.131,308.400 287.021 C 308.400 286.911,307.860 286.541,307.200 286.200 C 306.540 285.859,306.000 285.669,306.000 285.779 M187.233 290.147 C 187.325 290.228,188.120 290.404,189.000 290.538 C 190.115 290.707,190.358 290.671,189.800 290.419 C 189.032 290.071,186.890 289.844,187.233 290.147 M80.881 293.281 C 80.156 293.729,79.638 294.171,79.731 294.264 C 79.908 294.442,82.800 292.836,82.800 292.560 C 82.800 292.246,82.181 292.478,80.881 293.281 M76.900 295.642 C 75.745 296.315,74.800 296.958,74.800 297.071 C 74.800 297.293,78.357 295.315,78.980 294.747 C 79.658 294.128,79.042 294.393,76.900 295.642 M67.500 301.029 C 66.675 301.570,66.000 302.114,66.000 302.238 C 66.000 302.466,68.670 300.963,69.380 300.336 C 70.185 299.624,68.950 300.080,67.500 301.029 M63.496 303.350 C 61.206 304.758,61.137 305.091,63.400 303.813 C 65.702 302.513,65.866 302.395,65.367 302.412 C 65.165 302.419,64.323 302.841,63.496 303.350 M57.900 306.629 C 56.405 307.440,56.496 307.778,58.000 307.000 C 58.660 306.659,59.200 306.294,59.200 306.190 C 59.200 305.932,59.157 305.947,57.900 306.629 M54.662 308.447 C 53.816 308.893,53.209 309.342,53.312 309.445 C 53.502 309.636,56.400 308.055,56.400 307.760 C 56.400 307.534,56.371 307.545,54.662 308.447 M50.500 310.842 C 49.345 311.515,48.400 312.158,48.400 312.271 C 48.400 312.493,51.957 310.515,52.580 309.947 C 53.258 309.328,52.642 309.593,50.500 310.842 M299.775 313.300 L 298.600 314.600 299.900 313.425 C 300.615 312.779,301.200 312.194,301.200 312.125 C 301.200 311.816,300.870 312.088,299.775 313.300 M42.700 315.429 C 41.205 316.240,41.296 316.578,42.800 315.800 C 43.460 315.459,44.000 315.094,44.000 314.990 C 44.000 314.732,43.957 314.747,42.700 315.429 M39.281 317.281 C 38.556 317.729,38.038 318.171,38.131 318.264 C 38.308 318.442,41.200 316.836,41.200 316.560 C 41.200 316.246,40.581 316.478,39.281 317.281 M294.975 318.500 L 293.800 319.800 295.100 318.625 C 296.312 317.530,296.584 317.200,296.275 317.200 C 296.206 317.200,295.621 317.785,294.975 318.500 M36.300 319.029 C 34.805 319.840,34.896 320.178,36.400 319.400 C 37.060 319.059,37.600 318.694,37.600 318.590 C 37.600 318.332,37.557 318.347,36.300 319.029 M29.500 323.029 C 28.005 323.840,28.096 324.178,29.600 323.400 C 30.260 323.059,30.800 322.694,30.800 322.590 C 30.800 322.332,30.757 322.347,29.500 323.029 M288.175 324.900 L 287.000 326.200 288.300 325.025 C 289.015 324.379,289.600 323.794,289.600 323.725 C 289.600 323.416,289.270 323.688,288.175 324.900 M23.909 326.162 C 17.729 329.856,19.391 329.255,26.300 325.298 C 27.905 324.378,28.379 323.952,27.700 324.038 C 27.535 324.059,25.829 325.015,23.909 326.162 M16.300 330.629 C 14.805 331.440,14.896 331.778,16.400 331.000 C 17.060 330.659,17.600 330.294,17.600 330.190 C 17.600 329.932,17.557 329.947,16.300 330.629 M13.062 332.447 C 12.216 332.893,11.609 333.342,11.712 333.445 C 11.902 333.636,14.800 332.055,14.800 331.760 C 14.800 331.534,14.771 331.545,13.062 332.447 M8.900 334.842 C 7.745 335.515,6.800 336.158,6.800 336.271 C 6.800 336.493,10.357 334.515,10.980 333.947 C 11.658 333.328,11.042 333.593,8.900 334.842 M5.300 336.888 C 4.805 337.127,4.400 337.475,4.400 337.661 C 4.400 338.194,4.765 338.064,5.692 337.200 C 6.652 336.305,6.598 336.262,5.300 336.888 M167.400 354.400 C 167.840 354.589,168.470 354.744,168.800 354.744 C 169.178 354.744,169.104 354.617,168.600 354.400 C 168.160 354.211,167.530 354.056,167.200 354.056 C 166.822 354.056,166.896 354.183,167.400 354.400 M172.800 355.582 C 173.130 355.805,173.745 355.991,174.167 355.994 C 175.190 356.002,174.871 355.773,173.400 355.444 C 172.524 355.248,172.362 355.285,172.800 355.582 M180.500 357.076 C 180.885 357.176,181.515 357.176,181.900 357.076 C 182.285 356.975,181.970 356.893,181.200 356.893 C 180.430 356.893,180.115 356.975,180.500 357.076 M195.700 358.298 C 198.065 358.369,201.935 358.369,204.300 358.298 C 206.665 358.228,204.730 358.170,200.000 358.170 C 195.270 358.170,193.335 358.228,195.700 358.298 " stroke="none" fill="#3f81b4" fill-rule="evenodd"></path></g></svg>